<svg width="43" height="39" viewBox="0 0 43 39" fill="none" xmlns="http://www.w3.org/2000/svg">
<path d="M21.932 12.8514H20.6162V15.0948H21.932V12.8514Z" fill="#555555"/>
<path d="M19.7488 15.327L18.6272 13.3844L17.4878 14.0422L18.6095 15.9848L19.7488 15.327Z" fill="#555555"/>
<path d="M17.9747 16.6204L16.0317 15.4989L15.3739 16.6387L17.3168 17.7602L17.9747 16.6204Z" fill="#555555"/>
<path d="M17.0827 18.6283H14.8394V19.9441H17.0827V18.6283Z" fill="#555555"/>
<path d="M17.3151 20.8139L15.3721 21.9354L16.03 23.0752L17.973 21.9538L17.3151 20.8139Z" fill="#555555"/>
<path d="M17.4879 24.5287L18.6272 25.1866L19.749 23.244L18.6097 22.5861L17.4879 24.5287Z" fill="#555555"/>
<path d="M21.932 23.4775H20.6162V25.7209H21.932V23.4775Z" fill="#555555"/>
<path d="M22.7993 23.2437L23.9211 25.1864L25.0605 24.5284L23.9386 22.5857L22.7993 23.2437Z" fill="#555555"/>
<path d="M24.5762 21.952L26.5188 23.0736L27.1766 21.9343L25.234 20.8126L24.5762 21.952Z" fill="#555555"/>
<path d="M27.7085 18.6283H25.4653V19.9441H27.7085V18.6283Z" fill="#555555"/>
<path d="M25.2334 17.7609L27.176 16.6393L26.5182 15.4999L24.5756 16.6215L25.2334 17.7609Z" fill="#555555"/>
<path d="M25.061 14.0437L23.9216 13.3857L22.7998 15.3284L23.9391 15.9864L25.061 14.0437Z" fill="#555555"/>
<path d="M0.0733564 22.989C0.0733564 24.0767 0.959336 24.9627 2.04707 24.9627C2.34094 24.9627 2.61287 24.8969 2.85849 24.7829C3.40675 25.2653 4.01202 25.7259 4.68747 26.1513C3.91553 29.6031 4.40676 32.5067 6.23136 34.3269C7.50331 35.5988 9.30158 36.2304 11.4507 36.2304C14.2622 36.2304 17.6701 35.1471 21.2755 33.0374C25.8764 35.7313 32.6692 37.9729 36.3152 34.3269C38.131 32.5111 38.6266 29.6251 37.8679 26.1864C40.8065 24.3179 42.5478 21.9276 42.5478 19.2872C42.5478 16.6468 40.8065 14.2564 37.8679 12.3879C38.6266 8.94488 38.131 6.05886 36.3152 4.24309C34.5739 2.50183 31.8853 1.94476 28.5168 2.62025C28.1703 2.05884 27.5519 1.68164 26.8457 1.68164C25.758 1.68164 24.872 2.56762 24.872 3.65536C24.872 3.68167 24.8808 3.70799 24.8808 3.73869C23.6922 4.22554 22.4816 4.82643 21.2755 5.53697C16.7279 2.87197 9.89931 0.575131 6.23136 4.24309C4.41554 6.05891 3.91991 8.94931 4.6787 12.3879C1.20061 14.6027 -1.09802 17.9649 0.538277 21.7346C0.253184 22.0767 0.0733564 22.5109 0.0733564 22.989ZM7.1612 33.397C5.75328 31.9891 5.34538 29.6645 5.88486 26.8575C8.82789 28.4321 12.6437 29.5154 16.8543 29.9672C17.8807 30.7917 18.9289 31.5593 19.9991 32.2479C14.5034 35.2962 9.53404 35.7655 7.1612 33.397ZM32.6572 15.7696C33.7391 14.1245 32.0028 12.1037 30.2361 12.8748C29.8326 12.4405 29.4203 12.0019 28.9905 11.5721C28.508 11.0897 28.0168 10.6247 27.5212 10.173C30.9774 10.7256 34.0125 11.7125 36.3459 13.0064C35.9073 14.5809 35.2055 16.2652 34.2362 18.0108C33.7494 17.2564 33.2187 16.5108 32.6572 15.7696ZM36.3503 25.568C34.0125 26.8618 30.9774 27.8531 27.5212 28.4013C30.2373 25.9256 32.4739 23.2867 34.2362 20.5635C35.2055 22.3091 35.9073 23.9934 36.3503 25.568ZM28.0607 12.502C28.4773 12.9186 28.8809 13.3397 29.2668 13.7651C28.4164 15.2543 29.9633 17.1528 31.6134 16.5634C32.2976 17.4626 32.9204 18.3749 33.4862 19.2872C31.4428 22.5809 28.6241 25.8408 25.1659 28.6996C22.5631 28.9445 19.9827 28.9473 17.3807 28.6953C14.2095 26.0878 11.2553 22.8263 9.06474 19.2872C11.2419 15.7722 14.1736 12.5178 17.3851 9.87476C19.9929 9.62941 22.5541 9.62906 25.1659 9.87476C26.1527 10.6905 27.1221 11.5633 28.0607 12.502ZM8.31034 18.0064C7.34541 16.2651 6.63926 14.5809 6.20065 13.0107C8.53403 11.7168 11.5736 10.7256 15.0254 10.1729C12.4994 12.4755 10.1699 15.1352 8.31034 18.0064ZM15.021 28.3926C11.6174 27.8487 8.57789 26.8662 6.20943 25.5373C6.64803 23.9714 7.3498 22.296 8.31034 20.5635C10.0769 23.2853 12.3211 25.9336 15.021 28.3926ZM19.2579 30.147C20.6115 30.2093 21.7367 30.2231 23.2843 30.1513C22.622 30.6294 21.9509 31.0768 21.2755 31.4978C20.5956 31.0768 19.9246 30.6251 19.2579 30.147ZM35.3854 33.397C32.3688 36.4135 26.3486 34.3575 22.5518 32.2523C23.6176 31.5593 24.6615 30.7961 25.6834 29.9716C29.9861 29.5242 33.7713 28.4277 36.6661 26.8882C37.1968 29.6821 36.7889 31.9935 35.3854 33.397ZM41.2319 19.2872C41.2319 21.3574 39.8547 23.2785 37.5257 24.8487C36.995 23.0942 36.1529 21.217 35.0213 19.2872C36.1529 17.3573 36.9907 15.4801 37.5214 13.7257C39.8547 15.2959 41.2319 17.2169 41.2319 19.2872ZM25.372 4.95792C25.7361 5.36587 26.258 5.62899 26.8457 5.62899C27.8501 5.62899 28.6703 4.87459 28.7931 3.90528C30.9291 3.47983 33.6397 3.4272 35.3854 5.17284C36.7889 6.57637 37.1968 8.8922 36.6661 11.6861C33.7713 10.1466 29.9861 9.0501 25.6878 8.60272C24.6615 7.77376 23.6176 7.01063 22.5518 6.32198C23.4992 5.7957 24.4422 5.33955 25.372 4.95792ZM23.2843 8.42294C21.9064 8.35864 20.6477 8.35873 19.2623 8.42294C19.929 7.94048 20.6 7.4931 21.2755 7.07643C21.9509 7.4931 22.622 7.94482 23.2843 8.42294ZM7.1612 5.17288C10.1794 2.15472 16.1974 4.21313 19.9991 6.32641C18.9421 7.01063 17.8938 7.77381 16.8675 8.60272C12.5648 9.0501 8.77526 10.1466 5.88486 11.6905C5.34976 8.89225 5.75766 6.57637 7.1612 5.17288ZM5.02519 13.7257C5.55591 15.4844 6.39803 17.3573 7.52962 19.2872C6.40241 21.2039 5.56468 23.0679 5.03397 24.8136C4.59098 24.5109 4.18308 24.1951 3.80588 23.8662C3.94184 23.5986 4.02079 23.3048 4.02079 22.989C4.02079 21.9012 3.1392 21.0153 2.04707 21.0153C1.91988 21.0153 1.79268 21.0284 1.66987 21.0547C0.49446 18.1054 2.4034 15.4932 5.02519 13.7257Z" fill="#555555"/>
<path d="M21.2754 16.1469C19.5429 16.1469 18.135 17.5548 18.135 19.2873C18.135 21.0197 19.5429 22.4277 21.2754 22.4277C23.0079 22.4277 24.4158 21.0197 24.4158 19.2873C24.4158 17.5548 23.0079 16.1469 21.2754 16.1469Z" fill="#555555"/>
<path d="M39.1177 17.4047C38.9615 17.1493 38.772 16.8924 38.5542 16.6415L37.8916 17.2163C38.0777 17.4307 38.2383 17.648 38.3694 17.8622L39.1177 17.4047Z" fill="#555555"/>
<path d="M38.8195 19.2872H39.6967C39.6967 18.9591 39.6415 18.6235 39.5327 18.2894L38.6987 18.5614C38.7788 18.8072 38.8195 19.0516 38.8195 19.2872Z" fill="#555555"/>
<path d="M8.79467 31.6149L8.14233 32.2012C8.17615 32.2389 8.21106 32.2758 8.24685 32.3113C8.44729 32.512 8.68138 32.6869 8.94204 32.8313L9.36735 32.0642C9.17805 31.9592 9.00972 31.8337 8.86708 31.6911C8.84243 31.6663 8.81822 31.641 8.79467 31.6149Z" fill="#555555"/>
<path d="M9.85791 33.1913C10.1468 33.2671 10.4623 33.32 10.7957 33.3487L10.8711 32.4749C10.5874 32.4503 10.3214 32.406 10.0807 32.3428L9.85791 33.1913Z" fill="#555555"/>
<path d="M11.6951 32.494L11.7242 33.3708C12.0195 33.3609 12.3273 33.3361 12.6387 33.2969L12.529 32.4265C12.2442 32.4623 11.9636 32.485 11.6951 32.494Z" fill="#555555"/>
<path d="M8.1605 30.251L7.30127 30.4274C7.37 30.7626 7.46917 31.0746 7.59575 31.3543L8.39502 30.9928C8.29519 30.7723 8.2162 30.5226 8.1605 30.251Z" fill="#555555"/>
<path d="M8.4138 7.53724L7.6201 7.16333C7.48882 7.44215 7.38558 7.75334 7.31299 8.08852L8.1705 8.27401C8.22897 8.00369 8.31077 7.75588 8.4138 7.53724Z" fill="#555555"/>
<path d="M14.467 5.64488C14.1686 5.56308 13.8753 5.49238 13.5876 5.43286L13.4094 6.29165C13.6795 6.34775 13.9549 6.41415 14.2352 6.49082L14.467 5.64488Z" fill="#555555"/>
<path d="M8.86698 6.87886C9.01905 6.7268 9.20023 6.59447 9.40537 6.48521L8.9933 5.71082C8.71145 5.86073 8.46027 6.04512 8.24846 6.2567L8.18359 6.3235L8.82181 6.92531L8.86698 6.87886Z" fill="#555555"/>
<path d="M10.9178 6.09166L10.8497 5.21704C10.516 5.24318 10.2003 5.29287 9.91187 5.36503L10.1248 6.21609C10.3659 6.1557 10.6328 6.11394 10.9178 6.09166Z" fill="#555555"/>
<path d="M12.6911 5.28014C12.3782 5.23921 12.0706 5.21268 11.7772 5.20154L11.7434 6.07787C12.0103 6.08835 12.2908 6.11256 12.5772 6.15006L12.6911 5.28014Z" fill="#555555"/>
<path d="M23.2625 36.2081H22.3853V37.0853H23.2625V36.2081Z" fill="#555555"/>
<path d="M19.7537 36.2081H18.8765V37.0853H19.7537V36.2081Z" fill="#555555"/>
<path d="M21.5081 36.2081H20.6309V37.0853H21.5081V36.2081Z" fill="#555555"/>
<path d="M10.7334 37.9589H9.8562V38.8361H10.7334V37.9589Z" fill="#555555"/>
<path d="M8.97926 37.9589H8.10205V38.8361H8.97926V37.9589Z" fill="#555555"/>
<path d="M7.22511 37.9589H6.3479V38.8361H7.22511V37.9589Z" fill="#555555"/>
<path d="M27.4862 36.3975V37.2601H26.6235V38.1373H27.4862V39H28.3634V38.1373H29.226V37.2601H28.3634V36.3975H27.4862Z" fill="#555555"/>
<path d="M21.1764 2.6025V1.73985H22.0392V0.862646H21.1764V0H20.2992V0.862646H19.4365V1.73985H20.2992V2.6025H21.1764Z" fill="#555555"/>
<path d="M40.3424 9.48251V8.61986H41.205V7.74265H40.3424V6.88H39.4652V7.74265H38.6025V8.61986H39.4652V9.48251H40.3424Z" fill="#555555"/>
<path d="M2.74155 33.5472V34.4101H1.87891V35.2873H2.74155V36.1499H3.61876V35.2873H4.48136V34.4101H3.61876V33.5472H2.74155Z" fill="#555555"/>
<path d="M4.79518 0.584229H3.91797V1.46144H4.79518V0.584229Z" fill="#555555"/>
<path d="M6.54957 0.584229H5.67236V1.46144H6.54957V0.584229Z" fill="#555555"/>
<path d="M3.04078 0.584229H2.16357V1.46144H3.04078V0.584229Z" fill="#555555"/>
<path d="M31.804 0.584229H30.9268V1.46144H31.804V0.584229Z" fill="#555555"/>
<path d="M33.5584 0.584229H32.6812V1.46144H33.5584V0.584229Z" fill="#555555"/>
<path d="M30.0498 0.584229H29.1726V1.46144H30.0498V0.584229Z" fill="#555555"/>
<path d="M40.9378 35.7936H40.0605V36.6708H40.9378V35.7936Z" fill="#555555"/>
<path d="M37.429 35.7936H36.5518V36.6708H37.429V35.7936Z" fill="#555555"/>
<path d="M39.1834 35.7936H38.3062V36.6708H39.1834V35.7936Z" fill="#555555"/>
</svg>
