<svg width="27" height="17" viewBox="0 0 27 17" fill="none" xmlns="http://www.w3.org/2000/svg">
<path d="M11.3031 7.5102C11.8333 7.24353 12.2341 6.94652 12.5087 6.62555C12.9974 6.04749 13.2385 5.28101 13.2385 4.33089C13.2385 3.40632 12.9974 2.61588 12.5151 1.95319C11.7103 0.873731 10.3482 0.321224 8.42243 0.29248H0.792725V15.8665H7.90665C8.70826 15.8665 9.45079 15.7978 10.1374 15.6573C10.8241 15.5152 11.4181 15.2549 11.9211 14.8748C12.3682 14.5443 12.7419 14.1339 13.0389 13.6501C13.5084 12.9187 13.7431 12.0899 13.7431 11.167C13.7431 10.2727 13.5371 9.51104 13.1283 8.88508C12.7147 8.25912 12.1079 7.80082 11.3031 7.5102ZM3.9401 2.99753H7.3765C8.1318 2.99753 8.75457 3.07897 9.2432 3.24025C9.80849 3.47498 10.0911 3.95244 10.0911 4.6806C10.0911 5.33371 9.87555 5.7904 9.4492 6.04749C9.01965 6.30458 8.46235 6.43393 7.7789 6.43393H3.9401V2.99753ZM9.37415 12.89C8.9941 13.0736 8.45916 13.1646 7.77411 13.1646H3.9401V9.01123H7.82681C8.50387 9.01602 9.03082 9.10544 9.40768 9.27311C10.0784 9.57651 10.4121 10.1322 10.4121 10.945C10.4121 11.9031 10.0672 12.5482 9.37415 12.89Z" fill="white"/>
<path d="M23.8847 1.01904H17.1189V2.95761H23.8847V1.01904Z" fill="white"/>
<path d="M26.2355 8.66963C26.095 7.76741 25.7852 6.97378 25.303 6.28874C24.7744 5.51267 24.1037 4.9442 23.2878 4.58491C22.475 4.22402 21.56 4.04358 20.5412 4.04518C18.831 4.04518 17.4417 4.58012 16.3671 5.64202C15.2956 6.70711 14.759 8.23848 14.759 10.2345C14.759 12.3631 15.3515 13.9009 16.5427 14.8446C17.7292 15.7899 19.0992 16.261 20.6546 16.261C22.5372 16.261 24.0015 15.7005 25.0475 14.5827C25.7166 13.8769 26.095 13.1823 26.178 12.5004H23.061C22.8806 12.8374 22.6714 13.1009 22.4319 13.2925C21.9975 13.6438 21.4322 13.8194 20.7392 13.8194C20.0797 13.8194 19.5208 13.6741 19.0545 13.3851C18.2849 12.922 17.8825 12.1108 17.8314 10.9563H26.3377C26.3505 9.96147 26.3186 9.19659 26.2355 8.66963ZM17.908 8.96824C18.0198 8.21932 18.2912 7.62529 18.7224 7.18616C19.1535 6.74863 19.7635 6.52826 20.5444 6.52667C21.2646 6.52667 21.8666 6.73266 22.3568 7.14624C22.8406 7.56302 23.1137 8.16822 23.1696 8.96824H17.908Z" fill="white"/>
</svg>
