<svg width="94" height="94" viewBox="0 0 100 94" fill="none" xmlns="http://www.w3.org/2000/svg">
<mask id="path-1-outside-1" maskUnits="userSpaceOnUse" x="0" y="0" width="94" height="94" fill="black">
  <rect fill="none" width="94" height="94"/>
<path d="M73.242 60.113L72.816 59.689C69.295 56.168 63.628 56.084 59.988 59.419L58.549 57.982L63.973 52.559L54.242 42.827L56.699 40.371L59.549 43.22L92.699 10.07L83.629 1L50.479 34.15L53.329 36.999L50.872 39.456L42.777 31.361L39.501 34.638L33.691 28.827L33.125 29.392L38.935 35.203L35.81 38.328L32.671 35.19L32.105 35.755L35.245 38.893L31.366 42.772L39.461 50.867L37.003 53.324L34.154 50.475L1 83.628L10.07 92.698L43.22 59.547L40.37 56.698L42.827 54.239L52.558 63.97L57.982 58.547L59.42 59.985C56.084 63.624 56.168 69.292 59.691 72.814L60.116 73.239L62.518 70.835L69.539 70.387L72.062 72.909L72.91 72.06L70.387 69.536L70.836 62.515L73.242 60.113ZM62.8 23.525L73.001 13.323L80.079 20.399L80.374 20.694L70.173 30.897L63.442 24.167L62.8 23.525ZM80.941 20.129L73.568 12.757L83.629 2.697L91.002 10.07L80.941 20.129ZM62.236 24.09L62.531 24.385L69.607 31.462L59.547 41.522L52.174 34.15L62.236 24.09ZM53.892 37.565L56.133 39.806L53.675 42.262L51.435 40.022L53.892 37.565ZM23.526 62.8L30.898 70.173L20.697 80.374L17.009 76.687L13.323 73L23.526 62.8ZM12.757 73.568L16.444 77.255L20.131 80.942L10.071 91.003L2.698 83.63L12.757 73.568ZM31.464 69.607L24.091 62.234L34.151 52.174L41.524 59.547L31.464 69.607ZM39.806 56.132L37.566 53.891L40.023 51.434L42.263 53.674L39.806 56.132ZM37.874 47.588L45.059 40.403L44.211 39.554L37.025 46.739L33.059 42.773L42.774 33.057L46.881 37.164L45.929 38.116L46.495 38.681L47.447 37.73L62.276 52.559L52.56 62.274L37.874 47.588ZM60.538 60.537C62.114 58.961 64.184 58.175 66.253 58.175C68.135 58.175 70.018 58.826 71.526 60.129L60.13 71.526C57.395 68.355 57.533 63.546 60.538 60.537ZM63.374 69.978L66.253 67.1L68.786 69.633L63.374 69.978ZM69.633 68.785L67.101 66.252L69.98 63.375L69.633 68.785Z"/>
</mask>
<path d="M73.242 60.113L72.816 59.689C69.295 56.168 63.628 56.084 59.988 59.419L58.549 57.982L63.973 52.559L54.242 42.827L56.699 40.371L59.549 43.22L92.699 10.07L83.629 1L50.479 34.15L53.329 36.999L50.872 39.456L42.777 31.361L39.501 34.638L33.691 28.827L33.125 29.392L38.935 35.203L35.81 38.328L32.671 35.19L32.105 35.755L35.245 38.893L31.366 42.772L39.461 50.867L37.003 53.324L34.154 50.475L1 83.628L10.07 92.698L43.22 59.547L40.37 56.698L42.827 54.239L52.558 63.97L57.982 58.547L59.42 59.985C56.084 63.624 56.168 69.292 59.691 72.814L60.116 73.239L62.518 70.835L69.539 70.387L72.062 72.909L72.91 72.06L70.387 69.536L70.836 62.515L73.242 60.113ZM62.8 23.525L73.001 13.323L80.079 20.399L80.374 20.694L70.173 30.897L63.442 24.167L62.8 23.525ZM80.941 20.129L73.568 12.757L83.629 2.697L91.002 10.07L80.941 20.129ZM62.236 24.09L62.531 24.385L69.607 31.462L59.547 41.522L52.174 34.15L62.236 24.09ZM53.892 37.565L56.133 39.806L53.675 42.262L51.435 40.022L53.892 37.565ZM23.526 62.8L30.898 70.173L20.697 80.374L17.009 76.687L13.323 73L23.526 62.8ZM12.757 73.568L16.444 77.255L20.131 80.942L10.071 91.003L2.698 83.63L12.757 73.568ZM31.464 69.607L24.091 62.234L34.151 52.174L41.524 59.547L31.464 69.607ZM39.806 56.132L37.566 53.891L40.023 51.434L42.263 53.674L39.806 56.132ZM37.874 47.588L45.059 40.403L44.211 39.554L37.025 46.739L33.059 42.773L42.774 33.057L46.881 37.164L45.929 38.116L46.495 38.681L47.447 37.73L62.276 52.559L52.56 62.274L37.874 47.588ZM60.538 60.537C62.114 58.961 64.184 58.175 66.253 58.175C68.135 58.175 70.018 58.826 71.526 60.129L60.13 71.526C57.395 68.355 57.533 63.546 60.538 60.537ZM63.374 69.978L66.253 67.1L68.786 69.633L63.374 69.978ZM69.633 68.785L67.101 66.252L69.98 63.375L69.633 68.785Z" fill="#333333"/>
  <path
    d="M73.242 60.113L72.816 59.689C69.295 56.168 63.628 56.084 59.988 59.419L58.549 57.982L63.973 52.559L54.242 42.827L56.699 40.371L59.549 43.22L92.699 10.07L83.629 1L50.479 34.15L53.329 36.999L50.872 39.456L42.777 31.361L39.501 34.638L33.691 28.827L33.125 29.392L38.935 35.203L35.81 38.328L32.671 35.19L32.105 35.755L35.245 38.893L31.366 42.772L39.461 50.867L37.003 53.324L34.154 50.475L1 83.628L10.07 92.698L43.22 59.547L40.37 56.698L42.827 54.239L52.558 63.97L57.982 58.547L59.42 59.985C56.084 63.624 56.168 69.292 59.691 72.814L60.116 73.239L62.518 70.835L69.539 70.387L72.062 72.909L72.91 72.06L70.387 69.536L70.836 62.515L73.242 60.113ZM62.8 23.525L73.001 13.323L80.079 20.399L80.374 20.694L70.173 30.897L63.442 24.167L62.8 23.525ZM80.941 20.129L73.568 12.757L83.629 2.697L91.002 10.07L80.941 20.129ZM62.236 24.09L62.531 24.385L69.607 31.462L59.547 41.522L52.174 34.15L62.236 24.09ZM53.892 37.565L56.133 39.806L53.675 42.262L51.435 40.022L53.892 37.565ZM23.526 62.8L30.898 70.173L20.697 80.374L17.009 76.687L13.323 73L23.526 62.8ZM12.757 73.568L16.444 77.255L20.131 80.942L10.071 91.003L2.698 83.63L12.757 73.568ZM31.464 69.607L24.091 62.234L34.151 52.174L41.524 59.547L31.464 69.607ZM39.806 56.132L37.566 53.891L40.023 51.434L42.263 53.674L39.806 56.132ZM37.874 47.588L45.059 40.403L44.211 39.554L37.025 46.739L33.059 42.773L42.774 33.057L46.881 37.164L45.929 38.116L46.495 38.681L47.447 37.73L62.276 52.559L52.56 62.274L37.874 47.588ZM60.538 60.537C62.114 58.961 64.184 58.175 66.253 58.175C68.135 58.175 70.018 58.826 71.526 60.129L60.13 71.526C57.395 68.355 57.533 63.546 60.538 60.537ZM63.374 69.978L66.253 67.1L68.786 69.633L63.374 69.978ZM69.633 68.785L67.101 66.252L69.98 63.375L69.633 68.785Z"
    mask="url(#path-1-outside-1)"/>
</svg>
