<svg width="23" height="19" viewBox="0 0 23 19" fill="none" xmlns="http://www.w3.org/2000/svg">
<path d="M22.003 2.59814C21.2023 2.94937 20.3491 3.18218 19.4596 3.29522C20.3747 2.74886 21.0731 1.8903 21.4014 0.855452C20.5483 1.36413 19.6063 1.72343 18.6024 1.92394C17.7923 1.06134 16.6376 0.5271 15.3781 0.5271C12.9343 0.5271 10.9668 2.51067 10.9668 4.94236C10.9668 5.29224 10.9964 5.62867 11.0691 5.94895C7.39937 5.76997 4.15218 4.01113 1.9708 1.33183C1.58996 1.99257 1.36657 2.74886 1.36657 3.56301C1.36657 5.09173 2.15381 6.44686 3.32727 7.2314C2.61808 7.21795 1.92235 7.01205 1.33293 6.68774C1.33293 6.7012 1.33293 6.71869 1.33293 6.73618C1.33293 8.88124 2.863 10.663 4.86944 11.0734C4.51014 11.1716 4.11854 11.2187 3.71214 11.2187C3.42954 11.2187 3.14425 11.2026 2.87645 11.1434C3.44838 12.8914 5.0713 14.1766 7.00104 14.2183C5.49923 15.3931 3.59237 16.1009 1.52806 16.1009C1.16606 16.1009 0.818872 16.0848 0.47168 16.0404C2.42699 17.3013 4.74429 18.0213 7.24327 18.0213C15.3659 18.0213 19.8068 11.2927 19.8068 5.46046C19.8068 5.26533 19.8 5.07693 19.7906 4.88988C20.6667 4.26816 21.4028 3.49169 22.003 2.59814Z"/>
</svg>
