<svg width="31" height="16" viewBox="0 0 31 16" fill="none" xmlns="http://www.w3.org/2000/svg">
<path d="M29.745 15.3338C29.7564 15.3315 29.7675 15.3285 29.7787 15.3256C29.7882 15.3231 29.7979 15.3211 29.8072 15.3182C29.8182 15.3149 29.8288 15.3108 29.8395 15.3069C29.849 15.3035 29.8585 15.3005 29.8679 15.2965C29.878 15.2923 29.8877 15.2874 29.8975 15.2828C29.907 15.2782 29.9167 15.274 29.9261 15.2689C29.9355 15.2639 29.9443 15.2583 29.9534 15.2528C29.9628 15.2472 29.9722 15.242 29.9813 15.2359C29.9911 15.2294 30.0001 15.2222 30.0094 15.2152C30.0173 15.2093 30.0254 15.2038 30.0331 15.1975C30.0473 15.1859 30.0607 15.1734 30.0739 15.1607C30.0762 15.1584 30.0788 15.1565 30.0811 15.1541C30.0836 15.1516 30.0857 15.1489 30.088 15.1464C30.1007 15.1334 30.1129 15.1201 30.1245 15.1061C30.1312 15.0979 30.1371 15.0893 30.1434 15.0808C30.1498 15.0721 30.1567 15.0636 30.1627 15.0545C30.1692 15.0448 30.1749 15.0347 30.1808 15.0247C30.1858 15.0163 30.1912 15.0081 30.1958 14.9994C30.2012 14.9893 30.2058 14.9789 30.2106 14.9687C30.2149 14.9596 30.2194 14.9506 30.2234 14.9412C30.2276 14.9311 30.2309 14.9209 30.2346 14.9107C30.2382 14.9007 30.242 14.8908 30.2451 14.8806C30.2482 14.8703 30.2505 14.8598 30.2531 14.8493C30.2557 14.839 30.2587 14.8288 30.2607 14.8184C30.2631 14.806 30.2646 14.7936 30.2664 14.7812C30.2676 14.7724 30.2692 14.7638 30.2701 14.7549C30.2723 14.7331 30.2734 14.7113 30.2734 14.6894V0.656529C30.2734 0.293862 29.9796 0 29.6169 0H8.93626C8.93048 0 8.92488 0.000699817 8.9191 0.000874891C8.90658 0.00122504 8.89415 0.00175054 8.88172 0.00280099C8.87183 0.00358882 8.86203 0.00472703 8.85222 0.00604009C8.84102 0.00744068 8.8299 0.00910377 8.81878 0.0111171C8.80836 0.0129554 8.79804 0.0151437 8.78779 0.0175072C8.77738 0.0199582 8.76696 0.0225846 8.75663 0.0255609C8.74639 0.0284496 8.73632 0.0316004 8.72634 0.0349269C8.7161 0.0384284 8.70586 0.0421054 8.69579 0.0461322C8.68625 0.0498963 8.67688 0.0537474 8.6676 0.0579492C8.65728 0.0625887 8.64703 0.0675788 8.63688 0.0727435C8.62821 0.0772079 8.61972 0.0817596 8.61132 0.0865742C8.60116 0.0923516 8.59119 0.0984792 8.58129 0.104782C8.57315 0.110034 8.56519 0.115461 8.55731 0.120976C8.54803 0.127541 8.53884 0.134369 8.52982 0.141547C8.52159 0.148113 8.51354 0.154853 8.50557 0.161769C8.4977 0.168684 8.4899 0.175599 8.48229 0.182952C8.47362 0.191268 8.46531 0.199935 8.45708 0.208688C8.45296 0.213065 8.44859 0.216917 8.44465 0.221382C8.44228 0.224008 8.44045 0.226897 8.43817 0.229523C8.42994 0.239064 8.42224 0.249043 8.41454 0.25911C8.40893 0.266463 8.40316 0.273816 8.3979 0.281344C8.39108 0.291149 8.38477 0.301215 8.37847 0.31137C8.3733 0.319686 8.36797 0.327914 8.36324 0.336405C8.35772 0.346209 8.35291 0.356276 8.34792 0.366343C8.34337 0.375534 8.33864 0.384726 8.33453 0.394092C8.33024 0.403984 8.32647 0.414226 8.32271 0.424293C8.31894 0.434185 8.31509 0.443989 8.31185 0.453968C8.30862 0.464034 8.30599 0.474276 8.30319 0.484518C8.30039 0.495023 8.29741 0.50544 8.29505 0.516032C8.29286 0.525923 8.29137 0.53599 8.28962 0.54597C8.28769 0.557349 8.28577 0.568729 8.28437 0.580109C8.28323 0.589563 8.2827 0.599192 8.282 0.608821C8.28113 0.621076 8.28034 0.633332 8.28017 0.645674C8.28008 0.649263 8.27964 0.652765 8.27964 0.656354V4.70512C8.27964 5.06779 8.5735 5.36165 8.93617 5.36165C9.29884 5.36165 9.5927 5.06779 9.5927 4.70512V2.11446L15.4298 7.2824C15.3993 7.30384 15.37 7.32757 15.3427 7.35479L9.59261 13.1048V8.79031C9.59261 8.42764 9.29875 8.13378 8.93608 8.13378C8.57342 8.13378 8.27955 8.42764 8.27955 8.79031V9.5925H4.88749C4.52482 9.5925 4.23096 9.88636 4.23096 10.249C4.23096 10.6117 4.52482 10.9056 4.88749 10.9056H8.27955V14.6899C8.27955 15.0525 8.57342 15.3464 8.93608 15.3464H29.6167C29.6384 15.3464 29.66 15.3453 29.6815 15.3432C29.6916 15.3422 29.7013 15.3403 29.7112 15.3389C29.7226 15.3373 29.7338 15.336 29.745 15.3338ZM28.9603 13.1049L23.2102 7.35488C23.2065 7.3512 23.2025 7.34814 23.1988 7.34463L27.5216 3.67709C27.7981 3.44249 27.832 3.02826 27.5974 2.75173C27.363 2.47538 26.9488 2.44124 26.6721 2.67593L19.2856 8.94271L10.6681 1.31315H28.9603V13.1049ZM16.2713 8.28347C16.3181 8.23664 16.3561 8.18447 16.3858 8.12897L18.8413 10.303C18.9654 10.4128 19.1209 10.468 19.2765 10.468C19.4276 10.468 19.5786 10.4161 19.7013 10.3121L22.2037 8.18893C22.2265 8.22219 22.2522 8.25397 22.2817 8.28347L28.0317 14.0335H10.5212L16.2713 8.28347Z" fill="white"/>
<path d="M0.656529 7.47712H11.7446C12.1073 7.47712 12.4011 7.18326 12.4011 6.82059C12.4011 6.45792 12.1073 6.16406 11.7446 6.16406H0.656529C0.293862 6.16406 0 6.45792 0 6.82059C0 7.18326 0.293862 7.47712 0.656529 7.47712Z" fill="white"/>
<path d="M1.80545 3.8592H6.78413C7.1468 3.8592 7.44066 3.56534 7.44066 3.20267C7.44066 2.84 7.1468 2.54614 6.78413 2.54614H1.80545C1.44279 2.54614 1.14893 2.84 1.14893 3.20267C1.14893 3.56534 1.44279 3.8592 1.80545 3.8592Z" fill="white"/>
<path d="M5.47107 12.3645H0.656529C0.293862 12.3645 0 12.6584 0 13.021C0 13.3837 0.293862 13.6776 0.656529 13.6776H5.47107C5.83374 13.6776 6.1276 13.3837 6.1276 13.021C6.1276 12.6584 5.83374 12.3645 5.47107 12.3645Z" fill="white"/>
</svg>
