<svg width="63" height="47" viewBox="0 0 63 47" fill="none" xmlns="http://www.w3.org/2000/svg">
<mask id="path-1-outside-1" maskUnits="userSpaceOnUse" x="0.222168" y="-0.187988" width="62" height="47" fill="black">
<rect fill="white" x="0.222168" y="-0.187988" width="62" height="47"/>
<path d="M58.9437 44.9952L52.644 27.0109C52.6051 26.8995 52.5232 26.8089 52.4165 26.7592L46.635 24.0745L46.6343 24.0765C46.5786 24.0503 46.5175 24.0335 46.4517 24.0335H42.0904L45.5738 20.5501C45.6054 20.5186 45.6268 20.4796 45.647 20.4407C45.6483 20.4387 45.6497 20.4367 45.651 20.4347C45.6812 20.3743 45.7013 20.3098 45.7013 20.2414V20.2313V11.9744C45.7013 11.9093 45.6832 11.8476 45.6564 11.7892C45.6476 11.7704 45.6342 11.7563 45.6228 11.7388C45.6067 11.714 45.5953 11.6865 45.5738 11.6657L39.3654 5.45659C39.2835 5.3747 39.1728 5.32906 39.0573 5.32906H33.8946V1.24828C33.8946 1.00733 33.6993 0.812012 33.4583 0.812012H29.4494C29.2084 0.812012 29.0131 1.00733 29.0131 1.24828V5.32906H23.8504C23.7349 5.32906 23.6235 5.3747 23.5423 5.45659L17.3332 11.6657C17.3124 11.6865 17.3003 11.714 17.2842 11.7388C17.2728 11.7556 17.2594 11.7704 17.2506 11.7892C17.2231 11.8469 17.2057 11.9093 17.2057 11.9744V20.232V20.242C17.2057 20.3105 17.2258 20.3749 17.256 20.4353C17.2574 20.4373 17.2594 20.4394 17.26 20.4414C17.2802 20.4803 17.3017 20.5192 17.3332 20.5508L20.8166 24.0342H16.4036C16.3378 24.0342 16.2768 24.051 16.2211 24.0772L16.2204 24.0752L10.4368 26.7599C10.3301 26.8095 10.2475 26.9002 10.2093 27.0116L3.90756 44.9952H1.22217V45.8677H7.21112V44.9952H4.83178L6.85875 39.2083H11.5483C11.5946 39.2083 11.6409 39.2009 11.6852 39.1861L16.4721 37.6068H21.0247V39.856C21.0247 40.0969 21.22 40.2922 21.461 40.2922H27.4076L25.8438 43.824C25.784 43.9589 25.7968 44.1153 25.8767 44.2388C25.9572 44.3629 26.0948 44.4368 26.2425 44.4368H36.6404C36.7881 44.4368 36.9256 44.3623 37.0062 44.2388C37.0867 44.1153 37.0995 43.9589 37.0391 43.824L35.4752 40.2922H41.493C41.734 40.2922 41.9293 40.0969 41.9293 39.856V37.6068H46.3799L51.1654 39.1861C51.2091 39.2009 51.2554 39.2083 51.3023 39.2083H55.9919L58.0195 44.9952H55.6402V45.8677H61.6285V44.9952H58.9437ZM51.6158 27.3498L46.8866 35.5423V25.1537L51.6158 27.3498ZM26.6472 36.735V24.9061H36.2048V36.7343H26.6472V36.735ZM27.1116 15.9055L18.0755 19.5836V12.5993L27.1116 15.9055ZM28.1667 14.4531L24.5182 6.20227H28.9661L28.1667 14.4531ZM27.5083 15.1216L18.4312 11.7999L23.7067 6.52376L27.5083 15.1216ZM27.0257 16.8828L21.8207 23.8067L18.4057 20.3917L27.0257 16.8828ZM29.8433 6.2016H33.0603L34.7899 24.0335H28.1144L29.8433 6.2016ZM35.7907 15.9055L44.8275 12.5993V19.5836L35.7907 15.9055ZM44.4979 20.391L41.0829 23.806L35.8779 16.8821L44.4979 20.391ZM35.3947 15.1216L39.1969 6.52376L44.4724 11.7999L35.3947 15.1216ZM34.7369 14.4524L33.9369 6.20227H38.3855L34.7369 14.4524ZM35.6658 24.0342L35 17.1687L40.1614 24.0342H35.6658ZM33.02 1.68522V5.32973H29.8836V1.68522H33.02ZM27.9036 17.1667L27.2378 24.0335H22.7416L27.9036 17.1667ZM15.9653 35.543L11.2348 27.3498L15.9653 25.1537V35.543ZM11.4785 38.3357H7.16481L10.716 28.1962L15.7559 36.9242L11.4785 38.3357ZM16.8379 24.9061H25.7746V36.7343H16.8379V24.9061ZM35.9706 43.5642H26.913L28.3614 40.2922H34.5215L35.9706 43.5642ZM41.0574 39.4204H21.8972V37.6075H41.0574V39.4204ZM46.0141 36.735H37.0767V24.9061H46.0134V36.735H46.0141ZM51.3728 38.3357L47.0961 36.9242L52.1339 28.1962L55.6858 38.3351H51.3728V38.3357Z"/>
</mask>
<path d="M58.9437 44.9952L52.644 27.0109C52.6051 26.8995 52.5232 26.8089 52.4165 26.7592L46.635 24.0745L46.6343 24.0765C46.5786 24.0503 46.5175 24.0335 46.4517 24.0335H42.0904L45.5738 20.5501C45.6054 20.5186 45.6268 20.4796 45.647 20.4407C45.6483 20.4387 45.6497 20.4367 45.651 20.4347C45.6812 20.3743 45.7013 20.3098 45.7013 20.2414V20.2313V11.9744C45.7013 11.9093 45.6832 11.8476 45.6564 11.7892C45.6476 11.7704 45.6342 11.7563 45.6228 11.7388C45.6067 11.714 45.5953 11.6865 45.5738 11.6657L39.3654 5.45659C39.2835 5.3747 39.1728 5.32906 39.0573 5.32906H33.8946V1.24828C33.8946 1.00733 33.6993 0.812012 33.4583 0.812012H29.4494C29.2084 0.812012 29.0131 1.00733 29.0131 1.24828V5.32906H23.8504C23.7349 5.32906 23.6235 5.3747 23.5423 5.45659L17.3332 11.6657C17.3124 11.6865 17.3003 11.714 17.2842 11.7388C17.2728 11.7556 17.2594 11.7704 17.2506 11.7892C17.2231 11.8469 17.2057 11.9093 17.2057 11.9744V20.232V20.242C17.2057 20.3105 17.2258 20.3749 17.256 20.4353C17.2574 20.4373 17.2594 20.4394 17.26 20.4414C17.2802 20.4803 17.3017 20.5192 17.3332 20.5508L20.8166 24.0342H16.4036C16.3378 24.0342 16.2768 24.051 16.2211 24.0772L16.2204 24.0752L10.4368 26.7599C10.3301 26.8095 10.2475 26.9002 10.2093 27.0116L3.90756 44.9952H1.22217V45.8677H7.21112V44.9952H4.83178L6.85875 39.2083H11.5483C11.5946 39.2083 11.6409 39.2009 11.6852 39.1861L16.4721 37.6068H21.0247V39.856C21.0247 40.0969 21.22 40.2922 21.461 40.2922H27.4076L25.8438 43.824C25.784 43.9589 25.7968 44.1153 25.8767 44.2388C25.9572 44.3629 26.0948 44.4368 26.2425 44.4368H36.6404C36.7881 44.4368 36.9256 44.3623 37.0062 44.2388C37.0867 44.1153 37.0995 43.9589 37.0391 43.824L35.4752 40.2922H41.493C41.734 40.2922 41.9293 40.0969 41.9293 39.856V37.6068H46.3799L51.1654 39.1861C51.2091 39.2009 51.2554 39.2083 51.3023 39.2083H55.9919L58.0195 44.9952H55.6402V45.8677H61.6285V44.9952H58.9437ZM51.6158 27.3498L46.8866 35.5423V25.1537L51.6158 27.3498ZM26.6472 36.735V24.9061H36.2048V36.7343H26.6472V36.735ZM27.1116 15.9055L18.0755 19.5836V12.5993L27.1116 15.9055ZM28.1667 14.4531L24.5182 6.20227H28.9661L28.1667 14.4531ZM27.5083 15.1216L18.4312 11.7999L23.7067 6.52376L27.5083 15.1216ZM27.0257 16.8828L21.8207 23.8067L18.4057 20.3917L27.0257 16.8828ZM29.8433 6.2016H33.0603L34.7899 24.0335H28.1144L29.8433 6.2016ZM35.7907 15.9055L44.8275 12.5993V19.5836L35.7907 15.9055ZM44.4979 20.391L41.0829 23.806L35.8779 16.8821L44.4979 20.391ZM35.3947 15.1216L39.1969 6.52376L44.4724 11.7999L35.3947 15.1216ZM34.7369 14.4524L33.9369 6.20227H38.3855L34.7369 14.4524ZM35.6658 24.0342L35 17.1687L40.1614 24.0342H35.6658ZM33.02 1.68522V5.32973H29.8836V1.68522H33.02ZM27.9036 17.1667L27.2378 24.0335H22.7416L27.9036 17.1667ZM15.9653 35.543L11.2348 27.3498L15.9653 25.1537V35.543ZM11.4785 38.3357H7.16481L10.716 28.1962L15.7559 36.9242L11.4785 38.3357ZM16.8379 24.9061H25.7746V36.7343H16.8379V24.9061ZM35.9706 43.5642H26.913L28.3614 40.2922H34.5215L35.9706 43.5642ZM41.0574 39.4204H21.8972V37.6075H41.0574V39.4204ZM46.0141 36.735H37.0767V24.9061H46.0134V36.735H46.0141ZM51.3728 38.3357L47.0961 36.9242L52.1339 28.1962L55.6858 38.3351H51.3728V38.3357Z" fill="#777777"/>
<path d="M58.9437 44.9952L52.644 27.0109C52.6051 26.8995 52.5232 26.8089 52.4165 26.7592L46.635 24.0745L46.6343 24.0765C46.5786 24.0503 46.5175 24.0335 46.4517 24.0335H42.0904L45.5738 20.5501C45.6054 20.5186 45.6268 20.4796 45.647 20.4407C45.6483 20.4387 45.6497 20.4367 45.651 20.4347C45.6812 20.3743 45.7013 20.3098 45.7013 20.2414V20.2313V11.9744C45.7013 11.9093 45.6832 11.8476 45.6564 11.7892C45.6476 11.7704 45.6342 11.7563 45.6228 11.7388C45.6067 11.714 45.5953 11.6865 45.5738 11.6657L39.3654 5.45659C39.2835 5.3747 39.1728 5.32906 39.0573 5.32906H33.8946V1.24828C33.8946 1.00733 33.6993 0.812012 33.4583 0.812012H29.4494C29.2084 0.812012 29.0131 1.00733 29.0131 1.24828V5.32906H23.8504C23.7349 5.32906 23.6235 5.3747 23.5423 5.45659L17.3332 11.6657C17.3124 11.6865 17.3003 11.714 17.2842 11.7388C17.2728 11.7556 17.2594 11.7704 17.2506 11.7892C17.2231 11.8469 17.2057 11.9093 17.2057 11.9744V20.232V20.242C17.2057 20.3105 17.2258 20.3749 17.256 20.4353C17.2574 20.4373 17.2594 20.4394 17.26 20.4414C17.2802 20.4803 17.3017 20.5192 17.3332 20.5508L20.8166 24.0342H16.4036C16.3378 24.0342 16.2768 24.051 16.2211 24.0772L16.2204 24.0752L10.4368 26.7599C10.3301 26.8095 10.2475 26.9002 10.2093 27.0116L3.90756 44.9952H1.22217V45.8677H7.21112V44.9952H4.83178L6.85875 39.2083H11.5483C11.5946 39.2083 11.6409 39.2009 11.6852 39.1861L16.4721 37.6068H21.0247V39.856C21.0247 40.0969 21.22 40.2922 21.461 40.2922H27.4076L25.8438 43.824C25.784 43.9589 25.7968 44.1153 25.8767 44.2388C25.9572 44.3629 26.0948 44.4368 26.2425 44.4368H36.6404C36.7881 44.4368 36.9256 44.3623 37.0062 44.2388C37.0867 44.1153 37.0995 43.9589 37.0391 43.824L35.4752 40.2922H41.493C41.734 40.2922 41.9293 40.0969 41.9293 39.856V37.6068H46.3799L51.1654 39.1861C51.2091 39.2009 51.2554 39.2083 51.3023 39.2083H55.9919L58.0195 44.9952H55.6402V45.8677H61.6285V44.9952H58.9437ZM51.6158 27.3498L46.8866 35.5423V25.1537L51.6158 27.3498ZM26.6472 36.735V24.9061H36.2048V36.7343H26.6472V36.735ZM27.1116 15.9055L18.0755 19.5836V12.5993L27.1116 15.9055ZM28.1667 14.4531L24.5182 6.20227H28.9661L28.1667 14.4531ZM27.5083 15.1216L18.4312 11.7999L23.7067 6.52376L27.5083 15.1216ZM27.0257 16.8828L21.8207 23.8067L18.4057 20.3917L27.0257 16.8828ZM29.8433 6.2016H33.0603L34.7899 24.0335H28.1144L29.8433 6.2016ZM35.7907 15.9055L44.8275 12.5993V19.5836L35.7907 15.9055ZM44.4979 20.391L41.0829 23.806L35.8779 16.8821L44.4979 20.391ZM35.3947 15.1216L39.1969 6.52376L44.4724 11.7999L35.3947 15.1216ZM34.7369 14.4524L33.9369 6.20227H38.3855L34.7369 14.4524ZM35.6658 24.0342L35 17.1687L40.1614 24.0342H35.6658ZM33.02 1.68522V5.32973H29.8836V1.68522H33.02ZM27.9036 17.1667L27.2378 24.0335H22.7416L27.9036 17.1667ZM15.9653 35.543L11.2348 27.3498L15.9653 25.1537V35.543ZM11.4785 38.3357H7.16481L10.716 28.1962L15.7559 36.9242L11.4785 38.3357ZM16.8379 24.9061H25.7746V36.7343H16.8379V24.9061ZM35.9706 43.5642H26.913L28.3614 40.2922H34.5215L35.9706 43.5642ZM41.0574 39.4204H21.8972V37.6075H41.0574V39.4204ZM46.0141 36.735H37.0767V24.9061H46.0134V36.735H46.0141ZM51.3728 38.3357L47.0961 36.9242L52.1339 28.1962L55.6858 38.3351H51.3728V38.3357Z" stroke="#777777" stroke-width="1.0359" mask="url(#path-1-outside-1)"/>
</svg>
