<svg width="45" height="45" viewBox="0 0 45 45" fill="none" xmlns="http://www.w3.org/2000/svg">
<path d="M8.68269 14.3724L8.89859 13.9986L8.52484 13.7827L2.44198 10.269L2.06823 10.0531L1.85233 10.4268L1.50721 11.0242L1.2913 11.398L1.66505 11.6139L7.74791 15.1277L8.12166 15.3436L8.33756 14.9698L8.68269 14.3724Z" fill="#777777" stroke="#777777" stroke-width="0.863248"/>
<path d="M43.9673 34.7421L44.183 34.3682L43.8091 34.1526L37.7264 30.6436L37.3526 30.4279L37.1369 30.8018L36.7921 31.3994L36.5764 31.7733L36.9503 31.989L43.0329 35.4979L43.4068 35.7136L43.6225 35.3398L43.9673 34.7421Z" fill="#777777" stroke="#777777" stroke-width="0.863248"/>
<path d="M35.3506 2.59154L35.5665 2.21779L35.1927 2.0019L34.5953 1.65677L34.2215 1.44087L34.0057 1.81462L30.4932 7.89517L30.2773 8.26891L30.651 8.48481L31.2484 8.82993L31.6222 9.04583L31.8381 8.67209L35.3506 2.59154Z" fill="#777777" stroke="#777777" stroke-width="0.863248"/>
<path d="M14.9798 37.8694L15.1955 37.4955L14.8216 37.2799L14.2239 36.9352L13.8501 36.7196L13.6344 37.0934L10.1245 43.1788L9.90887 43.5527L10.2827 43.7683L10.8804 44.113L11.2543 44.3287L11.4699 43.9548L14.9798 37.8694Z" fill="#777777" stroke="#777777" stroke-width="0.863248"/>
</svg>
