<svg width="20" height="20" viewBox="0 0 20 20" fill="none" xmlns="http://www.w3.org/2000/svg">
<path d="M13.9443 0.508545H6.6775C3.33356 0.508545 0.621826 3.22028 0.621826 6.56422V13.831C0.621826 17.175 3.33356 19.8867 6.6775 19.8867H13.9443C17.2882 19.8867 20 17.175 20 13.831V6.56422C20 3.22028 17.2882 0.508545 13.9443 0.508545ZM18.1833 13.831C18.1833 16.1685 16.2818 18.07 13.9443 18.07H6.6775C4.34001 18.07 2.43853 16.1685 2.43853 13.831V6.56422C2.43853 4.22673 4.34001 2.32525 6.6775 2.32525H13.9443C16.2818 2.32525 18.1833 4.22673 18.1833 6.56422V13.831Z" fill="white"/>
</svg>
