<svg width="51" height="50" viewBox="0 0 51 50" fill="none" xmlns="http://www.w3.org/2000/svg">
  <path
    d="M11.7747 24.8832C11.7747 32.5847 18.0379 38.8498 25.7375 38.8498C33.4371 38.8498 39.7003 32.5853 39.7003 24.8832C39.7003 17.1842 33.437 10.9209 25.7375 10.9209C18.038 10.9209 11.7747 17.1837 11.7747 24.8832ZM13.3279 24.8832C13.3279 18.0415 18.8953 12.4741 25.7375 12.4741C32.5797 12.4741 38.1471 18.0415 38.1471 24.8832C38.1471 31.7282 32.5796 37.2965 25.7375 37.2965C18.8954 37.2965 13.3279 31.7277 13.3279 24.8832Z"
    fill="#777777" stroke="#777777" stroke-width="0.863248"/>
  <path d="M26.5147 1V0.568376H26.083H25.3931H24.9614V1V8.02646V8.45809H25.3931H26.083H26.5147V8.02646V1Z"
        fill="#777777" stroke="#777777" stroke-width="0.863248"/>
  <path
    d="M26.5144 41.7443V41.3126H26.0828H25.3928H24.9612V41.7443V48.7665V49.1981H25.3928H26.0828H26.5144V48.7665V41.7443Z"
    fill="#777777" stroke="#777777" stroke-width="0.863248"/>
  <path
    d="M50.0524 24.5388V24.1072H49.6208H42.5964H42.1648V24.5388V25.2288V25.6604H42.5964H49.6208H50.0524V25.2288V24.5388Z"
    fill="#777777" stroke="#777777" stroke-width="0.863248"/>
  <path
    d="M9.31021 24.5388V24.1072H8.87859H1.85425H1.42262V24.5388V25.2288V25.6604H1.85425H8.87859H9.31021V25.2288V24.5388Z"
    fill="#777777" stroke="#777777" stroke-width="0.863248"/>
  <path
    d="M17.8219 10.485L18.1957 10.2692L17.9798 9.89541L14.468 3.81417L14.2522 3.44039L13.8784 3.65624L13.2809 4.00129L12.9071 4.21715L13.1229 4.59093L16.6348 10.6722L16.8506 11.046L17.2244 10.8301L17.8219 10.485Z"
    fill="#777777" stroke="#777777" stroke-width="0.863248"/>
  <path
    d="M38.1941 45.7714L38.5679 45.5556L38.3521 45.1818L34.8401 39.0971L34.6244 38.7233L34.2505 38.939L33.653 39.2839L33.2791 39.4997L33.4949 39.8735L37.0069 45.9582L37.2227 46.3321L37.5965 46.1163L38.1941 45.7714Z"
    fill="#777777" stroke="#777777" stroke-width="0.863248"/>
  <path
    d="M46.8105 13.6136L47.1843 13.3977L46.9684 13.024L46.6233 12.4266L46.4074 12.0528L46.0336 12.2687L39.9507 15.7825L39.577 15.9984L39.7929 16.3721L40.138 16.9696L40.3539 17.3433L40.7277 17.1274L46.8105 13.6136Z"
    fill="#777777" stroke="#777777" stroke-width="0.863248"/>
  <path
    d="M11.5267 33.9884L11.9005 33.7727L11.6849 33.3989L11.3402 32.8012L11.1245 32.4273L10.7507 32.643L4.66803 36.1513L4.29416 36.3669L4.50979 36.7408L4.8545 37.3384L5.07014 37.7123L5.44401 37.4967L11.5267 33.9884Z"
    fill="#777777" stroke="#777777" stroke-width="0.863248"/>
  <path
    d="M11.6827 16.3724L11.8986 15.9986L11.5248 15.7827L5.44198 12.269L5.06823 12.0531L4.85233 12.4268L4.50721 13.0242L4.2913 13.398L4.66505 13.6139L10.7479 17.1277L11.1217 17.3436L11.3376 16.9698L11.6827 16.3724Z"
    fill="#777777" stroke="#777777" stroke-width="0.863248"/>
  <path
    d="M46.9673 36.7421L47.183 36.3682L46.8091 36.1526L40.7264 32.6436L40.3526 32.4279L40.1369 32.8018L39.7921 33.3994L39.5764 33.7733L39.9503 33.989L46.0329 37.4979L46.4068 37.7136L46.6225 37.3398L46.9673 36.7421Z"
    fill="#777777" stroke="#777777" stroke-width="0.863248"/>
  <path
    d="M38.3506 4.59154L38.5665 4.21779L38.1927 4.0019L37.5953 3.65677L37.2215 3.44087L37.0057 3.81462L33.4932 9.89517L33.2773 10.2689L33.651 10.4848L34.2484 10.8299L34.6222 11.0458L34.8381 10.6721L38.3506 4.59154Z"
    fill="#777777" stroke="#777777" stroke-width="0.863248"/>
  <path
    d="M17.9798 39.8694L18.1955 39.4955L17.8216 39.2799L17.2239 38.9352L16.8501 38.7196L16.6344 39.0934L13.1245 45.1788L12.9089 45.5527L13.2827 45.7683L13.8804 46.113L14.2543 46.3287L14.4699 45.9548L17.9798 39.8694Z"
    fill="#777777" stroke="#777777" stroke-width="0.863248"/>
</svg>
