<svg width="28" height="16" viewBox="0 0 28 16" fill="none" xmlns="http://www.w3.org/2000/svg">
  <path
    d="M27.1423 13.9676C27.0709 13.8481 26.6294 12.8887 24.5048 10.9168C22.2807 8.85199 22.5794 9.18727 25.2584 5.61699C26.89 3.44261 27.5423 2.11475 27.3382 1.54709C27.144 1.00599 25.9439 1.14873 25.9439 1.14873L21.9537 1.17197C21.9537 1.17197 21.6582 1.13213 21.4375 1.26326C21.2234 1.39273 21.0856 1.6915 21.0856 1.6915C21.0856 1.6915 20.4532 3.37456 19.61 4.80533C17.8323 7.82456 17.1203 7.9839 16.8298 7.79634C16.1543 7.3598 16.3236 6.04024 16.3236 5.1041C16.3236 2.17783 16.7667 0.957853 15.4588 0.642486C15.0239 0.537917 14.7052 0.468204 13.5948 0.456585C12.1707 0.441647 10.964 0.461565 10.2818 0.79519C9.827 1.01761 9.47677 1.5139 9.69089 1.54211C9.9548 1.57697 10.5523 1.70312 10.8694 2.13467C11.2793 2.69071 11.2644 3.94222 11.2644 3.94222C11.2644 3.94222 11.5001 7.38636 10.715 7.8146C10.1756 8.10839 9.43694 7.50919 7.8518 4.76882C7.04015 3.36626 6.42601 1.81432 6.42601 1.81432C6.42601 1.81432 6.30817 1.52551 6.09737 1.37115C5.84176 1.18359 5.48323 1.12384 5.48323 1.12384L1.68887 1.14707C1.68887 1.14707 1.11955 1.16367 0.910412 1.41099C0.724511 1.63174 0.895474 2.08653 0.895474 2.08653C0.895474 2.08653 3.86656 9.03623 7.22937 12.5401C10.315 15.7519 13.8172 15.5411 13.8172 15.5411H15.404C15.404 15.5411 15.8837 15.488 16.1277 15.2241C16.3534 14.9817 16.3451 14.5269 16.3451 14.5269C16.3451 14.5269 16.3136 12.3974 17.3029 12.0837C18.2772 11.7749 19.5287 14.1419 20.8549 15.0531C21.8574 15.7419 22.6193 15.5909 22.6193 15.5909L26.1663 15.5411C26.1663 15.5411 28.022 15.4266 27.1423 13.9676Z"/>
</svg>
