<svg width="21" height="27" viewBox="0 0 21 27" fill="none" xmlns="http://www.w3.org/2000/svg">
<mask id="path-1-outside-1" maskUnits="userSpaceOnUse" x="0.0712891" y="0" width="21" height="27" fill="black">
<rect fill="white" x="0.0712891" width="21" height="27"/>
<path d="M1.09559 12.7869L1.5938 13.6492C1.6265 13.7064 1.68668 13.7385 1.74851 13.7385C1.77847 13.7385 1.80924 13.7308 1.83755 13.7143L2.36791 13.4082L2.59461 13.8012C2.62759 13.8586 2.6875 13.8905 2.74933 13.8905C2.77928 13.8905 2.81006 13.8828 2.83809 13.8663L10.6366 9.36348L11.0875 10.1445L9.91687 10.8207C9.87565 10.8444 9.8457 10.8834 9.83333 10.9293C9.82097 10.9749 9.82729 11.0238 9.8512 11.0647L10.3901 11.998V13.1865L3.1225 25.8217L3.4322 25.9997L6.75478 20.2232H10.9523V25.9104H11.3098V20.2235H15.5376L18.886 26L19.1951 25.8208L11.8723 13.1859V11.9504C11.8723 11.8518 11.7924 11.7718 11.694 11.7718H11.2356L12.9745 10.7674C13.0158 10.7438 13.0454 10.7048 13.0578 10.6589C13.0702 10.6133 13.0639 10.5643 13.0405 10.5234L12.0977 8.8911L17.5738 5.729L17.6428 5.84854C17.6664 5.88976 17.7055 5.91944 17.7516 5.9318C17.767 5.93565 17.7819 5.93785 17.7978 5.93785C17.8288 5.93785 17.8599 5.92961 17.8868 5.91367L20.521 4.39294C20.6068 4.34375 20.6359 4.23465 20.5862 4.14892L18.8192 1.08932C18.7956 1.0481 18.7563 1.01842 18.7104 1.00606C18.6659 0.993965 18.6161 1.00001 18.5752 1.02392L15.941 2.54465C15.8555 2.59384 15.8261 2.70293 15.8761 2.78867L15.9451 2.90821L9.68549 6.52179C9.64455 6.54543 9.61459 6.58445 9.60223 6.63034C9.58986 6.67596 9.59618 6.72487 9.62009 6.76581L9.69099 6.88837L1.53005 11.6001C1.44459 11.6492 1.41546 11.7583 1.46492 11.8441L1.69135 12.2368L1.16072 12.5426C1.1195 12.5665 1.08982 12.6055 1.07746 12.6514C1.06509 12.697 1.07141 12.746 1.09559 12.7869ZM19.7502 4.42509L18.1627 1.67464L18.5991 1.42265L20.1872 4.17282L19.7502 4.42509ZM16.3433 2.8843C16.3433 2.88402 16.3427 2.88402 16.3427 2.88375L16.274 2.76504L17.853 1.85353L19.4405 4.60371L17.8618 5.51521L17.7934 5.39677C17.7934 5.3965 17.7934 5.39595 17.7931 5.39567L16.3433 2.8843ZM11.3101 13.4129H11.5907L15.3307 19.8657H11.3101V13.4129ZM10.7476 13.0554V12.1293H11.5151V13.0554H10.7476ZM10.672 13.4129H10.9526V19.8657H6.9606L10.672 13.4129ZM10.6536 8.67951L10.8619 8.55942C10.8622 8.55914 10.8625 8.55887 10.8627 8.55859L11.3351 8.286L12.6412 10.5473L10.6341 11.7067L10.2497 11.0411L11.4206 10.3648C11.4618 10.3412 11.492 10.3022 11.5044 10.2563C11.5167 10.2107 11.5101 10.1618 11.4868 10.1208L10.8572 9.0307L10.6536 8.67951ZM10.63 7.7996L10.0894 6.86419C10.0894 6.86364 10.0889 6.86337 10.0883 6.86282L10.0183 6.74191L16.1235 3.21735L17.3949 5.41986L11.9188 8.5814L11.5555 7.95267C11.506 7.86775 11.3972 7.8378 11.3115 7.88754L10.8383 8.16069L10.63 7.7996ZM2.20523 12.4126L2.08981 12.2129C2.08981 12.2129 2.08981 12.2129 2.08981 12.2126L1.8631 11.8202L9.86961 7.19752L10.5288 8.33903L10.3203 8.45912C10.3068 8.46709 10.2966 8.47863 10.2859 8.48935C10.2804 8.49512 10.273 8.49924 10.2681 8.50556C10.254 8.52452 10.2433 8.5454 10.2378 8.56794C10.2373 8.56959 10.2378 8.57151 10.2373 8.57316C10.2321 8.59377 10.2304 8.61548 10.2329 8.63691C10.2343 8.6479 10.2398 8.65807 10.2436 8.66851C10.2475 8.68033 10.2491 8.69242 10.2551 8.70341L10.4577 9.0546L2.81445 13.4679L2.20523 12.4126ZM1.49405 12.763L1.8697 12.5462L2.18846 13.0988L1.81282 13.3159L1.49405 12.763Z"/>
</mask>
<path d="M1.09559 12.7869L1.5938 13.6492C1.6265 13.7064 1.68668 13.7385 1.74851 13.7385C1.77847 13.7385 1.80924 13.7308 1.83755 13.7143L2.36791 13.4082L2.59461 13.8012C2.62759 13.8586 2.6875 13.8905 2.74933 13.8905C2.77928 13.8905 2.81006 13.8828 2.83809 13.8663L10.6366 9.36348L11.0875 10.1445L9.91687 10.8207C9.87565 10.8444 9.8457 10.8834 9.83333 10.9293C9.82097 10.9749 9.82729 11.0238 9.8512 11.0647L10.3901 11.998V13.1865L3.1225 25.8217L3.4322 25.9997L6.75478 20.2232H10.9523V25.9104H11.3098V20.2235H15.5376L18.886 26L19.1951 25.8208L11.8723 13.1859V11.9504C11.8723 11.8518 11.7924 11.7718 11.694 11.7718H11.2356L12.9745 10.7674C13.0158 10.7438 13.0454 10.7048 13.0578 10.6589C13.0702 10.6133 13.0639 10.5643 13.0405 10.5234L12.0977 8.8911L17.5738 5.729L17.6428 5.84854C17.6664 5.88976 17.7055 5.91944 17.7516 5.9318C17.767 5.93565 17.7819 5.93785 17.7978 5.93785C17.8288 5.93785 17.8599 5.92961 17.8868 5.91367L20.521 4.39294C20.6068 4.34375 20.6359 4.23465 20.5862 4.14892L18.8192 1.08932C18.7956 1.0481 18.7563 1.01842 18.7104 1.00606C18.6659 0.993965 18.6161 1.00001 18.5752 1.02392L15.941 2.54465C15.8555 2.59384 15.8261 2.70293 15.8761 2.78867L15.9451 2.90821L9.68549 6.52179C9.64455 6.54543 9.61459 6.58445 9.60223 6.63034C9.58986 6.67596 9.59618 6.72487 9.62009 6.76581L9.69099 6.88837L1.53005 11.6001C1.44459 11.6492 1.41546 11.7583 1.46492 11.8441L1.69135 12.2368L1.16072 12.5426C1.1195 12.5665 1.08982 12.6055 1.07746 12.6514C1.06509 12.697 1.07141 12.746 1.09559 12.7869ZM19.7502 4.42509L18.1627 1.67464L18.5991 1.42265L20.1872 4.17282L19.7502 4.42509ZM16.3433 2.8843C16.3433 2.88402 16.3427 2.88402 16.3427 2.88375L16.274 2.76504L17.853 1.85353L19.4405 4.60371L17.8618 5.51521L17.7934 5.39677C17.7934 5.3965 17.7934 5.39595 17.7931 5.39567L16.3433 2.8843ZM11.3101 13.4129H11.5907L15.3307 19.8657H11.3101V13.4129ZM10.7476 13.0554V12.1293H11.5151V13.0554H10.7476ZM10.672 13.4129H10.9526V19.8657H6.9606L10.672 13.4129ZM10.6536 8.67951L10.8619 8.55942C10.8622 8.55914 10.8625 8.55887 10.8627 8.55859L11.3351 8.286L12.6412 10.5473L10.6341 11.7067L10.2497 11.0411L11.4206 10.3648C11.4618 10.3412 11.492 10.3022 11.5044 10.2563C11.5167 10.2107 11.5101 10.1618 11.4868 10.1208L10.8572 9.0307L10.6536 8.67951ZM10.63 7.7996L10.0894 6.86419C10.0894 6.86364 10.0889 6.86337 10.0883 6.86282L10.0183 6.74191L16.1235 3.21735L17.3949 5.41986L11.9188 8.5814L11.5555 7.95267C11.506 7.86775 11.3972 7.8378 11.3115 7.88754L10.8383 8.16069L10.63 7.7996ZM2.20523 12.4126L2.08981 12.2129C2.08981 12.2129 2.08981 12.2129 2.08981 12.2126L1.8631 11.8202L9.86961 7.19752L10.5288 8.33903L10.3203 8.45912C10.3068 8.46709 10.2966 8.47863 10.2859 8.48935C10.2804 8.49512 10.273 8.49924 10.2681 8.50556C10.254 8.52452 10.2433 8.5454 10.2378 8.56794C10.2373 8.56959 10.2378 8.57151 10.2373 8.57316C10.2321 8.59377 10.2304 8.61548 10.2329 8.63691C10.2343 8.6479 10.2398 8.65807 10.2436 8.66851C10.2475 8.68033 10.2491 8.69242 10.2551 8.70341L10.4577 9.0546L2.81445 13.4679L2.20523 12.4126ZM1.49405 12.763L1.8697 12.5462L2.18846 13.0988L1.81282 13.3159L1.49405 12.763Z" fill="white"/>
<path d="M1.09559 12.7869L1.5938 13.6492C1.6265 13.7064 1.68668 13.7385 1.74851 13.7385C1.77847 13.7385 1.80924 13.7308 1.83755 13.7143L2.36791 13.4082L2.59461 13.8012C2.62759 13.8586 2.6875 13.8905 2.74933 13.8905C2.77928 13.8905 2.81006 13.8828 2.83809 13.8663L10.6366 9.36348L11.0875 10.1445L9.91687 10.8207C9.87565 10.8444 9.8457 10.8834 9.83333 10.9293C9.82097 10.9749 9.82729 11.0238 9.8512 11.0647L10.3901 11.998V13.1865L3.1225 25.8217L3.4322 25.9997L6.75478 20.2232H10.9523V25.9104H11.3098V20.2235H15.5376L18.886 26L19.1951 25.8208L11.8723 13.1859V11.9504C11.8723 11.8518 11.7924 11.7718 11.694 11.7718H11.2356L12.9745 10.7674C13.0158 10.7438 13.0454 10.7048 13.0578 10.6589C13.0702 10.6133 13.0639 10.5643 13.0405 10.5234L12.0977 8.8911L17.5738 5.729L17.6428 5.84854C17.6664 5.88976 17.7055 5.91944 17.7516 5.9318C17.767 5.93565 17.7819 5.93785 17.7978 5.93785C17.8288 5.93785 17.8599 5.92961 17.8868 5.91367L20.521 4.39294C20.6068 4.34375 20.6359 4.23465 20.5862 4.14892L18.8192 1.08932C18.7956 1.0481 18.7563 1.01842 18.7104 1.00606C18.6659 0.993965 18.6161 1.00001 18.5752 1.02392L15.941 2.54465C15.8555 2.59384 15.8261 2.70293 15.8761 2.78867L15.9451 2.90821L9.68549 6.52179C9.64455 6.54543 9.61459 6.58445 9.60223 6.63034C9.58986 6.67596 9.59618 6.72487 9.62009 6.76581L9.69099 6.88837L1.53005 11.6001C1.44459 11.6492 1.41546 11.7583 1.46492 11.8441L1.69135 12.2368L1.16072 12.5426C1.1195 12.5665 1.08982 12.6055 1.07746 12.6514C1.06509 12.697 1.07141 12.746 1.09559 12.7869ZM19.7502 4.42509L18.1627 1.67464L18.5991 1.42265L20.1872 4.17282L19.7502 4.42509ZM16.3433 2.8843C16.3433 2.88402 16.3427 2.88402 16.3427 2.88375L16.274 2.76504L17.853 1.85353L19.4405 4.60371L17.8618 5.51521L17.7934 5.39677C17.7934 5.3965 17.7934 5.39595 17.7931 5.39567L16.3433 2.8843ZM11.3101 13.4129H11.5907L15.3307 19.8657H11.3101V13.4129ZM10.7476 13.0554V12.1293H11.5151V13.0554H10.7476ZM10.672 13.4129H10.9526V19.8657H6.9606L10.672 13.4129ZM10.6536 8.67951L10.8619 8.55942C10.8622 8.55914 10.8625 8.55887 10.8627 8.55859L11.3351 8.286L12.6412 10.5473L10.6341 11.7067L10.2497 11.0411L11.4206 10.3648C11.4618 10.3412 11.492 10.3022 11.5044 10.2563C11.5167 10.2107 11.5101 10.1618 11.4868 10.1208L10.8572 9.0307L10.6536 8.67951ZM10.63 7.7996L10.0894 6.86419C10.0894 6.86364 10.0889 6.86337 10.0883 6.86282L10.0183 6.74191L16.1235 3.21735L17.3949 5.41986L11.9188 8.5814L11.5555 7.95267C11.506 7.86775 11.3972 7.8378 11.3115 7.88754L10.8383 8.16069L10.63 7.7996ZM2.20523 12.4126L2.08981 12.2129C2.08981 12.2129 2.08981 12.2129 2.08981 12.2126L1.8631 11.8202L9.86961 7.19752L10.5288 8.33903L10.3203 8.45912C10.3068 8.46709 10.2966 8.47863 10.2859 8.48935C10.2804 8.49512 10.273 8.49924 10.2681 8.50556C10.254 8.52452 10.2433 8.5454 10.2378 8.56794C10.2373 8.56959 10.2378 8.57151 10.2373 8.57316C10.2321 8.59377 10.2304 8.61548 10.2329 8.63691C10.2343 8.6479 10.2398 8.65807 10.2436 8.66851C10.2475 8.68033 10.2491 8.69242 10.2551 8.70341L10.4577 9.0546L2.81445 13.4679L2.20523 12.4126ZM1.49405 12.763L1.8697 12.5462L2.18846 13.0988L1.81282 13.3159L1.49405 12.763Z" stroke="white" stroke-width="0.4" mask="url(#path-1-outside-1)"/>
</svg>
