<svg width="45" height="55" viewBox="0 0 45 45" fill="#333333" xmlns="http://www.w3.org/2000/svg">
  <path
    d="M11.7322 5.86612C11.7322 2.64298 9.08926 0 5.86612 0C2.64298 0 0 2.57851 0 5.80165C0 9.02479 2.64298 11.6678 5.86612 11.6678C9.0248 11.7322 11.7322 9.15372 11.7322 5.86612ZM1.35372 5.86612C1.35372 3.35207 3.35207 1.35372 5.86612 1.35372C8.38017 1.35372 10.3785 3.41652 10.3785 5.93057C10.3785 8.44462 8.38017 10.443 5.86612 10.443C3.28761 10.3785 1.35372 8.31571 1.35372 5.86612Z"
    fill="#333333"/>
  <path
    d="M5.54376 14.633C5.54376 14.4397 5.35037 14.3107 5.22145 14.3107C5.09252 14.3107 4.89913 14.5041 4.89913 14.633C4.89913 15.2132 4.44789 15.6645 3.86772 15.6645C3.67434 15.6645 3.54541 15.8578 3.54541 15.9868C3.54541 16.1157 3.7388 16.3091 3.86772 16.3091C4.44789 16.3091 4.89913 16.7603 4.89913 17.3405C4.89913 17.5339 5.09252 17.6628 5.22145 17.6628C5.35037 17.6628 5.54376 17.4694 5.54376 17.3405C5.54376 16.7603 5.995 16.3091 6.57516 16.3091C6.76855 16.3091 6.89747 16.1157 6.89747 15.9868C6.89747 15.8578 6.70409 15.6645 6.57516 15.6645C5.995 15.6 5.54376 15.1487 5.54376 14.633ZM5.22145 16.2446C5.15698 16.1157 5.02806 16.0512 4.89913 15.9223C5.02806 15.8578 5.09252 15.7289 5.22145 15.6C5.28591 15.7289 5.41484 15.7934 5.54376 15.9223C5.35037 16.0512 5.28591 16.1157 5.22145 16.2446Z"
    fill="#333333"/>
  <path
    d="M15.2774 4.51237C16.1799 4.51237 16.9535 5.28592 16.9535 6.1884C16.9535 6.51072 17.2113 6.76856 17.5336 6.76856C17.8559 6.76856 18.1138 6.51072 18.1138 6.1884C18.1138 5.28592 18.8873 4.51237 19.7898 4.51237C20.1121 4.51237 20.37 4.25452 20.37 3.9322C20.37 3.60989 20.1121 3.35202 19.7898 3.35202C18.8873 3.35202 18.1138 2.57849 18.1138 1.67601C18.1138 1.35369 17.8559 1.09583 17.5336 1.09583C17.2113 1.09583 16.9535 1.35369 16.9535 1.67601C16.9535 2.57849 16.1799 3.35202 15.2774 3.35202C14.9551 3.35202 14.6973 3.60989 14.6973 3.9322C14.6973 4.25452 14.9551 4.51237 15.2774 4.51237ZM17.4692 3.41649C17.6626 3.60988 17.7915 3.80328 17.9849 3.9322C17.7915 4.06113 17.6626 4.25451 17.4692 4.4479C17.3402 4.25451 17.1469 4.12559 16.9535 3.9322C17.1469 3.80328 17.3402 3.67434 17.4692 3.41649Z"
    fill="#333333"/>
  <path
    d="M37.0017 34.2942C36.0993 34.2942 35.3257 33.5206 35.3257 32.6181C35.3257 32.2958 35.0679 32.038 34.7455 32.038C34.4232 32.038 34.1654 32.2958 34.1654 32.6181C34.1654 33.5206 33.3918 34.2942 32.4893 34.2942C32.167 34.2942 31.9092 34.552 31.9092 34.8743C31.9092 35.1967 32.167 35.4545 32.4893 35.4545C33.3918 35.4545 34.1654 36.2281 34.1654 37.1305C34.1654 37.4529 34.4232 37.7107 34.7455 37.7107C35.0679 37.7107 35.3257 37.4529 35.3257 37.1305C35.3257 36.2281 36.0993 35.4545 37.0017 35.4545C37.3241 35.4545 37.5819 35.1967 37.5819 34.8743C37.5819 34.552 37.3241 34.2942 37.0017 34.2942ZM34.7455 35.39C34.6166 35.1966 34.4232 35.0677 34.2298 34.8743C34.4232 34.7454 34.5522 34.552 34.7455 34.3586C34.9389 34.552 35.0679 34.7454 35.2612 34.8743C35.1323 35.0033 34.9389 35.1322 34.7455 35.39Z"
    fill="#333333"/>
  <path
    d="M39.5155 3.60992H26.9453C26.7519 3.60992 26.623 3.67438 26.494 3.8033L8.44446 21.8529C8.31553 21.9818 8.25107 22.1108 8.25107 22.3041C8.25107 22.4975 8.31553 22.6264 8.44446 22.7554L12.1833 26.4942L3.6742 28.2347C3.09404 28.3636 2.57834 28.8149 2.38495 29.395C2.19156 29.9752 2.38495 30.6198 2.77173 31.0711L13.3436 41.643C13.7304 42.0298 14.2461 42.2231 14.7618 42.2231C14.9552 42.2231 15.1486 42.2231 15.342 42.1587C16.0511 41.9653 16.5668 41.3851 16.6957 40.676L18.3073 32.7471L22.1106 36.5504C22.2395 36.6793 22.4329 36.7438 22.5618 36.7438C22.6907 36.7438 22.8841 36.6793 23.013 36.5504L41.0626 18.5008C41.1916 18.3719 41.256 18.243 41.256 18.0496V5.41488C41.256 4.44793 40.4825 3.60992 39.5155 3.60992ZM39.6445 18.0496L26.8808 5.28594L27.2031 4.96363L39.9668 17.7273L39.6445 18.0496ZM26.8164 30.8777L22.9486 27.0099L35.3254 14.633L39.1932 18.5008L26.8164 30.8777ZM24.1089 33.5851L20.2411 29.7174L22.4973 27.4612L26.3651 31.3289L24.1089 33.5851ZM18.1783 30.8132C18.1139 30.8132 18.1139 30.7488 18.0494 30.7488C17.9205 30.7488 17.856 30.7488 17.7271 30.7488L14.0527 27.0744C14.0527 26.9455 14.0527 26.881 14.0527 26.7521L15.2131 25.5917L19.2742 29.6529L18.1783 30.8132ZM9.47586 31.5868L14.8907 28.8793L16.0511 30.0397L13.4081 35.519L9.47586 31.5868ZM13.537 27.6545C13.6015 27.6545 13.6015 27.6545 13.6015 27.5901L14.375 28.3636L8.96015 31.0711L6.83289 28.9438L13.537 27.6545ZM15.7287 25.1405L22.4973 18.3719L26.5585 22.4331L19.7899 29.2016L15.7287 25.1405ZM18.1139 13.9884L22.0461 17.9207L15.2775 24.6893L11.3453 20.757L18.1139 13.9884ZM26.4296 5.73719L34.8742 14.1818L27.0742 21.9818L18.6296 13.5372L26.4296 5.73719ZM28.0411 4.89918H34.6808L39.9668 10.1851V16.8248L28.0411 4.89918ZM39.9668 5.41488V9.28264L35.6478 4.96363H39.5155C39.7734 4.89916 39.9668 5.15702 39.9668 5.41488ZM10.894 21.2727L14.8263 25.205L13.7304 26.3008L9.79817 22.3686L10.894 21.2727ZM14.9552 40.9339C14.6973 40.9984 14.4395 40.9339 14.2461 40.7405L3.6742 30.1686C3.54528 30.0397 3.54529 29.8463 3.60975 29.7818C3.60975 29.7173 3.67421 29.5884 3.93206 29.524L6.12379 29.0727L15.7932 38.7422L15.4709 40.3537C15.4064 40.676 15.213 40.8694 14.9552 40.9339ZM15.9221 38.0331L13.8593 35.9702L16.5023 30.4909L17.2759 31.2645C17.2759 31.2645 17.2759 31.2645 17.2759 31.3289L15.9221 38.0331ZM22.5618 35.1322L18.694 31.2645L19.7899 30.1686L23.6577 34.0364L22.5618 35.1322Z"
    fill="#333333"/>
  <path
    d="M24.3667 15.9868C25.0113 16.6314 25.7848 16.8892 26.6229 16.8892C27.4609 16.8892 28.2344 16.5669 28.8791 15.9868C30.1039 14.762 30.1039 12.7636 28.8791 11.5388C27.6543 10.314 25.6559 10.314 24.4311 11.5388C23.851 12.119 23.5286 12.957 23.5286 13.795C23.4642 14.633 23.7865 15.4066 24.3667 15.9868ZM24.8179 11.9901C25.3336 11.4744 25.9782 11.281 26.6229 11.281C27.2675 11.281 27.9121 11.5388 28.4278 11.9901C29.3948 12.957 29.3948 14.5686 28.4278 15.5355C27.4609 16.5025 25.8493 16.5025 24.8824 15.5355C24.4311 15.0843 24.1733 14.4397 24.1733 13.7306C24.1088 13.0859 24.3667 12.4413 24.8179 11.9901Z"
    fill="#333333"/>
  <path
    d="M23.4646 16.8892C24.3026 17.7273 25.3984 18.1785 26.6232 18.1785C27.848 18.1785 28.9439 17.7273 29.7819 16.8892C31.5224 15.1487 31.5224 12.3769 29.7819 10.6364C28.9439 9.79835 27.848 9.34711 26.6232 9.34711C25.3984 9.34711 24.3026 9.79835 23.4646 10.6364C21.7241 12.3769 21.7241 15.1487 23.4646 16.8892ZM23.9158 11.0876C24.6249 10.3785 25.5918 9.99174 26.6232 9.99174C27.6546 9.99174 28.5571 10.3785 29.3307 11.0876C30.8133 12.5702 30.8133 14.9554 29.3307 16.438C28.6216 17.1471 27.6546 17.5339 26.6232 17.5339C25.5918 17.5339 24.6894 17.1471 23.9158 16.438C22.4332 14.9554 22.4332 12.5702 23.9158 11.0876Z"
    fill="#333333"/>
  <path
    d="M26.8809 29.9107C27.0589 29.9107 27.2032 29.7664 27.2032 29.5884C27.2032 29.4104 27.0589 29.2661 26.8809 29.2661C26.7029 29.2661 26.5586 29.4104 26.5586 29.5884C26.5586 29.7664 26.7029 29.9107 26.8809 29.9107Z"
    fill="#333333"/>
  <path
    d="M29.0723 27.719C29.2503 27.719 29.3946 27.5747 29.3946 27.3967C29.3946 27.2187 29.2503 27.0744 29.0723 27.0744C28.8943 27.0744 28.75 27.2187 28.75 27.3967C28.75 27.5747 28.8943 27.719 29.0723 27.719Z"
    fill="#333333"/>
  <path
    d="M31.2642 25.5273C31.4422 25.5273 31.5865 25.383 31.5865 25.2049C31.5865 25.0269 31.4422 24.8826 31.2642 24.8826C31.0862 24.8826 30.9419 25.0269 30.9419 25.2049C30.9419 25.383 31.0862 25.5273 31.2642 25.5273Z"
    fill="#333333"/>
  <path
    d="M33.5206 23.271C33.6986 23.271 33.8429 23.1267 33.8429 22.9487C33.8429 22.7707 33.6986 22.6264 33.5206 22.6264C33.3425 22.6264 33.1982 22.7707 33.1982 22.9487C33.1982 23.1267 33.3425 23.271 33.5206 23.271Z"
    fill="#333333"/>
  <path
    d="M35.7125 21.0793C35.8905 21.0793 36.0348 20.935 36.0348 20.757C36.0348 20.579 35.8905 20.4347 35.7125 20.4347C35.5344 20.4347 35.3901 20.579 35.3901 20.757C35.3901 20.935 35.5344 21.0793 35.7125 21.0793Z"
    fill="#333333"/>
  <path
    d="M37.9039 18.8876C38.0819 18.8876 38.2262 18.7433 38.2262 18.5653C38.2262 18.3873 38.0819 18.243 37.9039 18.243C37.7258 18.243 37.5815 18.3873 37.5815 18.5653C37.5815 18.7433 37.7258 18.8876 37.9039 18.8876Z"
    fill="#333333"/>
</svg>
