<svg width="93" height="71" viewBox="0 0 100 71" fill="none" xmlns="http://www.w3.org/2000/svg">
  <path
    d="M33.2431 14.2165L33.391 14.1904L33.3647 14.0425C33.3106 13.7381 33.283 13.3842 33.283 12.9928C33.283 12.3581 33.354 11.8118 33.4914 11.3649L33.5355 11.2213L33.3919 11.1774L32.6269 10.9434L32.4839 10.8996L32.4397 11.0425C32.2671 11.6004 32.183 12.2581 32.183 12.9928C32.183 13.4436 32.2155 13.8626 32.2813 14.234L32.3075 14.3815L32.4551 14.3555L33.2431 14.2165Z"
    fill="#333333" stroke="#333333" stroke-width="0.3"/>
  <path
    d="M57.8124 66.8862L58.8965 63.6332C59.4736 64.1401 60.3702 64.5231 61.4018 64.7865C62.5507 65.0799 63.8896 65.2308 65.1961 65.2308C66.5036 65.2308 67.8431 65.0799 68.992 64.7865C70.0234 64.5231 70.9194 64.1403 71.4959 63.6334L72.5798 66.8862L72.6272 67.0285L72.7696 66.9811L73.5286 66.7281L73.6708 66.6807L73.6234 66.5384L72.1701 62.1754C72.1271 61.6982 71.8596 61.2871 71.4529 60.9435C71.0416 60.5961 70.4788 60.3091 69.8273 60.0803C68.5238 59.6225 66.8331 59.3868 65.1961 59.3868C63.5592 59.3868 61.8687 59.6227 60.5653 60.0807C59.9139 60.3095 59.3511 60.5966 58.9398 60.9439C58.533 61.2875 58.2654 61.6984 58.2222 62.1754L56.7688 66.5384L56.7214 66.6807L56.8637 66.7281L57.6227 66.9811L57.765 67.0285L57.8124 66.8862ZM65.1961 64.1288C63.4823 64.1288 61.9897 63.8704 60.9305 63.5004C60.4001 63.3152 59.9854 63.1044 59.7064 62.8893C59.4221 62.6701 59.3071 62.4694 59.3071 62.3078C59.3071 62.1456 59.4222 61.9446 59.7065 61.7252C59.9854 61.51 60.4001 61.2992 60.9305 61.1139C61.9896 60.7439 63.4822 60.4858 65.1961 60.4858C66.911 60.4858 68.4036 60.7439 69.4625 61.1139C69.9928 61.2992 70.4072 61.51 70.686 61.7252C70.9701 61.9445 71.0851 62.1455 71.0851 62.3078C71.0851 62.4695 70.9702 62.6702 70.6861 62.8893C70.4073 63.1044 69.9928 63.3152 69.4625 63.5004C68.4036 63.8704 66.911 64.1288 65.1961 64.1288Z"
    fill="currentColor" stroke="#333333" stroke-width="0.3"/>
  <path
    d="M20.2644 69.2472L20.9618 67.153C21.4095 67.4769 22.0323 67.7205 22.7341 67.8887C23.535 68.0806 24.4542 68.1778 25.368 68.1778C26.2819 68.1778 27.201 68.0806 28.002 67.8887C28.7038 67.7205 29.3266 67.4769 29.7743 67.153L30.4727 69.2482L30.5202 69.3907L30.6626 69.343L31.4216 69.089L31.5638 69.0415L31.5163 68.8993L30.4856 65.8102C30.4467 65.4433 30.2481 65.1308 29.9503 64.8727C29.6489 64.6117 29.2398 64.4001 28.7673 64.2336C27.8218 63.9004 26.591 63.7365 25.3673 63.7367C24.1436 63.7368 22.9128 63.9012 21.9676 64.2346C21.4952 64.4012 21.0862 64.6129 20.7851 64.874C20.4874 65.1321 20.2891 65.4444 20.2504 65.8113L19.2207 68.9003L19.1732 69.0428L19.3158 69.0901L20.0748 69.3421L20.217 69.3894L20.2644 69.2472ZM25.369 67.0798C24.1064 67.0798 23.0782 66.8909 22.3706 66.6413C22.016 66.5162 21.748 66.378 21.5718 66.2452C21.3868 66.1057 21.337 65.9989 21.337 65.9428C21.337 65.8863 21.387 65.7792 21.5719 65.6396C21.748 65.5065 22.0161 65.3681 22.3706 65.2428C23.0782 64.9929 24.1064 64.8038 25.369 64.8038C26.6317 64.8038 27.6599 64.9929 28.3674 65.2428C28.722 65.3681 28.99 65.5065 29.1662 65.6396C29.3511 65.7792 29.401 65.8863 29.401 65.9428C29.401 65.9992 29.3511 66.1062 29.1663 66.2456C28.9901 66.3785 28.7221 66.5167 28.3675 66.6417C27.6599 66.8912 26.6317 67.0798 25.369 67.0798Z"
    fill="currentColor" stroke="#333333" stroke-width="0.3"/>
  <path
    d="M38.4172 10.5658C37.7116 10.012 36.6387 9.72084 35.1792 9.72084C33.7196 9.72084 32.647 10.012 31.9415 10.5658C31.2428 11.1143 30.8817 11.9386 30.8812 13.0618L38.4172 10.5658ZM38.4172 10.5658C39.116 11.1143 39.4772 11.9386 39.4772 13.0618M38.4172 10.5658L39.4772 13.0618M39.4772 13.0618C39.4772 14.1306 39.1855 14.8261 38.5348 15.2668M39.4772 13.0618L38.5348 15.2668M38.5348 15.2668C37.8679 15.7184 36.7959 15.9238 35.1792 15.9238M38.5348 15.2668L35.1792 15.9238M35.1792 15.9238C33.5624 15.9238 32.4904 15.7186 31.8235 15.2671M35.1792 15.9238L31.8235 15.2671M31.8235 15.2671C31.1728 14.8266 30.8812 14.1311 30.8812 13.0619L31.8235 15.2671ZM29.7812 13.0618V13.0619C29.7814 13.9216 29.9514 14.6065 30.256 15.1486C30.5611 15.6915 30.9962 16.0821 31.5115 16.3603C32.5349 16.9129 33.8802 17.0248 35.1792 17.0248C36.4786 17.0248 37.8242 16.9129 38.8475 16.3603C39.3629 16.0821 39.7979 15.6915 40.1029 15.1486C40.4074 14.6065 40.5772 13.9216 40.5772 13.0618C40.5772 11.6417 40.0973 10.5224 39.1671 9.76172C38.2417 9.00497 36.8909 8.61984 35.1792 8.61984C33.4674 8.61984 32.1166 9.00497 31.1912 9.76172C30.261 10.5224 29.7812 11.6417 29.7812 13.0618Z"
    fill="currentColor" stroke="currentColor" stroke-width="0.3"/>
  <path d="M33.4 21.3948V21.2448H33.25H32.45H32.3V21.3948V25.4738V25.6238H32.45H33.25H33.4V25.4738V21.3948Z"
        fill="currentColor" stroke="#333333" stroke-width="0.3"/>
  <path d="M34.887 21.3948V21.2448H34.737H33.937H33.787V21.3948V25.4738V25.6238H33.937H34.737H34.887V25.4738V21.3948Z"
        fill="currentColor" stroke="#333333" stroke-width="0.3"/>
  <path d="M35.339 23.0838V23.2338H35.489H37.998H38.148V23.0838V21.2248V21.0748H37.998H35.489H35.339V21.2248V23.0838Z"
        fill="currentColor" stroke="#333333" stroke-width="0.3"/>
  <path d="M35.339 25.3538V25.5038H35.489H37.998H38.148V25.3538V23.4928V23.3428H37.998H35.489H35.339V23.4928V25.3538Z"
        fill="currentColor" stroke="#333333" stroke-width="0.3"/>
  <path
    d="M35.7291 28.2378V28.0878H35.5791H34.7791H34.6291V28.2378V33.5268V33.6768H34.7791H35.5791H35.7291V33.5268V28.2378Z"
    fill="currentColor" stroke="#333333" stroke-width="0.3"/>
  <path
    d="M32.0081 28.0378C31.2761 28.0378 30.6811 28.633 30.6811 29.3658C30.6811 30.0966 31.2761 30.6928 32.0081 30.6928C32.7399 30.6928 33.3351 30.0976 33.3351 29.3658C33.3351 28.633 32.74 28.0378 32.0081 28.0378ZM32.0081 29.5908C31.8824 29.5908 31.7811 29.4894 31.7811 29.3648C31.7811 29.2396 31.8829 29.1378 32.0081 29.1378C32.1332 29.1378 32.2351 29.2396 32.2351 29.3648C32.2351 29.4894 32.1337 29.5908 32.0081 29.5908Z"
    fill="currentColor" stroke="#333333" stroke-width="0.3"/>
  <path
    d="M32.0081 31.0018C31.2762 31.0018 30.6811 31.5969 30.6811 32.3288C30.6811 33.0605 31.276 33.6568 32.0081 33.6568C32.74 33.6568 33.3351 33.0616 33.3351 32.3288C33.3351 31.598 32.74 31.0018 32.0081 31.0018ZM32.0081 32.5558C31.8829 32.5558 31.7811 32.4539 31.7811 32.3288C31.7811 32.2042 31.8824 32.1028 32.0081 32.1028C32.1337 32.1028 32.2351 32.2042 32.2351 32.3288C32.2351 32.4539 32.1332 32.5558 32.0081 32.5558Z"
    fill="currentColor" stroke="#333333" stroke-width="0.3"/>
  <!--<mask id="path-12-outside-1" x="0" y="0" width="93" height="71" fill="black">-->
  <!--<rect fill="white" width="93" height="71"/>-->
<path d="M50.863 51.0698V36.7158C51.168 36.6588 51.478 36.5588 51.76 36.3848C52.234 36.0958 52.812 35.5128 52.883 34.3768C52.991 32.6568 51.58 31.0178 50.862 30.3008V21.3488C56.696 20.5028 59.69 21.6548 62.846 22.8778C65.326 23.8388 67.862 24.8208 71.797 24.8208C74.07 24.8198 76.813 24.4928 80.279 23.6438L80.736 23.5318V3.43881L79.994 3.62081C70.888 5.84981 67.191 4.41681 63.279 2.90081C60.027 1.63981 56.66 0.339812 50.166 1.37681L49.662 1.45781V27.5158C48.627 25.4528 47.236 23.9438 46.814 23.5158C45.82 20.0358 42.605 17.9008 41.061 17.0498C41.749 16.2788 42.174 15.1858 42.174 13.6178C42.174 9.38081 39.035 5.93281 35.178 5.93281C31.321 5.93281 28.185 9.37981 28.185 13.6178C28.185 15.1848 28.609 16.2788 29.297 17.0498C27.754 17.8998 24.538 20.0338 23.545 23.5158C22.964 24.1048 20.545 26.7268 19.758 30.0488C19.219 30.5438 17.353 32.4098 17.476 34.3768C17.546 35.5128 18.125 36.0958 18.598 36.3848C19.065 36.6708 19.602 36.7758 20.071 36.7758C20.442 36.7758 20.77 36.7118 20.987 36.6168C21.712 36.2978 21.931 35.3848 21.992 35.0078L23.243 32.7478C25.245 31.7268 26.939 30.0748 28.014 28.8578C27.918 30.5618 27.909 32.3848 28.181 33.4588C27.973 34.4158 26.931 39.5518 27.353 44.4088C27.305 45.0178 26.945 50.1248 27.771 53.6578C17.721 56.6998 8.474 62.2368 1 69.7128L1.849 70.5618C8.453 63.9578 16.466 58.8918 25.195 55.7708C24.9 56.1708 24.704 56.6238 24.733 57.1328L24.765 57.6988H33.598L33.701 57.2268C33.997 55.8728 33.763 54.8038 33.613 54.3208C33.755 54.0118 33.877 53.6778 33.99 53.3368C34.736 53.1868 35.489 53.0538 36.242 52.9308C36.385 53.4228 36.551 53.8938 36.749 54.3238C36.599 54.8058 36.364 55.8768 36.661 57.2298L36.765 57.7008H45.598L45.629 57.1348C45.721 55.4698 43.583 54.3648 42.529 53.9258C42.667 53.3888 42.773 52.8088 42.857 52.2098C45.136 52.0808 47.408 52.0768 49.665 52.1928V58.7848H50.865V52.2768C65.917 53.3398 80.206 59.7668 91.001 70.5618L91.85 69.7128C80.826 58.6888 66.237 52.1358 50.863 51.0698ZM51.688 34.3018C51.655 34.8068 51.475 35.1538 51.136 35.3608C51.051 35.4128 50.957 35.4418 50.864 35.4728V32.1458C51.335 32.8008 51.733 33.5808 51.688 34.3018ZM50.863 2.48481C56.705 1.63781 59.691 2.79681 62.847 4.01981C66.658 5.49581 70.593 7.02081 79.538 4.96181V22.5878C70.766 24.6558 67.128 23.2478 63.28 21.7578C60.858 20.8198 58.373 19.8568 54.577 19.8568C53.463 19.8568 52.235 19.9398 50.862 20.1308V9.89381L50.863 2.48481ZM49.664 35.2118C49.609 35.0708 49.562 34.9028 49.544 34.7468L48.326 32.4678L49.662 31.4468V35.2118H49.664ZM35.179 7.13281C38.375 7.13281 40.975 10.0418 40.975 13.6178C40.975 16.5178 39.404 17.5968 35.179 17.5968C30.954 17.5968 29.384 16.5188 29.384 13.6178C29.384 10.0418 31.984 7.13281 35.179 7.13281ZM20.887 34.5218L20.816 34.7448C20.777 35.0768 20.619 35.4668 20.504 35.5168C20.338 35.5898 19.696 35.6498 19.223 35.3618C18.884 35.1538 18.704 34.8078 18.673 34.3028C18.601 33.1548 19.643 31.8538 20.328 31.1668L22.028 32.4628L20.887 34.5218ZM34.34 52.0518C35.037 48.9248 34.886 45.2728 34.851 44.6138C34.978 44.1078 35.083 43.5958 35.18 43.0868C35.277 43.5988 35.382 44.1078 35.509 44.6138C35.475 45.2518 35.333 48.7028 35.958 51.7598C35.417 51.8508 34.879 51.9488 34.34 52.0518ZM44.237 56.4978H37.752C37.612 55.3298 37.943 54.5328 37.946 54.5268L38.061 54.2668L37.933 54.0128C36.346 50.8648 36.709 44.6558 36.712 44.5918L36.718 44.4968L36.695 44.4058C36.093 42.0518 35.862 39.5328 35.78 37.6118C35.791 37.3378 35.8 37.0738 35.806 36.8258L35.753 36.8248C35.753 36.8148 35.753 36.8038 35.752 36.7968L35.179 36.8108L34.606 36.7968C34.606 36.8058 34.606 36.8168 34.605 36.8248L34.552 36.8258C34.558 37.0748 34.567 37.3388 34.578 37.6138C34.496 39.5338 34.265 42.0518 33.663 44.4058L33.64 44.4978L33.646 44.5918C33.649 44.6548 34.012 50.8628 32.425 54.0128L32.301 54.2668L32.41 54.5228C32.414 54.5318 32.745 55.3298 32.605 56.4978H26.119C26.623 55.7708 27.999 55.1088 28.75 54.8528L29.305 54.6638L29.129 54.1028C28.053 50.6968 28.546 44.5148 28.551 44.4538L28.555 44.4018L28.551 44.3508C28.098 39.2608 29.369 33.6298 29.383 33.5748L29.419 33.4198L29.373 33.2668C28.866 31.6018 29.352 26.6608 29.581 24.8968L28.392 24.7428C28.38 24.8348 28.276 25.6498 28.172 26.7628C27.717 27.3758 25.568 30.1488 22.867 31.5958L20.959 30.1408C21.808 26.8748 24.468 24.2898 24.496 24.2628L24.618 24.1458L24.661 23.9828C25.576 20.4948 29.243 18.4158 30.313 17.8748C31.637 18.6348 33.417 18.7978 35.179 18.7978C36.941 18.7978 38.721 18.6348 40.046 17.8748C41.117 18.4168 44.784 20.4958 45.699 23.9828L45.742 24.1468L45.864 24.2638C45.892 24.2898 48.55 26.8658 49.399 30.1408L47.493 31.5958C44.792 30.1488 42.642 27.3758 42.188 26.7628C42.084 25.6508 41.98 24.8348 41.968 24.7428L40.779 24.8968C41.008 26.6608 41.494 31.6018 40.987 33.2668L40.941 33.4198L40.977 33.5748C40.981 33.5918 41.098 34.1138 41.247 34.9628C40.28 35.2338 39.264 35.0168 38.611 34.3668C37.951 33.7088 37.83 32.7478 38.28 31.7288C39.167 29.7218 38.455 28.0848 37.872 27.2068H39.476V19.5468H30.886V27.2068H36.875C37.263 27.6438 38.494 29.2648 37.548 31.4058C36.965 32.7238 37.152 34.0428 38.046 34.9328C38.666 35.5508 39.528 35.8748 40.429 35.8748C40.743 35.8748 41.061 35.8218 41.376 35.7408C41.709 37.8538 42.087 41.2028 41.808 44.3508L41.804 44.4018L41.808 44.4528C41.813 44.5158 42.307 50.6928 41.23 54.1028L41.054 54.6628L41.609 54.8508C42.358 55.1088 43.733 55.7708 44.237 56.4978ZM31.685 26.4048V20.3468H38.675V26.4058L31.685 26.4048ZM42.996 51.0008C43.266 47.9838 43.044 44.8748 43.007 44.4068C43.429 39.5498 42.386 34.4138 42.179 33.4568C42.452 32.3838 42.442 30.5608 42.346 28.8558C43.421 30.0728 45.115 31.7248 47.117 32.7458L48.367 35.0058C48.429 35.3828 48.648 36.2958 49.375 36.6158C49.453 36.6488 49.559 36.6748 49.662 36.6988V50.9858C47.453 50.8748 45.228 50.8818 42.996 51.0008Z"/>
  <!--</mask>-->
<path d="M50.863 51.0698V36.7158C51.168 36.6588 51.478 36.5588 51.76 36.3848C52.234 36.0958 52.812 35.5128 52.883 34.3768C52.991 32.6568 51.58 31.0178 50.862 30.3008V21.3488C56.696 20.5028 59.69 21.6548 62.846 22.8778C65.326 23.8388 67.862 24.8208 71.797 24.8208C74.07 24.8198 76.813 24.4928 80.279 23.6438L80.736 23.5318V3.43881L79.994 3.62081C70.888 5.84981 67.191 4.41681 63.279 2.90081C60.027 1.63981 56.66 0.339812 50.166 1.37681L49.662 1.45781V27.5158C48.627 25.4528 47.236 23.9438 46.814 23.5158C45.82 20.0358 42.605 17.9008 41.061 17.0498C41.749 16.2788 42.174 15.1858 42.174 13.6178C42.174 9.38081 39.035 5.93281 35.178 5.93281C31.321 5.93281 28.185 9.37981 28.185 13.6178C28.185 15.1848 28.609 16.2788 29.297 17.0498C27.754 17.8998 24.538 20.0338 23.545 23.5158C22.964 24.1048 20.545 26.7268 19.758 30.0488C19.219 30.5438 17.353 32.4098 17.476 34.3768C17.546 35.5128 18.125 36.0958 18.598 36.3848C19.065 36.6708 19.602 36.7758 20.071 36.7758C20.442 36.7758 20.77 36.7118 20.987 36.6168C21.712 36.2978 21.931 35.3848 21.992 35.0078L23.243 32.7478C25.245 31.7268 26.939 30.0748 28.014 28.8578C27.918 30.5618 27.909 32.3848 28.181 33.4588C27.973 34.4158 26.931 39.5518 27.353 44.4088C27.305 45.0178 26.945 50.1248 27.771 53.6578C17.721 56.6998 8.474 62.2368 1 69.7128L1.849 70.5618C8.453 63.9578 16.466 58.8918 25.195 55.7708C24.9 56.1708 24.704 56.6238 24.733 57.1328L24.765 57.6988H33.598L33.701 57.2268C33.997 55.8728 33.763 54.8038 33.613 54.3208C33.755 54.0118 33.877 53.6778 33.99 53.3368C34.736 53.1868 35.489 53.0538 36.242 52.9308C36.385 53.4228 36.551 53.8938 36.749 54.3238C36.599 54.8058 36.364 55.8768 36.661 57.2298L36.765 57.7008H45.598L45.629 57.1348C45.721 55.4698 43.583 54.3648 42.529 53.9258C42.667 53.3888 42.773 52.8088 42.857 52.2098C45.136 52.0808 47.408 52.0768 49.665 52.1928V58.7848H50.865V52.2768C65.917 53.3398 80.206 59.7668 91.001 70.5618L91.85 69.7128C80.826 58.6888 66.237 52.1358 50.863 51.0698ZM51.688 34.3018C51.655 34.8068 51.475 35.1538 51.136 35.3608C51.051 35.4128 50.957 35.4418 50.864 35.4728V32.1458C51.335 32.8008 51.733 33.5808 51.688 34.3018ZM50.863 2.48481C56.705 1.63781 59.691 2.79681 62.847 4.01981C66.658 5.49581 70.593 7.02081 79.538 4.96181V22.5878C70.766 24.6558 67.128 23.2478 63.28 21.7578C60.858 20.8198 58.373 19.8568 54.577 19.8568C53.463 19.8568 52.235 19.9398 50.862 20.1308V9.89381L50.863 2.48481ZM49.664 35.2118C49.609 35.0708 49.562 34.9028 49.544 34.7468L48.326 32.4678L49.662 31.4468V35.2118H49.664ZM35.179 7.13281C38.375 7.13281 40.975 10.0418 40.975 13.6178C40.975 16.5178 39.404 17.5968 35.179 17.5968C30.954 17.5968 29.384 16.5188 29.384 13.6178C29.384 10.0418 31.984 7.13281 35.179 7.13281ZM20.887 34.5218L20.816 34.7448C20.777 35.0768 20.619 35.4668 20.504 35.5168C20.338 35.5898 19.696 35.6498 19.223 35.3618C18.884 35.1538 18.704 34.8078 18.673 34.3028C18.601 33.1548 19.643 31.8538 20.328 31.1668L22.028 32.4628L20.887 34.5218ZM34.34 52.0518C35.037 48.9248 34.886 45.2728 34.851 44.6138C34.978 44.1078 35.083 43.5958 35.18 43.0868C35.277 43.5988 35.382 44.1078 35.509 44.6138C35.475 45.2518 35.333 48.7028 35.958 51.7598C35.417 51.8508 34.879 51.9488 34.34 52.0518ZM44.237 56.4978H37.752C37.612 55.3298 37.943 54.5328 37.946 54.5268L38.061 54.2668L37.933 54.0128C36.346 50.8648 36.709 44.6558 36.712 44.5918L36.718 44.4968L36.695 44.4058C36.093 42.0518 35.862 39.5328 35.78 37.6118C35.791 37.3378 35.8 37.0738 35.806 36.8258L35.753 36.8248C35.753 36.8148 35.753 36.8038 35.752 36.7968L35.179 36.8108L34.606 36.7968C34.606 36.8058 34.606 36.8168 34.605 36.8248L34.552 36.8258C34.558 37.0748 34.567 37.3388 34.578 37.6138C34.496 39.5338 34.265 42.0518 33.663 44.4058L33.64 44.4978L33.646 44.5918C33.649 44.6548 34.012 50.8628 32.425 54.0128L32.301 54.2668L32.41 54.5228C32.414 54.5318 32.745 55.3298 32.605 56.4978H26.119C26.623 55.7708 27.999 55.1088 28.75 54.8528L29.305 54.6638L29.129 54.1028C28.053 50.6968 28.546 44.5148 28.551 44.4538L28.555 44.4018L28.551 44.3508C28.098 39.2608 29.369 33.6298 29.383 33.5748L29.419 33.4198L29.373 33.2668C28.866 31.6018 29.352 26.6608 29.581 24.8968L28.392 24.7428C28.38 24.8348 28.276 25.6498 28.172 26.7628C27.717 27.3758 25.568 30.1488 22.867 31.5958L20.959 30.1408C21.808 26.8748 24.468 24.2898 24.496 24.2628L24.618 24.1458L24.661 23.9828C25.576 20.4948 29.243 18.4158 30.313 17.8748C31.637 18.6348 33.417 18.7978 35.179 18.7978C36.941 18.7978 38.721 18.6348 40.046 17.8748C41.117 18.4168 44.784 20.4958 45.699 23.9828L45.742 24.1468L45.864 24.2638C45.892 24.2898 48.55 26.8658 49.399 30.1408L47.493 31.5958C44.792 30.1488 42.642 27.3758 42.188 26.7628C42.084 25.6508 41.98 24.8348 41.968 24.7428L40.779 24.8968C41.008 26.6608 41.494 31.6018 40.987 33.2668L40.941 33.4198L40.977 33.5748C40.981 33.5918 41.098 34.1138 41.247 34.9628C40.28 35.2338 39.264 35.0168 38.611 34.3668C37.951 33.7088 37.83 32.7478 38.28 31.7288C39.167 29.7218 38.455 28.0848 37.872 27.2068H39.476V19.5468H30.886V27.2068H36.875C37.263 27.6438 38.494 29.2648 37.548 31.4058C36.965 32.7238 37.152 34.0428 38.046 34.9328C38.666 35.5508 39.528 35.8748 40.429 35.8748C40.743 35.8748 41.061 35.8218 41.376 35.7408C41.709 37.8538 42.087 41.2028 41.808 44.3508L41.804 44.4018L41.808 44.4528C41.813 44.5158 42.307 50.6928 41.23 54.1028L41.054 54.6628L41.609 54.8508C42.358 55.1088 43.733 55.7708 44.237 56.4978ZM31.685 26.4048V20.3468H38.675V26.4058L31.685 26.4048ZM42.996 51.0008C43.266 47.9838 43.044 44.8748 43.007 44.4068C43.429 39.5498 42.386 34.4138 42.179 33.4568C42.452 32.3838 42.442 30.5608 42.346 28.8558C43.421 30.0728 45.115 31.7248 47.117 32.7458L48.367 35.0058C48.429 35.3828 48.648 36.2958 49.375 36.6158C49.453 36.6488 49.559 36.6748 49.662 36.6988V50.9858C47.453 50.8748 45.228 50.8818 42.996 51.0008Z" fill="#333333"/>
  <path
    d="M50.863 51.0698V36.7158C51.168 36.6588 51.478 36.5588 51.76 36.3848C52.234 36.0958 52.812 35.5128 52.883 34.3768C52.991 32.6568 51.58 31.0178 50.862 30.3008V21.3488C56.696 20.5028 59.69 21.6548 62.846 22.8778C65.326 23.8388 67.862 24.8208 71.797 24.8208C74.07 24.8198 76.813 24.4928 80.279 23.6438L80.736 23.5318V3.43881L79.994 3.62081C70.888 5.84981 67.191 4.41681 63.279 2.90081C60.027 1.63981 56.66 0.339812 50.166 1.37681L49.662 1.45781V27.5158C48.627 25.4528 47.236 23.9438 46.814 23.5158C45.82 20.0358 42.605 17.9008 41.061 17.0498C41.749 16.2788 42.174 15.1858 42.174 13.6178C42.174 9.38081 39.035 5.93281 35.178 5.93281C31.321 5.93281 28.185 9.37981 28.185 13.6178C28.185 15.1848 28.609 16.2788 29.297 17.0498C27.754 17.8998 24.538 20.0338 23.545 23.5158C22.964 24.1048 20.545 26.7268 19.758 30.0488C19.219 30.5438 17.353 32.4098 17.476 34.3768C17.546 35.5128 18.125 36.0958 18.598 36.3848C19.065 36.6708 19.602 36.7758 20.071 36.7758C20.442 36.7758 20.77 36.7118 20.987 36.6168C21.712 36.2978 21.931 35.3848 21.992 35.0078L23.243 32.7478C25.245 31.7268 26.939 30.0748 28.014 28.8578C27.918 30.5618 27.909 32.3848 28.181 33.4588C27.973 34.4158 26.931 39.5518 27.353 44.4088C27.305 45.0178 26.945 50.1248 27.771 53.6578C17.721 56.6998 8.474 62.2368 1 69.7128L1.849 70.5618C8.453 63.9578 16.466 58.8918 25.195 55.7708C24.9 56.1708 24.704 56.6238 24.733 57.1328L24.765 57.6988H33.598L33.701 57.2268C33.997 55.8728 33.763 54.8038 33.613 54.3208C33.755 54.0118 33.877 53.6778 33.99 53.3368C34.736 53.1868 35.489 53.0538 36.242 52.9308C36.385 53.4228 36.551 53.8938 36.749 54.3238C36.599 54.8058 36.364 55.8768 36.661 57.2298L36.765 57.7008H45.598L45.629 57.1348C45.721 55.4698 43.583 54.3648 42.529 53.9258C42.667 53.3888 42.773 52.8088 42.857 52.2098C45.136 52.0808 47.408 52.0768 49.665 52.1928V58.7848H50.865V52.2768C65.917 53.3398 80.206 59.7668 91.001 70.5618L91.85 69.7128C80.826 58.6888 66.237 52.1358 50.863 51.0698ZM51.688 34.3018C51.655 34.8068 51.475 35.1538 51.136 35.3608C51.051 35.4128 50.957 35.4418 50.864 35.4728V32.1458C51.335 32.8008 51.733 33.5808 51.688 34.3018ZM50.863 2.48481C56.705 1.63781 59.691 2.79681 62.847 4.01981C66.658 5.49581 70.593 7.02081 79.538 4.96181V22.5878C70.766 24.6558 67.128 23.2478 63.28 21.7578C60.858 20.8198 58.373 19.8568 54.577 19.8568C53.463 19.8568 52.235 19.9398 50.862 20.1308V9.89381L50.863 2.48481ZM49.664 35.2118C49.609 35.0708 49.562 34.9028 49.544 34.7468L48.326 32.4678L49.662 31.4468V35.2118H49.664ZM35.179 7.13281C38.375 7.13281 40.975 10.0418 40.975 13.6178C40.975 16.5178 39.404 17.5968 35.179 17.5968C30.954 17.5968 29.384 16.5188 29.384 13.6178C29.384 10.0418 31.984 7.13281 35.179 7.13281ZM20.887 34.5218L20.816 34.7448C20.777 35.0768 20.619 35.4668 20.504 35.5168C20.338 35.5898 19.696 35.6498 19.223 35.3618C18.884 35.1538 18.704 34.8078 18.673 34.3028C18.601 33.1548 19.643 31.8538 20.328 31.1668L22.028 32.4628L20.887 34.5218ZM34.34 52.0518C35.037 48.9248 34.886 45.2728 34.851 44.6138C34.978 44.1078 35.083 43.5958 35.18 43.0868C35.277 43.5988 35.382 44.1078 35.509 44.6138C35.475 45.2518 35.333 48.7028 35.958 51.7598C35.417 51.8508 34.879 51.9488 34.34 52.0518ZM44.237 56.4978H37.752C37.612 55.3298 37.943 54.5328 37.946 54.5268L38.061 54.2668L37.933 54.0128C36.346 50.8648 36.709 44.6558 36.712 44.5918L36.718 44.4968L36.695 44.4058C36.093 42.0518 35.862 39.5328 35.78 37.6118C35.791 37.3378 35.8 37.0738 35.806 36.8258L35.753 36.8248C35.753 36.8148 35.753 36.8038 35.752 36.7968L35.179 36.8108L34.606 36.7968C34.606 36.8058 34.606 36.8168 34.605 36.8248L34.552 36.8258C34.558 37.0748 34.567 37.3388 34.578 37.6138C34.496 39.5338 34.265 42.0518 33.663 44.4058L33.64 44.4978L33.646 44.5918C33.649 44.6548 34.012 50.8628 32.425 54.0128L32.301 54.2668L32.41 54.5228C32.414 54.5318 32.745 55.3298 32.605 56.4978H26.119C26.623 55.7708 27.999 55.1088 28.75 54.8528L29.305 54.6638L29.129 54.1028C28.053 50.6968 28.546 44.5148 28.551 44.4538L28.555 44.4018L28.551 44.3508C28.098 39.2608 29.369 33.6298 29.383 33.5748L29.419 33.4198L29.373 33.2668C28.866 31.6018 29.352 26.6608 29.581 24.8968L28.392 24.7428C28.38 24.8348 28.276 25.6498 28.172 26.7628C27.717 27.3758 25.568 30.1488 22.867 31.5958L20.959 30.1408C21.808 26.8748 24.468 24.2898 24.496 24.2628L24.618 24.1458L24.661 23.9828C25.576 20.4948 29.243 18.4158 30.313 17.8748C31.637 18.6348 33.417 18.7978 35.179 18.7978C36.941 18.7978 38.721 18.6348 40.046 17.8748C41.117 18.4168 44.784 20.4958 45.699 23.9828L45.742 24.1468L45.864 24.2638C45.892 24.2898 48.55 26.8658 49.399 30.1408L47.493 31.5958C44.792 30.1488 42.642 27.3758 42.188 26.7628C42.084 25.6508 41.98 24.8348 41.968 24.7428L40.779 24.8968C41.008 26.6608 41.494 31.6018 40.987 33.2668L40.941 33.4198L40.977 33.5748C40.981 33.5918 41.098 34.1138 41.247 34.9628C40.28 35.2338 39.264 35.0168 38.611 34.3668C37.951 33.7088 37.83 32.7478 38.28 31.7288C39.167 29.7218 38.455 28.0848 37.872 27.2068H39.476V19.5468H30.886V27.2068H36.875C37.263 27.6438 38.494 29.2648 37.548 31.4058C36.965 32.7238 37.152 34.0428 38.046 34.9328C38.666 35.5508 39.528 35.8748 40.429 35.8748C40.743 35.8748 41.061 35.8218 41.376 35.7408C41.709 37.8538 42.087 41.2028 41.808 44.3508L41.804 44.4018L41.808 44.4528C41.813 44.5158 42.307 50.6928 41.23 54.1028L41.054 54.6628L41.609 54.8508C42.358 55.1088 43.733 55.7708 44.237 56.4978ZM31.685 26.4048V20.3468H38.675V26.4058L31.685 26.4048ZM42.996 51.0008C43.266 47.9838 43.044 44.8748 43.007 44.4068C43.429 39.5498 42.386 34.4138 42.179 33.4568C42.452 32.3838 42.442 30.5608 42.346 28.8558C43.421 30.0728 45.115 31.7248 47.117 32.7458L48.367 35.0058C48.429 35.3828 48.648 36.2958 49.375 36.6158C49.453 36.6488 49.559 36.6748 49.662 36.6988V50.9858C47.453 50.8748 45.228 50.8818 42.996 51.0008Z"
    stroke="#333333" stroke-width="0.6"/>
</svg>
