<svg width="64" height="66" viewBox="0 0 64 66" fill="none" xmlns="http://www.w3.org/2000/svg">
<path d="M18.2 9.10001C18.2 4.10001 14.1 0 9.10001 0C4.10001 0 0 4 0 9C0 14 4.10001 18.1 9.10001 18.1C14 18.2 18.2 14.2 18.2 9.10001ZM2.10001 9.10001C2.10001 5.20001 5.20001 2.10001 9.10001 2.10001C13 2.10001 16.1 5.29998 16.1 9.19998C16.1 13.1 13 16.2 9.10001 16.2C5.10001 16.1 2.10001 12.9 2.10001 9.10001Z" fill="white"/>
<path d="M8.60001 22.7C8.60001 22.4 8.30001 22.2 8.10001 22.2C7.90001 22.2 7.60001 22.5 7.60001 22.7C7.60001 23.6 6.9 24.3 6 24.3C5.7 24.3 5.5 24.6 5.5 24.8C5.5 25 5.8 25.3 6 25.3C6.9 25.3 7.60001 26 7.60001 26.9C7.60001 27.2 7.90001 27.4 8.10001 27.4C8.30001 27.4 8.60001 27.1 8.60001 26.9C8.60001 26 9.3 25.3 10.2 25.3C10.5 25.3 10.7 25 10.7 24.8C10.7 24.6 10.4 24.3 10.2 24.3C9.3 24.2 8.60001 23.5 8.60001 22.7ZM8.10001 25.2C8.00001 25 7.80001 24.9 7.60001 24.7C7.80001 24.6 7.90001 24.4 8.10001 24.2C8.20001 24.4 8.40001 24.5 8.60001 24.7C8.30001 24.9 8.20001 25 8.10001 25.2Z" fill="white"/>
<path d="M23.7 6.99997C25.1 6.99997 26.3 8.19998 26.3 9.59998C26.3 10.1 26.7 10.5 27.2 10.5C27.7 10.5 28.1001 10.1 28.1001 9.59998C28.1001 8.19998 29.3 6.99997 30.7 6.99997C31.2 6.99997 31.6001 6.59998 31.6001 6.09998C31.6001 5.59998 31.2 5.19995 30.7 5.19995C29.3 5.19995 28.1001 3.99998 28.1001 2.59998C28.1001 2.09998 27.7 1.69995 27.2 1.69995C26.7 1.69995 26.3 2.09998 26.3 2.59998C26.3 3.99998 25.1 5.19995 23.7 5.19995C23.2 5.19995 22.8 5.59998 22.8 6.09998C22.8 6.59998 23.2 6.99997 23.7 6.99997ZM27.1001 5.29996C27.4001 5.59996 27.6 5.89998 27.9 6.09998C27.6 6.29998 27.4001 6.59996 27.1001 6.89996C26.9001 6.59996 26.6 6.39998 26.3 6.09998C26.6 5.89998 26.9001 5.69996 27.1001 5.29996Z" fill="white"/>
<path d="M57.4 53.2C56 53.2 54.8 52 54.8 50.6C54.8 50.1 54.4 49.7 53.9 49.7C53.4 49.7 53 50.1 53 50.6C53 52 51.8 53.2 50.4 53.2C49.9 53.2 49.5 53.6 49.5 54.1C49.5 54.6 49.9 55 50.4 55C51.8 55 53 56.2 53 57.6C53 58.1 53.4 58.5 53.9 58.5C54.4 58.5 54.8 58.1 54.8 57.6C54.8 56.2 56 55 57.4 55C57.9 55 58.3 54.6 58.3 54.1C58.3 53.6 57.9 53.2 57.4 53.2ZM53.9 54.9C53.7 54.6 53.4 54.4 53.1 54.1C53.4 53.9 53.6 53.6 53.9 53.3C54.2 53.6 54.4 53.9 54.7 54.1C54.5 54.3 54.2 54.5 53.9 54.9Z" fill="white"/>
<path d="M61.3 5.59998H41.8C41.5 5.59998 41.3 5.69996 41.1 5.89996L13.1 33.9C12.9 34.1 12.8 34.3 12.8 34.6C12.8 34.9 12.9 35.1 13.1 35.3L18.9 41.1L5.69997 43.8C4.79997 44 3.99997 44.7 3.69997 45.6C3.39997 46.5 3.69997 47.5 4.29997 48.2L20.7 64.6C21.3 65.2 22.1 65.5 22.9 65.5C23.2 65.5 23.5 65.5 23.8 65.4C24.9 65.1 25.7 64.2 25.9 63.1L28.4 50.8L34.3 56.7C34.5 56.9 34.8 57 35 57C35.2 57 35.5 56.9 35.7 56.7L63.7 28.7C63.9 28.5 64 28.3 64 28V8.39996C64 6.89996 62.8 5.59998 61.3 5.59998ZM61.5 28L41.7 8.19995L42.2 7.69995L62 27.5L61.5 28ZM41.6 47.9L35.6 41.9L54.8 22.7L60.8 28.7L41.6 47.9ZM37.4 52.1L31.4 46.1L34.9 42.6L40.9 48.6L37.4 52.1ZM28.2 47.8C28.1 47.8 28.1 47.7 28 47.7C27.8 47.7 27.7 47.7 27.5 47.7L21.8 42C21.8 41.8 21.8 41.7 21.8 41.5L23.6 39.7L29.9 46L28.2 47.8ZM14.7 49L23.1 44.8L24.9 46.6L20.8 55.1L14.7 49ZM21 42.9C21.1 42.9 21.1 42.9 21.1 42.8L22.3 44L13.9 48.2L10.6 44.9L21 42.9ZM24.4 39L34.9 28.5L41.2 34.8L30.7 45.3L24.4 39ZM28.1 21.7L34.2 27.8L23.7 38.3L17.6 32.2L28.1 21.7ZM41 8.89996L54.1 22L42 34.1L28.9 21L41 8.89996ZM43.5 7.59998H53.8L62 15.8V26.1L43.5 7.59998ZM62 8.39996V14.4L55.3 7.69995H61.3C61.7 7.59995 62 7.99996 62 8.39996ZM16.9 33L23 39.1L21.3 40.8L15.2 34.7L16.9 33ZM23.2 63.5C22.8 63.6 22.4 63.5 22.1 63.2L5.69997 46.8C5.49997 46.6 5.49997 46.2999 5.59997 46.2C5.59997 46.1 5.69997 45.9 6.09997 45.8L9.49997 45.1L24.5 60.1L24 62.6C23.9 63.1 23.6 63.4 23.2 63.5ZM24.7 59L21.5 55.8L25.6 47.3L26.8 48.5C26.8 48.5 26.8 48.5 26.8 48.6L24.7 59ZM35 54.5L29 48.5L30.7 46.8L36.7 52.8L35 54.5Z" fill="white"/>
<path d="M37.7999 24.8C38.7999 25.8 39.9999 26.2 41.2999 26.2C42.5999 26.2 43.7999 25.7 44.7999 24.8C46.6999 22.9 46.6999 19.8 44.7999 17.9C42.8999 16 39.7999 16 37.8999 17.9C36.9999 18.8 36.4999 20.1 36.4999 21.4C36.3999 22.7 36.8999 23.9 37.7999 24.8ZM38.4999 18.6C39.2999 17.8 40.2999 17.5 41.2999 17.5C42.2999 17.5 43.2999 17.9 44.0999 18.6C45.5999 20.1 45.5999 22.6 44.0999 24.1C42.5999 25.6 40.0999 25.6 38.5999 24.1C37.8999 23.4 37.4999 22.4 37.4999 21.3C37.3999 20.3 37.7999 19.3 38.4999 18.6Z" fill="white"/>
<path d="M36.4 26.2C37.7 27.5 39.4 28.2 41.3 28.2C43.2 28.2 44.9 27.5 46.2 26.2C48.9 23.5 48.9 19.2 46.2 16.5C44.9 15.2 43.2 14.5 41.3 14.5C39.4 14.5 37.7 15.2 36.4 16.5C33.7 19.2 33.7 23.5 36.4 26.2ZM37.1 17.2C38.2 16.1 39.7 15.5 41.3 15.5C42.9 15.5 44.3 16.1 45.5 17.2C47.8 19.5 47.8 23.2 45.5 25.5C44.4 26.6 42.9 27.2 41.3 27.2C39.7 27.2 38.3 26.6 37.1 25.5C34.8 23.2 34.8 19.5 37.1 17.2Z" fill="white"/>
<path d="M41.7 46.4C41.9761 46.4 42.2 46.1762 42.2 45.9C42.2 45.6239 41.9761 45.4 41.7 45.4C41.4238 45.4 41.2 45.6239 41.2 45.9C41.2 46.1762 41.4238 46.4 41.7 46.4Z" fill="white"/>
<path d="M45.1001 43C45.3762 43 45.6001 42.7761 45.6001 42.5C45.6001 42.2239 45.3762 42 45.1001 42C44.824 42 44.6001 42.2239 44.6001 42.5C44.6001 42.7761 44.824 43 45.1001 43Z" fill="white"/>
<path d="M48.5 39.6C48.7761 39.6 49 39.3761 49 39.1C49 38.8238 48.7761 38.6 48.5 38.6C48.2239 38.6 48 38.8238 48 39.1C48 39.3761 48.2239 39.6 48.5 39.6Z" fill="white"/>
<path d="M52 36.1C52.2761 36.1 52.5 35.8761 52.5 35.6C52.5 35.3238 52.2761 35.1 52 35.1C51.7239 35.1 51.5 35.3238 51.5 35.6C51.5 35.8761 51.7239 36.1 52 36.1Z" fill="white"/>
<path d="M55.3999 32.7C55.676 32.7 55.8999 32.4761 55.8999 32.2C55.8999 31.9238 55.676 31.7 55.3999 31.7C55.1238 31.7 54.8999 31.9238 54.8999 32.2C54.8999 32.4761 55.1238 32.7 55.3999 32.7Z" fill="white"/>
<path d="M58.8 29.3C59.0762 29.3 59.3 29.0761 59.3 28.8C59.3 28.5238 59.0762 28.3 58.8 28.3C58.5239 28.3 58.3 28.5238 58.3 28.8C58.3 29.0761 58.5239 29.3 58.8 29.3Z" fill="white"/>
</svg>
