<svg width="43" height="46" viewBox="0 0 43 46" fill="none" xmlns="http://www.w3.org/2000/svg">
<path d="M16.6188 38.8544L16.6471 36.864L9.41656 28.8835L7.43559 28.7184L4.36035 31.5058L13.5436 41.6418L16.6188 38.8544ZM6.90257 31.9823L6.27055 31.2842L8.03455 29.6853L8.66657 30.3834L6.90257 31.9823ZM13.237 36.713L13.2039 37.1611L12.7511 37.1517C12.6757 37.147 10.8315 37.0857 9.72783 35.8687C8.62886 34.6519 8.74204 32.8124 8.75148 32.7323L8.7798 32.2842L9.23261 32.2936C9.31278 32.2983 11.1569 32.3644 12.2559 33.5766C13.3596 34.7934 13.2417 36.6329 13.237 36.713ZM15.0859 37.463L15.7179 38.1611L13.9492 39.7647L13.3172 39.0619L15.0859 37.463Z" fill="#555555"/>
<path d="M11.9917 45.3633C12.3549 45.7689 12.8784 46 13.4256 46C13.9067 46 14.3689 45.8209 14.7226 45.5001L20.2457 40.4958L20.2882 37.8498L31.0562 28.0958L33.688 28.3128L41.2204 21.4926C42.0128 20.7756 42.0741 19.5494 41.3572 18.7569L29.8676 6.07878C29.5044 5.67312 28.9809 5.44202 28.4337 5.44202C27.9527 5.44202 27.4904 5.61658 27.1367 5.94203L19.6043 12.7669L19.5618 15.4129L8.79386 25.1668L6.15729 24.9498L0.63413 29.9495C0.25209 30.2985 0.030428 30.7749 0.00210929 31.289C-0.0214657 31.8079 0.153047 32.303 0.502071 32.6851L11.9917 45.3633ZM19.3779 35.7745L17.5573 33.7652L19.5666 31.9446L21.3825 33.9539L19.3779 35.7745ZM21.4296 27.0959L19.4251 28.9117L17.6045 26.9072L19.6138 25.0866L21.4296 27.0959ZM21.0428 23.7896L23.0521 21.969L24.868 23.9783L22.8635 25.7989L21.0428 23.7896ZM17.9912 30.2088L15.9867 32.0295L14.166 30.0202L16.1753 28.1996L17.9912 30.2088ZM22.8163 32.6568L20.9957 30.6475L23.005 28.8316L24.8256 30.8362L22.8163 32.6568ZM26.2547 29.5439L24.4341 27.5346L26.4434 25.7139L28.264 27.7232L26.2547 29.5439ZM22.7597 14.196L28.3488 9.1351L38.1641 19.9691L32.5796 25.03L30.2308 24.8367L22.7267 16.5496L22.7597 14.196ZM19.6562 18.2287L21.4768 20.2333L19.4675 22.0539L17.6516 20.0446L19.6562 18.2287ZM16.2178 21.3417L18.0384 23.351L16.0291 25.1669L14.2132 23.1623L16.2178 21.3417ZM12.7794 24.4593L14.6 26.4639L12.5907 28.2845L10.7748 26.2752L12.7794 24.4593ZM7.10532 27.7468L9.8645 27.9732L17.595 36.5056L17.5525 39.2789L13.4774 42.972L3.03011 31.44L7.10532 27.7468Z" fill="#555555"/>
<path d="M29.4432 12.9131L28.5754 11.9509L27.8726 12.583L28.7451 13.5499L29.4432 12.9131Z" fill="#555555"/>
<path d="M30.2296 15.187L30.9277 14.555L30.0559 13.5921L29.3577 14.2242L30.2296 15.187Z" fill="#555555"/>
<path d="M31.7152 16.8229L32.4133 16.1908L31.5415 15.2279L30.8434 15.86L31.7152 16.8229Z" fill="#555555"/>
<path d="M33.1975 18.4645L33.9003 17.8278L33.0277 16.8656L32.3296 17.5023L33.1975 18.4645Z" fill="#555555"/>
<path d="M34.6834 20.1011L35.3815 19.4691L34.5136 18.507L33.8108 19.1389L34.6834 20.1011Z" fill="#555555"/>
<path d="M27.6843 14.5107L26.8118 13.5486L26.1143 14.1812L26.9869 15.1433L27.6843 14.5107Z" fill="#555555"/>
<path d="M27.5991 15.8185L28.4669 16.7807L29.1697 16.1487L28.2972 15.1865L27.5991 15.8185Z" fill="#555555"/>
<path d="M30.6507 17.7853L29.7829 16.8231L29.0801 17.4598L29.9527 18.422L30.6507 17.7853Z" fill="#555555"/>
<path d="M32.1363 19.4284L31.2637 18.4662L30.5661 19.0988L31.4387 20.061L32.1363 19.4284Z" fill="#555555"/>
<path d="M32.0513 20.7332L32.9238 21.7001L33.6219 21.0634L32.7493 20.1012L32.0513 20.7332Z" fill="#555555"/>
<path d="M25.0519 15.144L24.3491 15.7761L25.2217 16.7382L25.9245 16.1062L25.0519 15.144Z" fill="#555555"/>
<path d="M26.533 16.7808L25.835 17.4175L26.7075 18.3797L27.4056 17.7429L26.533 16.7808Z" fill="#555555"/>
<path d="M28.0196 18.4224L27.3215 19.0544L28.1934 20.0173L28.8914 19.3853L28.0196 18.4224Z" fill="#555555"/>
<path d="M29.5044 20.0587L28.8064 20.6908L29.679 21.6577L30.377 21.0209L29.5044 20.0587Z" fill="#555555"/>
<path d="M30.2874 22.3321L31.1599 23.2943L31.8627 22.6622L30.9901 21.7001L30.2874 22.3321Z" fill="#555555"/>
<path d="M33.9333 9.15876L35.1454 8.10224L31.7683 4.3761L30.5562 5.43731L30.5703 5.45149L33.9333 9.15876Z" fill="#555555"/>
<path d="M36.9681 5.37395L34.6522 2.8175L32.9731 4.29856L35.289 6.85966L36.9681 5.37395Z" fill="#555555"/>
<path d="M39.7273 2.26092C39.982 2.02981 40.1329 1.70911 40.1518 1.36483C40.1659 1.02519 40.048 0.694999 39.7933 0.407355C39.3311 -0.0973508 38.4774 -0.139805 37.968 0.317703L35.605 2.4637L37.3595 4.40226L39.7273 2.26092Z" fill="#555555"/>
<path d="M25.6282 44.894C25.8184 44.9032 26.0084 44.9081 26.1982 44.9081C27.2221 44.9081 28.2361 44.7715 29.22 44.5011L28.9699 43.5914C27.9003 43.8855 26.7914 44.0073 25.6747 43.9516L25.6282 44.894Z" fill="#555555"/>
<path d="M29.9941 43.2522L30.3368 44.131C33.2442 42.9972 35.5931 40.6953 36.7812 37.8154L35.9092 37.4557C34.8188 40.0987 32.6627 42.2115 29.9941 43.2522Z" fill="#555555"/>
<path d="M37.2463 36.4475C37.4591 35.6601 37.5876 34.8441 37.6283 34.022L36.686 33.9755C36.6489 34.7302 36.531 35.4791 36.3357 36.2016L37.2463 36.4475Z" fill="#555555"/>
<path d="M25.771 41.996C25.9124 42.0031 26.054 42.0066 26.1957 42.0066C26.73 42.0066 27.2631 41.9566 27.7857 41.8575L27.6097 40.9308C27.022 41.0422 26.4189 41.0839 25.8175 41.0538L25.771 41.996Z" fill="#555555"/>
<path d="M28.6538 40.654L28.9601 41.5462C32.2924 40.4016 34.5571 37.392 34.7303 33.8792L33.7879 33.8326C33.6341 36.9581 31.6187 39.6355 28.6538 40.654Z" fill="#555555"/>
<path d="M25.9141 39.0983C26.0089 39.1029 26.1034 39.1052 26.1976 39.1052C28.2208 39.1052 30.0789 38.0324 31.0957 36.2577L30.2772 35.7888C29.3903 37.3367 27.733 38.2445 25.9606 38.1559L25.9141 39.0983Z" fill="#555555"/>
<path d="M30.573 35.1712L31.4514 35.5158C31.6738 34.9483 31.8019 34.3495 31.8323 33.7362L30.8899 33.6897C30.8648 34.2007 30.7581 34.6994 30.573 35.1712Z" fill="#555555"/>
<path d="M28.9343 33.5932L27.9919 33.5466C27.9684 34.0275 27.7588 34.4704 27.4021 34.7937C27.0454 35.1171 26.5845 35.2854 26.1032 35.258L26.0566 36.2004C26.1029 36.2025 26.1492 36.2036 26.1953 36.2036C26.8774 36.2036 27.5264 35.954 28.0354 35.4927C28.5789 35.0003 28.8981 34.3258 28.9343 33.5932Z" fill="#555555"/>
<path d="M3.93603 15.9607L3.05537 15.6222C2.62173 16.7507 2.37136 17.9402 2.31104 19.158L3.25322 19.2045C3.30847 18.0869 3.53832 16.9955 3.93603 15.9607Z" fill="#555555"/>
<path d="M10.7249 9.65897L10.4527 8.75574C7.4698 9.65485 4.94795 11.7658 3.53369 14.5476L4.37477 14.9751C5.67269 12.4216 7.98726 10.4839 10.7249 9.65897Z" fill="#555555"/>
<path d="M14.2649 9.22826L14.311 8.28588C13.4888 8.24606 12.6643 8.29326 11.8599 8.42752L12.0151 9.35797C12.7533 9.23468 13.5098 9.1905 14.2649 9.22826Z" fill="#555555"/>
<path d="M5.20898 19.301L6.15093 19.3475C6.18088 18.7455 6.2815 18.1495 6.45007 17.576L5.54498 17.3098C5.35547 17.9546 5.24238 18.6246 5.20898 19.301Z" fill="#555555"/>
<path d="M14.1683 11.1838C10.6498 11.0189 7.43772 12.9689 5.9707 16.1716L6.82836 16.5646C8.13371 13.7141 10.9982 11.9721 14.1218 12.1262L14.1683 11.1838Z" fill="#555555"/>
<path d="M11.4436 14.5669C9.49057 15.4432 8.21221 17.3118 8.10693 19.4438L9.04931 19.4903C9.13681 17.7144 10.2022 16.1579 11.8295 15.4273L11.4436 14.5669Z" fill="#555555"/>
<path d="M14.0254 14.0817C13.4102 14.051 12.8038 14.1199 12.217 14.2857L12.4732 15.1935C12.9616 15.056 13.4667 14.9991 13.9789 15.024L14.0254 14.0817Z" fill="#555555"/>
<path d="M13.836 17.922L13.8825 16.9796C12.3717 16.9107 11.0795 18.0749 11.0046 19.5868L11.947 19.6334C11.9959 18.6408 12.8399 17.8639 13.836 17.922Z" fill="#555555"/>
<path d="M24.9243 6.39571L24.3064 5.68347L23.5942 6.30133L24.212 7.01356L24.9243 6.39571Z" fill="#555555"/>
<path d="M22.0757 8.87092L21.4578 8.15869L20.7456 8.78132L21.3635 9.48881L22.0757 8.87092Z" fill="#555555"/>
<path d="M23.4997 7.63618L22.8818 6.92395L22.1696 7.5418L22.7875 8.25404L23.4997 7.63618Z" fill="#555555"/>
<path d="M11.2275 3.58838H10.2842V4.53171H11.2275V3.58838Z" fill="#555555"/>
<path d="M7.45432 3.58838H6.51099V4.53171H7.45432V3.58838Z" fill="#555555"/>
<path d="M5.5676 3.58838H4.62427V4.53171H5.5676V3.58838Z" fill="#555555"/>
<path d="M9.34104 3.58838H8.39771V4.53171H9.34104V3.58838Z" fill="#555555"/>
<path d="M37.2868 28.6807H36.3435V29.624H37.2868V28.6807Z" fill="#555555"/>
<path d="M39.1736 28.6807H38.2302V29.624H39.1736V28.6807Z" fill="#555555"/>
<path d="M41.06 28.6807H40.1167V29.624H41.06V28.6807Z" fill="#555555"/>
<path d="M42.9468 28.6807H42.0034V29.624H42.9468V28.6807Z" fill="#555555"/>
<path d="M1.83713 43.3776H0.893799V44.3209H1.83713V43.3776Z" fill="#555555"/>
<path d="M3.72361 43.3776H2.78027V44.3209H3.72361V43.3776Z" fill="#555555"/>
<path d="M5.61008 43.3776H4.66675V44.3209H5.61008V43.3776Z" fill="#555555"/>
<path d="M40.0791 8.10693H39.1357V9.05027H40.0791V8.10693Z" fill="#555555"/>
<path d="M41.9656 8.10693H41.0222V9.05027H41.9656V8.10693Z" fill="#555555"/>
<path d="M38.1924 8.10693H37.249V9.05027H38.1924V8.10693Z" fill="#555555"/>
</svg>
