<svg width="40" height="40" viewBox="0 0 40 40" fill="none" xmlns="http://www.w3.org/2000/svg">
<path d="M35.901 15.3713H35.0676V27.1448H35.901V15.3713Z" fill="#555555"/>
<path d="M35.901 12.2424H35.0676V14.1272H35.901V12.2424Z" fill="#555555"/>
<path d="M35.901 9.42651H35.0676V11.1493H35.901V9.42651Z" fill="#555555"/>
<path d="M37.9505 23.3254H37.1172V25.1838H37.9505V23.3254Z" fill="#555555"/>
<path d="M37.9505 20.2343H37.1172V22.3455H37.9505V20.2343Z" fill="#555555"/>
<path d="M37.9505 11.3878H37.1172V19.1035H37.9505V11.3878Z" fill="#555555"/>
<path d="M40.0001 17.7841H39.1667V23.6566H40.0001V17.7841Z" fill="#555555"/>
<path d="M40.0001 15.2456H39.1667V16.9387H40.0001V15.2456Z" fill="#555555"/>
<path d="M40.0001 12.9147H39.1667V14.4666H40.0001V12.9147Z" fill="#555555"/>
<path d="M4.93245 15.3713H4.09912V27.1448H4.93245V15.3713Z" fill="#555555"/>
<path d="M4.93245 12.2424H4.09912V14.1272H4.93245V12.2424Z" fill="#555555"/>
<path d="M4.93245 9.42651H4.09912V11.1493H4.93245V9.42651Z" fill="#555555"/>
<path d="M2.88289 23.3254H2.04956V25.1838H2.88289V23.3254Z" fill="#555555"/>
<path d="M2.88289 20.2343H2.04956V22.3455H2.88289V20.2343Z" fill="#555555"/>
<path d="M2.88289 11.3878H2.04956V19.1035H2.88289V11.3878Z" fill="#555555"/>
<path d="M0.833333 17.7841H0V23.6566H0.833333V17.7841Z" fill="#555555"/>
<path d="M0.833333 15.2456H0V16.9387H0.833333V15.2456Z" fill="#555555"/>
<path d="M0.833333 12.9147H0V14.4666H0.833333V12.9147Z" fill="#555555"/>
<path d="M20 36.7741C20.48 36.7741 20.8691 36.385 20.8691 35.905C20.8691 35.425 20.48 35.0359 20 35.0359C19.52 35.0359 19.1309 35.425 19.1309 35.905C19.1309 36.385 19.52 36.7741 20 36.7741Z" fill="#555555"/>
<path d="M9.40693 39.1833H30.5944C32.2403 39.1833 33.5819 37.8458 33.5819 36.1958V2.9875C33.5819 1.34167 32.2403 0 30.5944 0H9.40693C7.7611 0 6.41943 1.34167 6.41943 2.9875V36.1958C6.41939 37.8458 7.76106 39.1833 9.40693 39.1833ZM19.9986 37.6083C19.0611 37.6083 18.2986 36.8417 18.2986 35.9042C18.2986 34.9667 19.0611 34.2042 19.9986 34.2042C20.9402 34.2042 21.7027 34.9667 21.7027 35.9042C21.7027 36.8417 20.9403 37.6083 19.9986 37.6083ZM17.9528 2.42083H22.0444V3.25417H17.9528V2.42083ZM10.1694 5.67083H29.8319V32.6292H10.1694V5.67083Z" fill="#555555"/>
<path d="M25.8377 15.1357L26.6596 14.9978C26.3791 13.3276 25.8676 11.709 25.1392 10.1868L24.3877 10.5465C25.0823 11.9983 25.5702 13.5425 25.8377 15.1357Z" fill="#555555"/>
<path d="M24.7262 9.37663C24.554 9.05884 24.3695 8.74167 24.1777 8.43384L23.4705 8.87492C23.6536 9.1683 23.8293 9.47063 23.9933 9.77338L24.7262 9.37663Z" fill="#555555"/>
<path d="M22.3486 9.35421C21.1361 7.42087 20.0194 6.49167 19.8236 6.27087C19.7694 6.33337 18.3569 7.67087 17.3027 9.35004C18.0402 9.86671 18.9194 10.1417 19.8236 10.1417C20.7319 10.1417 21.611 9.86671 22.3486 9.35421Z" fill="#555555"/>
<path d="M22.7779 10.0708C21.9112 10.6583 20.8779 10.975 19.8237 10.975C18.7695 10.975 17.7404 10.6583 16.8737 10.0708C15.0362 13.3 14.3779 17.0791 15.0112 20.7875C15.2029 21.8875 15.5029 22.9583 15.8987 23.9625C16.232 24.8125 16.6487 25.65 17.1362 26.45L17.257 26.65H22.3904L22.5154 26.45C22.9987 25.65 23.4154 24.8125 23.7487 23.9625C24.1529 22.9291 24.4529 21.8625 24.6362 20.7833C25.2696 17.0791 24.6112 13.3 22.7779 10.0708ZM19.8237 12.4083C20.2529 12.4083 20.5987 12.7583 20.5987 13.1833C20.5987 13.6124 20.2529 13.9624 19.8237 13.9624C19.3946 13.9624 19.0487 13.6124 19.0487 13.1833C19.0487 12.7583 19.3945 12.4083 19.8237 12.4083ZM19.8237 22.9083C19.3946 22.9083 19.0487 22.5625 19.0487 22.1333C19.0487 21.7041 19.3946 21.3541 19.8237 21.3541C20.2529 21.3541 20.5987 21.7041 20.5987 22.1333C20.5987 22.5624 20.2529 22.9083 19.8237 22.9083ZM19.8237 18.9666C19.1029 18.9666 18.5196 18.3791 18.5196 17.6583C18.5196 16.9374 19.1029 16.3541 19.8237 16.3541C20.5446 16.3541 21.1321 16.9374 21.1321 17.6583C21.132 18.3791 20.5445 18.9666 19.8237 18.9666Z" fill="#555555"/>
<path d="M24.5237 24.2666C24.4445 24.4708 24.357 24.6749 24.2695 24.8791C25.5987 25.8916 26.5445 27.3333 26.9404 28.9833L27.3445 30.6708L27.7529 28.9833C27.9029 28.3583 27.982 27.7166 27.982 27.0791C27.982 24.8166 27.0404 22.6708 25.4154 21.1458C25.2237 22.1916 24.9237 23.2415 24.5237 24.2666Z" fill="#555555"/>
<path d="M14.2319 21.15C12.6069 22.6709 11.6694 24.8167 11.6694 27.0792C11.6694 27.7167 11.7444 28.3584 11.8944 28.9834L12.3028 30.6709L12.7069 28.9834C13.1028 27.3334 14.0528 25.8875 15.3819 24.8792C15.2903 24.6792 15.2028 24.4709 15.1236 24.2667C14.7319 23.275 14.432 22.2291 14.2319 21.15Z" fill="#555555"/>
<path d="M17.403 27.4833L16.8572 29.7875L18.6863 28.6583L19.8238 32.2167L20.9613 28.6583L22.7905 29.7875L22.2447 27.4833H17.403Z" fill="#555555"/>
</svg>
