<svg width="13" height="27" viewBox="0 0 13 27" fill="none" xmlns="http://www.w3.org/2000/svg">
<path d="M10.6366 26.0401C10.6366 26.0401 13.0002 26.0401 13.0002 23.6729V2.36718C13.0002 0 10.6366 0 10.6366 0H2.36388C2.36388 0 0.000244141 0 0.000244141 2.36718V23.6729C0.00027702 26.0401 2.36388 26.0401 2.36388 26.0401H10.6366ZM6.50024 25.0545C5.84789 25.0545 5.31844 24.525 5.31844 23.8727C5.31844 23.2203 5.84789 22.6909 6.50024 22.6909C7.15263 22.6909 7.68204 23.2203 7.68204 23.8727C7.68204 24.525 7.15263 25.0545 6.50024 25.0545ZM4.72751 1.44299C4.72751 1.29645 4.79725 1.1818 4.88467 1.1818H8.11575C8.20202 1.1818 8.27294 1.29882 8.27294 1.44299V1.51273C8.27294 1.65927 8.20202 1.77392 8.11575 1.77392H4.88467C4.7984 1.77392 4.72751 1.6569 4.72751 1.51273V1.44299ZM1.18208 2.95453H11.8184V21.8636H1.18208V2.95453Z" fill="white"/>
</svg>
