<svg width="35" height="43" viewBox="0 0 35 43" fill="none" xmlns="http://www.w3.org/2000/svg">
<path d="M1.98502 37.2629C1.95191 37.1709 1.91278 37.0888 1.86935 37.0221C1.82592 36.9563 1.77862 36.9056 1.72745 36.8776C1.67757 36.8488 1.62984 36.845 1.58727 36.8613C1.5447 36.8789 1.50557 36.9168 1.47332 36.9709C1.44064 37.0264 1.41398 37.0991 1.39549 37.1859C1.37743 37.2724 1.36711 37.3739 1.36797 37.4852C1.36797 37.597 1.37786 37.7093 1.39635 37.8172C1.41441 37.9243 1.44064 38.027 1.47332 38.1199C1.50643 38.2119 1.5447 38.2941 1.58813 38.3607C1.63113 38.4274 1.67843 38.4772 1.72831 38.5069C1.77862 38.5366 1.82635 38.5422 1.86935 38.5254C1.91321 38.5091 1.95191 38.4717 1.98502 38.417C2.0177 38.3624 2.04393 38.2898 2.06199 38.2029C2.08005 38.116 2.0908 38.0146 2.0908 37.9019C2.0908 37.7888 2.08005 37.6766 2.06199 37.5678C2.04393 37.4586 2.0177 37.3558 1.98502 37.2629Z" fill="#555555"/>
<path d="M1.47381 27.6726C1.50692 27.7655 1.54519 27.8472 1.58862 27.9139C1.63162 27.9805 1.67892 28.0304 1.7288 28.0601C1.77911 28.0889 1.82684 28.0953 1.86984 28.0786C1.9137 28.0622 1.9524 28.0257 1.98551 27.9702C2.01819 27.9156 2.04442 27.8438 2.06248 27.7561C2.08054 27.6696 2.09129 27.5677 2.09129 27.4551C2.09129 27.342 2.08054 27.2297 2.06248 27.1205C2.04442 27.013 2.01819 26.9098 1.98551 26.8165C1.9524 26.7245 1.91327 26.6428 1.86984 26.5753C1.82641 26.5095 1.77911 26.4587 1.72794 26.4304C1.67763 26.402 1.63033 26.3981 1.58776 26.4149C1.54519 26.4312 1.50606 26.4704 1.47381 26.5245C1.44113 26.5796 1.41447 26.6522 1.39598 26.7391C1.37749 26.826 1.3676 26.9266 1.36846 27.0388C1.36846 27.1502 1.37835 27.262 1.39684 27.3708C1.41576 27.4778 1.44156 27.581 1.47381 27.6726Z" fill="#555555"/>
<path d="M3.31851 32.8323C3.20886 32.5283 3.07685 32.2625 2.93237 32.0492C2.78746 31.8381 2.62836 31.6807 2.46152 31.596C2.29597 31.5113 2.13816 31.5053 1.9954 31.5681C1.85221 31.63 1.72536 31.7607 1.61786 31.9473C1.51208 32.1331 1.42479 32.3739 1.36631 32.6603C1.30783 32.9471 1.27515 33.2782 1.27515 33.6432C1.27515 34.0083 1.30826 34.3738 1.36717 34.7226C1.42651 35.0717 1.51208 35.4054 1.61786 35.7034C1.72407 36.0031 1.85135 36.2688 1.99282 36.4843C2.13429 36.6993 2.29038 36.8639 2.45636 36.9573C2.62062 37.0514 2.77843 37.0661 2.92334 37.0145C3.06782 36.9598 3.19897 36.8382 3.30905 36.6563C3.41956 36.4739 3.50986 36.2336 3.57307 35.9442C3.63585 35.6548 3.67154 35.3172 3.6724 34.9423C3.67326 34.5682 3.63972 34.1924 3.57823 33.8342C3.51846 33.476 3.42859 33.1363 3.31851 32.8323Z" fill="#555555"/>
<path d="M34.4697 38.3031L30.0623 24.1501V12.5934C30.0623 5.75297 24.6748 0 17.8348 0H16.8931C10.0522 0 4.59249 5.75297 4.59249 12.5934V20.511C2.9314 20.5136 0.965443 20.5166 0.967593 20.5166C0.685083 20.499 0.119203 20.9216 0.114903 21.5774L9.29687e-05 37.9638C-0.00678703 38.9976 0.369033 40.0678 0.847193 40.3564L5.42626 42.9282C5.53204 42.9918 5.63137 43.0052 5.72425 42.9858C5.70103 42.991 5.67824 43 5.6533 43L14.1252 42.444C14.4868 42.4431 14.7508 41.8764 14.7598 40.994C14.7641 40.6677 14.7276 40.3181 14.6511 39.9664L14.2107 38.4936C15.075 38.6845 15.972 38.7585 16.8926 38.7585H17.8343C18.8646 38.7585 19.8661 38.66 20.8233 38.4222C20.9037 38.5237 20.9858 38.6256 21.0744 38.6798L25.3305 41.2589C25.4367 41.3226 25.5361 41.3398 25.6294 41.3196C25.6062 41.3247 25.5838 41.3346 25.5597 41.3346L34.0316 40.7799C34.3936 40.7799 34.6138 40.214 34.6233 39.3308C34.6271 39.004 34.5459 38.6549 34.4697 38.3031ZM27.9148 26.8565C27.0561 27.3841 25.3181 27.9767 22.4556 28.3443C22.2401 28.3723 22.3106 28.3946 21.7572 28.4187C21.7572 28.0923 21.7572 27.9096 21.7572 26.9399C22.3106 26.9098 22.3683 26.8819 22.6469 26.8458C23.6995 26.7107 25.2033 26.3646 25.2033 26.3646C25.5004 26.301 25.6328 25.9987 25.6328 25.6938V24.4958C25.6328 24.1905 25.5266 24.0043 25.2312 24.0809C25.2312 24.0809 23.8118 24.4537 22.2965 24.6489C22.118 24.673 22.3102 24.6936 21.7568 24.7112C21.7568 24.381 21.7568 24.0172 21.7568 23.6143C22.3102 23.5851 22.3678 23.5567 22.6465 23.521C23.6991 23.3851 25.2028 23.039 25.2028 23.039C25.5 22.9758 25.6315 22.6739 25.6315 22.3695V21.1702C25.6315 20.8658 25.5253 20.6791 25.2299 20.7557C25.2299 20.7557 23.8109 21.1289 22.2947 21.3246C22.1176 21.3473 22.3098 21.3676 21.7564 21.3861C21.7564 20.4861 21.7564 19.4575 21.7564 18.2849C22.3098 18.2574 22.232 18.2316 22.4861 18.1993C23.8187 18.0278 26.1858 17.6193 27.8469 16.7967V26.4145C27.8469 26.5456 27.9208 26.6742 27.9161 26.8045C27.9161 26.8217 27.9157 26.8389 27.9148 26.8565ZM17.3945 26.5792C16.0124 26.5792 13.6492 26.3981 13.6492 26.3981C13.4969 26.3869 13.4514 26.2532 13.4514 26.1014V25.8198C13.4514 25.6676 13.4969 25.5489 13.6492 25.5545C13.6492 25.5545 19.5191 25.8129 22.3119 25.4526C23.3104 25.3231 24.7664 25.0213 24.7664 25.0213C24.9156 24.9895 25.079 25.0884 25.079 25.2406V25.5381C25.079 25.6903 24.8949 25.8404 24.747 25.871C24.747 25.871 23.3586 26.1535 22.41 26.2756C20.8456 26.4777 19.1093 26.5792 17.3945 26.5792ZM17.3945 23.254C16.012 23.254 13.6492 23.0725 13.6492 23.0725C13.4969 23.0605 13.4514 22.9272 13.4514 22.775V22.4942C13.4514 22.3419 13.4969 22.2224 13.6492 22.2293C13.6492 22.2293 19.5169 22.4869 22.3119 22.1278C23.3095 21.9988 24.7664 21.6961 24.7664 21.6961C24.9156 21.6643 25.079 21.7632 25.079 21.9154V22.2129C25.079 22.3652 24.8949 22.5152 24.747 22.5458C24.747 22.5458 23.3586 22.8278 22.41 22.9504C20.8443 23.1525 19.1093 23.254 17.3945 23.254ZM27.8478 12.5934V13.6495C27.2939 14.1969 25.4011 14.8333 22.3919 15.222C22.1825 15.2491 22.0122 15.2702 21.8007 15.2934C21.7972 14.7322 21.8123 14.1758 21.7994 13.6301C22.8008 12.8721 23.4622 11.6745 23.4622 10.3213C23.4622 8.67353 22.5041 7.25496 21.1148 6.58416C20.7695 5.00219 20.2724 3.54922 19.5599 2.48669C24.3123 3.34712 27.8478 7.59509 27.8478 12.5934ZM19.5715 7.73441C20.9123 7.73441 21.9993 8.82145 21.9993 10.1622C21.9993 11.5029 20.9123 12.5895 19.5715 12.5895C18.2317 12.5895 17.1442 11.5029 17.1442 10.1622C17.1442 8.82145 18.2312 7.73441 19.5715 7.73441ZM6.80742 12.5934C6.80742 7.22529 10.9316 2.73308 16.2038 2.34995C16.6033 3.12008 17.0436 4.45609 17.3854 6.60179C16.067 7.29753 15.1675 8.70363 15.1675 10.2985C15.1675 12.1122 16.3324 13.662 17.9522 14.2274C17.9595 14.6432 17.9633 15.0784 17.9659 15.5217C13.5012 15.5772 9.1836 14.9464 7.11745 13.8198C6.98243 13.7462 6.80742 13.6749 6.80742 13.6005V12.5934ZM6.80742 14.8784C9.02192 15.9857 13.1319 16.6333 17.5084 16.6333C19.2353 16.6333 20.8861 16.5322 22.5325 16.3198C23.8651 16.1482 26.1867 15.7397 27.8478 14.9171V15.5282C27.2939 16.076 25.4011 16.712 22.3919 17.1007C16.6626 17.8407 9.84451 17.2125 7.07359 15.7019C6.93814 15.6288 6.80742 15.554 6.80742 15.4796V14.8784ZM5.43185 41.8644L1.17442 39.2908C0.969743 39.1661 0.805053 38.7047 0.807633 38.2631L0.912123 21.8793C0.912983 21.6987 0.981783 21.5942 1.06649 21.6466C1.11981 21.678 1.16969 21.7722 1.19764 21.8969L5.03711 37.8675C5.02722 37.8602 5.01862 37.8499 5.00873 37.8443C4.92746 37.7992 4.84963 37.7914 4.77825 37.8176C4.70816 37.8439 4.64409 37.9019 4.5912 37.9883C4.53702 38.0748 4.49359 38.1896 4.46435 38.3255C4.43425 38.4631 4.41748 38.6217 4.41705 38.7989C4.41662 38.9748 4.43253 39.1515 4.46177 39.3209C4.49058 39.4908 4.53315 39.6525 4.58518 39.7982C4.6385 39.9449 4.70085 40.0751 4.77137 40.1805C4.84103 40.2858 4.91843 40.368 4.99927 40.4153C5.08011 40.4621 5.15794 40.4716 5.22846 40.4471C5.29898 40.423 5.36305 40.3663 5.41809 40.2811C5.46969 40.1998 5.51097 40.0915 5.5415 39.9629L5.74661 40.8147C5.77757 40.9579 5.79348 41.1076 5.79262 41.2516C5.78789 41.7229 5.63395 41.9869 5.43185 41.8644ZM8.49216 20.5587C8.43153 20.5226 8.42379 20.505 8.36832 20.505C8.36832 20.505 7.91424 20.5067 6.80699 20.508V16.758C9.02149 17.8652 13.1332 18.5132 17.5088 18.5128C17.6645 18.5128 17.8808 18.5076 17.8808 18.5059C17.8808 19.6252 17.8808 20.6232 17.8808 21.5219C15.6659 21.5155 13.3602 21.3947 13.3602 21.3947C13.0562 21.377 12.8971 21.6127 12.8971 21.9171V23.0428C12.8971 23.3473 13.0996 23.6165 13.4032 23.6418C13.4032 23.6418 15.8138 23.8461 17.4061 23.8461C17.5854 23.8461 17.8808 23.8405 17.8808 23.8379C17.8808 24.1957 17.8808 24.5345 17.8808 24.8467C15.6659 24.8407 13.3602 24.7198 13.3602 24.7198C13.0562 24.7035 12.8971 24.9387 12.8971 25.2432V26.3685C12.8971 26.6729 13.0996 26.9425 13.4032 26.9679C13.4032 26.9679 15.8138 27.1721 17.4061 27.1721C17.5854 27.1721 17.8808 27.1661 17.8808 27.164C17.8808 27.8705 17.8808 28.3439 17.8808 28.6513C15.6826 28.6814 13.0738 28.5026 11.0464 28.1525L11.0429 28.1413L9.0417 21.583C8.92775 21.0868 8.71791 20.6959 8.49216 20.5587ZM13.4372 35.9729L11.4033 29.3157C13.254 29.6021 15.3666 29.7573 17.5041 29.7573C17.6413 29.7573 17.7845 29.7521 17.9225 29.7513C17.8047 31.12 17.4164 34.701 16.4631 36.5522C15.404 36.5079 14.3888 36.3178 13.4372 35.9729ZM16.4652 36.5526C16.6071 36.5582 16.749 36.5436 16.8926 36.5436C16.7482 36.5436 16.6084 36.5582 16.4652 36.5526ZM20.1486 36.2929C21.2068 34.4318 21.7706 31.2012 21.8402 29.532C22.1085 29.504 22.379 29.4774 22.6426 29.4434C23.9154 29.2796 26.1914 28.8969 27.8215 28.1457C27.1275 32.1726 24.0913 35.3628 20.1486 36.2929ZM25.34 40.2011L21.9095 38.1281C23.0283 37.7385 24.0719 37.192 25.0192 36.5169L25.6539 39.1524C25.684 39.2951 25.7008 39.4461 25.6995 39.5892C25.6956 40.0605 25.5412 40.3232 25.34 40.2011Z" fill="#555555"/>
</svg>
