<svg width="31" height="51" viewBox="0 0 31 51" fill="none" xmlns="http://www.w3.org/2000/svg">
<path d="M26.6515 11.5266C25.1529 9.88524 23.5829 8.76129 21.9416 8.15472C20.3359 7.54814 18.4092 7.24485 16.1613 7.24485V25.0675C18.2308 25.4956 20.0862 25.9595 21.7275 26.459C23.4045 26.9229 24.8317 27.5295 26.0092 28.2788C27.1867 29.0281 28.0787 29.9558 28.6853 31.0619C29.3275 32.168 29.6486 33.5417 29.6486 35.183C29.6486 38.2872 28.4533 40.66 26.0627 42.3014C23.7078 43.9427 20.443 44.7633 16.2683 44.7633H16.1613V49.4732H15.0908V44.7098C12.3077 44.6028 9.8279 44.0854 7.65137 43.1577C5.47483 42.1943 3.42318 40.7671 1.49641 38.876L2.29923 38.1802C4.11895 40.0356 6.04572 41.4093 8.07954 42.3014C10.149 43.1934 12.4861 43.7107 15.0908 43.8535V25.8168C13.0927 25.4243 11.3265 25.0139 9.79222 24.5858C8.29362 24.1219 7.00911 23.551 5.93868 22.8731C4.90393 22.1595 4.11895 21.3031 3.58374 20.3041C3.04853 19.2693 2.78092 17.9848 2.78092 16.4505C2.78092 13.2749 3.88703 10.8308 6.09924 9.1181C8.31146 7.36974 11.3087 6.42419 15.0908 6.28147V0.875808H16.1613V6.22795C18.5519 6.26363 20.6392 6.63828 22.4233 7.3519C24.2073 8.02983 25.8486 9.17162 27.3472 10.7773L26.6515 11.5266ZM28.5782 35.3436C28.5782 33.952 28.3285 32.7567 27.8289 31.7576C27.3294 30.7586 26.5623 29.9201 25.5275 29.2421C24.5284 28.5285 23.2439 27.9219 21.674 27.4224C20.1397 26.9229 18.3021 26.459 16.1613 26.0309V43.8535H16.3218C20.104 43.8535 23.0834 43.1577 25.2599 41.7661C27.4721 40.3389 28.5782 38.198 28.5782 35.3436ZM3.85135 16.3435C3.85135 17.6637 4.06543 18.7698 4.4936 19.6618C4.92177 20.5538 5.58187 21.321 6.47389 21.9632C7.4016 22.5698 8.56123 23.0872 9.95278 23.5153C11.38 23.9435 13.0927 24.3717 15.0908 24.7999V7.29837C13.0927 7.36974 11.38 7.63734 9.95278 8.1012C8.56123 8.56505 7.4016 9.18946 6.47389 9.97444C5.58187 10.7594 4.92177 11.6871 4.4936 12.7576C4.06543 13.828 3.85135 15.0233 3.85135 16.3435Z" fill="#777777"/>
<path d="M26.6515 11.5266L26.014 12.1086L26.6461 12.801L27.284 12.114L26.6515 11.5266ZM21.9416 8.15472L21.6365 8.96228L21.6423 8.96444L21.9416 8.15472ZM16.1613 7.24485V6.3816H15.298V7.24485H16.1613ZM16.1613 25.0675H15.298V25.7704L15.9864 25.9128L16.1613 25.0675ZM21.7275 26.459L21.4761 27.2849L21.4867 27.2881L21.4974 27.291L21.7275 26.459ZM26.0092 28.2788L26.4727 27.5505L26.0092 28.2788ZM28.6853 31.0619L27.9284 31.4769L27.9334 31.4862L27.9387 31.4953L28.6853 31.0619ZM26.0627 42.3013L25.5741 41.5897L25.5691 41.5931L26.0627 42.3013ZM16.1613 44.7633V43.9001H15.298V44.7633H16.1613ZM16.1613 49.4732V50.3365H17.0245V49.4732H16.1613ZM15.0908 49.4732H14.2276V50.3365H15.0908V49.4732ZM15.0908 44.7098H15.9541V43.8791L15.124 43.8472L15.0908 44.7098ZM7.65137 43.1577L7.30194 43.9471L7.31289 43.9518L7.65137 43.1577ZM1.49641 38.876L0.93104 38.2236L0.223837 38.8365L0.89173 39.4921L1.49641 38.876ZM2.29923 38.1802L2.91553 37.5758L2.34721 36.9963L1.73386 37.5279L2.29923 38.1802ZM8.07954 42.3013L7.7328 43.0919L7.73784 43.0941L8.07954 42.3013ZM15.0908 43.8535L15.0436 44.7154L15.9541 44.7653V43.8535H15.0908ZM15.0908 25.8168H15.9541V25.1066L15.2572 24.9697L15.0908 25.8168ZM9.79222 24.5858L9.53697 25.4104L9.54853 25.414L9.56018 25.4173L9.79222 24.5858ZM5.93868 22.8731L5.44859 23.5837L5.46251 23.5933L5.4768 23.6024L5.93868 22.8731ZM3.58374 20.3041L2.81691 20.7007L2.8228 20.7117L3.58374 20.3041ZM6.09924 9.1181L6.62773 9.80073L6.63451 9.79537L6.09924 9.1181ZM15.0908 6.28147L15.1234 7.1441L15.9541 7.11275V6.28147H15.0908ZM15.0908 0.875808V0.0125599H14.2276V0.875808H15.0908ZM16.1613 0.875808H17.0245V0.0125599H16.1613V0.875808ZM16.1613 6.22795H15.298V7.07841L16.1484 7.0911L16.1613 6.22795ZM22.4233 7.3519L22.1027 8.1534L22.1096 8.15619L22.1166 8.15885L22.4233 7.3519ZM27.3472 10.7773L27.9798 11.3647L28.5267 10.7758L27.9783 10.1883L27.3472 10.7773ZM27.8289 31.7576L27.0568 32.1437L27.8289 31.7576ZM25.5275 29.2421L25.0258 29.9446L25.0399 29.9547L25.0544 29.9642L25.5275 29.2421ZM21.674 27.4224L21.4067 28.2433L21.4122 28.245L21.674 27.4224ZM16.1613 26.0309L16.3306 25.1844L15.298 24.9779V26.0309H16.1613ZM16.1613 43.8535H15.298V44.7167H16.1613V43.8535ZM25.2599 41.7661L25.7249 42.4935L25.7279 42.4915L25.2599 41.7661ZM6.4739 21.9632L5.9695 22.6638L5.98524 22.6751L6.00148 22.6857L6.4739 21.9632ZM9.95278 23.5154L9.69891 24.3404L9.70473 24.3422L9.95278 23.5154ZM15.0908 24.7999L14.91 25.6439L15.9541 25.8677V24.7999H15.0908ZM15.0908 7.29837H15.9541V6.40374L15.06 6.43567L15.0908 7.29837ZM9.95278 8.1012L9.68596 7.28019L9.6798 7.28225L9.95278 8.1012ZM6.4739 9.97444L5.91629 9.31545L5.90989 9.32086L5.90361 9.32639L6.4739 9.97444ZM4.4936 12.7576L3.6921 12.437H3.6921L4.4936 12.7576ZM27.2889 10.9445C25.7219 9.22816 24.0417 8.01052 22.2408 7.34499L21.6423 8.96444C23.1241 9.51206 24.5838 10.5423 26.014 12.1086L27.2889 10.9445ZM22.2466 7.34717C20.5185 6.69432 18.4828 6.3816 16.1613 6.3816V8.1081C18.3355 8.1081 20.1533 8.40196 21.6365 8.96226L22.2466 7.34717ZM15.298 7.24485V25.0675H17.0245V7.24485H15.298ZM15.9864 25.9128C18.0357 26.3368 19.865 26.7945 21.4761 27.2849L21.9788 25.6332C20.3074 25.1245 18.4258 24.6545 16.3362 24.2221L15.9864 25.9128ZM21.4974 27.291C23.1113 27.7374 24.4557 28.3134 25.5457 29.007L26.4727 27.5505C25.2077 26.7455 23.6977 26.1083 21.9576 25.627L21.4974 27.291ZM25.5457 29.007C26.6139 29.6868 27.3989 30.5114 27.9284 31.4769L29.4422 30.6468C28.7585 29.4001 27.7594 28.3693 26.4727 27.5505L25.5457 29.007ZM27.9387 31.4953C28.4858 32.4375 28.7854 33.6517 28.7854 35.183H30.5119C30.5119 33.4317 30.1692 31.8985 29.4318 30.6284L27.9387 31.4953ZM28.7854 35.183C28.7854 38.0265 27.7113 40.1223 25.5741 41.5897L26.5513 43.013C29.1953 41.1977 30.5119 38.548 30.5119 35.183H28.7854ZM25.5691 41.5931C23.4111 43.0972 20.343 43.9001 16.2683 43.9001V45.6266C20.543 45.6266 24.0044 44.7882 26.5563 43.0096L25.5691 41.5931ZM16.2683 43.9001H16.1613V45.6266H16.2683V43.9001ZM15.298 44.7633V49.4732H17.0245V44.7633H15.298ZM16.1613 48.61H15.0908V50.3365H16.1613V48.61ZM15.9541 49.4732V44.7098H14.2276V49.4732H15.9541ZM15.124 43.8472C12.4277 43.7435 10.0541 43.2434 7.98984 42.3636L7.31289 43.9518C9.60166 44.9274 12.1877 45.462 15.0577 45.5724L15.124 43.8472ZM8.00076 42.3683C5.93087 41.4521 3.9637 40.088 2.10108 38.2599L0.89173 39.4921C2.88266 41.4461 5.01879 42.9365 7.30197 43.9471L8.00076 42.3683ZM2.06177 39.5283L2.8646 38.8326L1.73386 37.5279L0.93104 38.2236L2.06177 39.5283ZM1.68292 38.7847C3.56688 40.7056 5.58245 42.1488 7.7328 43.0919L8.42627 41.5108C6.509 40.6699 4.67103 39.3657 2.91553 37.5758L1.68292 38.7847ZM7.73784 43.0941C9.91409 44.0321 12.3532 44.568 15.0436 44.7154L15.1381 42.9915C12.6191 42.8535 10.384 42.3546 8.42124 41.5086L7.73784 43.0941ZM15.9541 43.8535V25.8168H14.2276V43.8535H15.9541ZM15.2572 24.9697C13.2754 24.5804 11.5319 24.175 10.0243 23.7543L9.56018 25.4173C11.1211 25.8529 12.91 26.2681 14.9244 26.6638L15.2572 24.9697ZM10.0475 23.7611C8.60513 23.3147 7.39349 22.7727 6.40056 22.1438L5.4768 23.6024C6.62473 24.3294 7.98211 24.9292 9.53697 25.4104L10.0475 23.7611ZM6.42878 22.1625C5.49462 21.5182 4.80819 20.7616 4.34468 19.8964L2.8228 20.7117C3.42972 21.8446 4.31325 22.8007 5.44859 23.5837L6.42878 22.1625ZM4.35049 19.9075C3.89555 19.0279 3.64417 17.8889 3.64417 16.4505H1.91767C1.91767 18.0807 2.2015 19.5107 2.81699 20.7007L4.35049 19.9075ZM3.64417 16.4505C3.64417 13.501 4.65711 11.3263 6.6277 9.80069L5.57079 8.43551C3.11695 10.3353 1.91767 13.0489 1.91767 16.4505H3.64417ZM6.63451 9.79537C8.66109 8.19371 11.4623 7.28225 15.1234 7.1441L15.0583 5.41883C11.155 5.56613 7.96183 6.54576 5.56398 8.44083L6.63451 9.79537ZM15.9541 6.28147V0.875808H14.2276V6.28147H15.9541ZM15.0908 1.73906H16.1613V0.0125599H15.0908V1.73906ZM15.298 0.875808V6.22795H17.0245V0.875808H15.298ZM16.1484 7.0911C18.4583 7.12558 20.4372 7.48723 22.1027 8.1534L22.7439 6.55039C20.8412 5.78932 18.6454 5.40168 16.1741 5.36479L16.1484 7.0911ZM22.1166 8.15885C23.7599 8.7833 25.294 9.84256 26.7162 11.3663L27.9783 10.1883C26.4032 8.50069 24.6547 7.27637 22.7299 6.54495L22.1166 8.15885ZM26.7146 10.1899L26.0189 10.9392L27.284 12.114L27.9798 11.3647L26.7146 10.1899ZM29.4415 35.3436C29.4415 33.8502 29.1734 32.5163 28.601 31.3716L27.0568 32.1437C27.4835 32.9971 27.715 34.0538 27.715 35.3436H29.4415ZM28.601 31.3716C28.0261 30.2218 27.1489 29.2724 26.0006 28.5201L25.0544 29.9642C25.9756 30.5678 26.6327 31.2954 27.0568 32.1437L28.601 31.3716ZM26.0293 28.5397C24.9368 27.7593 23.5641 27.1179 21.9357 26.5998L21.4122 28.245C22.9238 28.726 24.1201 29.2977 25.0258 29.9446L26.0293 28.5397ZM21.9412 26.6016C20.3659 26.0887 18.4938 25.617 16.3306 25.1844L15.992 26.8773C18.1104 27.301 19.9135 27.7571 21.4067 28.2432L21.9412 26.6016ZM15.298 26.0309V43.8535H17.0245V26.0309H15.298ZM16.1613 44.7167H16.3218V42.9902H16.1613V44.7167ZM16.3218 44.7167C20.1967 44.7167 23.3592 44.0059 25.7249 42.4934L24.7949 41.0388C22.8075 42.3094 20.0113 42.9902 16.3218 42.9902V44.7167ZM25.7279 42.4915C28.2103 40.89 29.4415 38.4618 29.4415 35.3436H27.715C27.715 37.9343 26.734 39.7878 24.7919 41.0408L25.7279 42.4915ZM2.9881 16.3435C2.9881 17.7518 3.21579 18.9946 3.71537 20.0354L5.27184 19.2883C4.91507 18.545 4.7146 17.5756 4.7146 16.3435H2.9881ZM3.71537 20.0354C4.21273 21.0715 4.97353 21.9467 5.9695 22.6638L6.97829 21.2627C6.19022 20.6953 5.63082 20.0361 5.27184 19.2883L3.71537 20.0354ZM6.00148 22.6857C7.01423 23.3479 8.25277 23.8955 9.69892 24.3404L10.2067 22.6903C8.86969 22.2789 7.78897 21.7917 6.94631 21.2407L6.00148 22.6857ZM9.70473 24.3422C11.1605 24.7789 12.8969 25.2126 14.91 25.6439L15.2717 23.9558C13.2885 23.5308 11.5995 23.1081 10.2008 22.6885L9.70473 24.3422ZM15.9541 24.7999V7.29837H14.2276V24.7999H15.9541ZM15.06 6.43567C13.0065 6.50902 11.21 6.78489 9.68597 7.28022L10.2196 8.92217C11.55 8.4898 13.1789 8.23046 15.1216 8.16107L15.06 6.43567ZM9.6798 7.28225C8.20509 7.77382 6.94323 8.4465 5.91629 9.31545L7.0315 10.6334C7.85997 9.93243 8.91737 9.35627 10.2258 8.92015L9.6798 7.28225ZM5.90361 9.32639C4.91311 10.198 4.17215 11.2368 3.6921 12.437L5.29511 13.0782C5.6714 12.1374 6.25063 11.3208 7.04418 10.6225L5.90361 9.32639ZM3.6921 12.437C3.21766 13.623 2.9881 14.9293 2.9881 16.3435H4.7146C4.7146 15.1173 4.9132 14.0329 5.29511 13.0782L3.6921 12.437Z" fill="#777777"/>
</svg>
