<svg width="57" height="46" viewBox="0 0 57 46" fill="none" xmlns="http://www.w3.org/2000/svg">
<path d="M56.4614 28.6586V28.658C56.4598 27.5768 55.5841 26.6957 54.5021 26.6957C54.4125 26.6957 54.3261 26.7028 54.2429 26.7153L47.331 13.5122C47.6843 13.1418 47.9059 12.6408 47.9059 12.0847C47.9059 10.9375 46.9733 10.0056 45.8269 10.0056C45.7172 10.0056 45.6116 10.0155 45.5103 10.0326L42.745 4.75017C43.0982 4.3797 43.3193 3.87864 43.3193 3.32269C43.3193 2.17561 42.3874 1.24367 41.2403 1.24367C40.0925 1.24367 39.1613 2.17571 39.1613 3.32269C39.1613 4.46977 40.0932 5.40171 41.2403 5.40171C41.3498 5.40171 41.4554 5.39188 41.5566 5.37476L44.3215 10.6568C43.9677 11.0275 43.7473 11.5291 43.7473 12.0847C43.7473 12.4148 43.8268 12.7242 43.9635 12.9982L28.0699 28.8913C27.8204 28.7738 27.5414 28.7064 27.2452 28.7064C26.1644 28.7064 25.2859 29.5859 25.2859 30.6663C25.2859 30.9632 25.3538 31.2417 25.4712 31.4906L15.879 41.0833C15.6057 40.9471 15.2964 40.8668 14.9658 40.8668C14.0522 40.8668 13.2833 41.4584 13.0046 42.2747H5.0385C4.7649 41.5256 4.04946 40.9871 3.20296 40.9871C2.122 40.9871 1.24367 41.8667 1.24367 42.9476C1.24367 44.0277 2.12244 44.9063 3.20296 44.9063C4.04938 44.9063 4.76467 44.3675 5.03835 43.6192H13.0048C13.2834 44.4346 14.0521 45.0272 14.9658 45.0272C16.1128 45.0272 17.0448 44.0959 17.0448 42.9482C17.0448 42.6185 16.9653 42.3088 16.8286 42.0346L26.42 32.4432C26.6695 32.5614 26.9488 32.6292 27.2452 32.6292C27.7548 32.6292 28.2144 32.4317 28.5598 32.1156L41.5941 38.9396C41.5769 39.0414 41.5671 39.1473 41.5671 39.2571C41.5671 40.4042 42.4991 41.3361 43.6462 41.3361C44.7932 41.3361 45.7252 40.4042 45.7252 39.2571C45.7252 38.9348 45.6498 38.6332 45.5199 38.3646L53.656 30.4212C53.9096 30.5454 54.1957 30.6185 54.5027 30.6185C55.583 30.6185 56.4614 29.7389 56.4614 28.6586ZM40.7423 3.32269C40.7423 3.04847 40.9659 2.82466 41.2403 2.82466C41.5133 2.82466 41.7377 3.04823 41.7377 3.32269C41.7377 3.59751 41.5142 3.82072 41.2403 3.82072C40.9657 3.82072 40.7423 3.59732 40.7423 3.32269ZM3.20296 43.5629C2.86292 43.5629 2.58581 43.2861 2.58581 42.9458C2.58581 42.6059 2.86308 42.3286 3.20296 42.3286C3.54285 42.3286 3.82012 42.6059 3.82012 42.9458C3.82012 43.2863 3.54345 43.5629 3.20296 43.5629ZM46.3243 12.0847C46.3243 12.3581 46.101 12.5821 45.8263 12.5821C45.5531 12.5821 45.3295 12.3589 45.3295 12.0847C45.3295 11.8099 45.553 11.5866 45.8263 11.5866C46.1008 11.5866 46.3243 11.8104 46.3243 12.0847ZM14.9658 43.442C14.6916 43.442 14.4684 43.219 14.4684 42.9446C14.4684 42.6706 14.6923 42.4465 14.9658 42.4465C15.2396 42.4465 15.4632 42.6698 15.4632 42.9446C15.4632 43.219 15.24 43.442 14.9658 43.442ZM27.2452 31.2835C26.9053 31.2835 26.6281 31.0062 26.6281 30.6663C26.6281 30.3264 26.9053 30.0492 27.2452 30.0492C27.5851 30.0492 27.8624 30.3264 27.8624 30.6663C27.8624 31.0062 27.5851 31.2835 27.2452 31.2835ZM42.2195 37.7489L29.1851 30.925C29.1974 30.8422 29.2045 30.756 29.2045 30.6663C29.2045 30.3692 29.1363 30.0904 29.0187 29.8415L44.9132 13.9469C45.1873 14.0837 45.4971 14.1631 45.8269 14.1631C45.936 14.1631 46.0416 14.1534 46.143 14.1364L53.0557 27.3415C52.7395 27.6869 52.5422 28.1469 52.5422 28.6562C52.5422 28.9447 52.606 29.2163 52.7173 29.4604L44.5824 37.4026C44.3031 37.259 43.986 37.1751 43.6468 37.1751C43.0909 37.1751 42.5899 37.3961 42.2195 37.7489ZM43.6468 39.7509C43.3727 39.7509 43.1493 39.5281 43.1493 39.2529C43.1493 38.9775 43.3723 38.7549 43.6468 38.7549C43.9212 38.7549 44.1442 38.9775 44.1442 39.2529C44.1442 39.5281 43.9208 39.7509 43.6468 39.7509ZM54.5021 29.2733C54.1624 29.2733 53.8849 28.9956 53.8849 28.6562C53.8849 28.3158 54.162 28.039 54.5021 28.039C54.8426 28.039 55.1192 28.3157 55.1192 28.6562C55.1192 28.9952 54.8416 29.2733 54.5021 29.2733Z" fill="#777777" stroke="#777777" stroke-width="0.863248"/>
</svg>
