<svg width="43" height="44" viewBox="0 0 43 44" fill="none" xmlns="http://www.w3.org/2000/svg">
<path d="M24.7731 0.593384L24.5815 1.50921C24.8759 1.56995 25.1703 1.64472 25.4553 1.72415L25.7123 0.822341C25.4086 0.738234 25.0909 0.6588 24.7731 0.593384Z" fill="#555555"/>
<path d="M26.3149 1.99991C26.6 2.1027 26.885 2.21485 27.1513 2.33166L27.5298 1.47658C27.2401 1.35042 26.9411 1.22893 26.6327 1.12146L26.3149 1.99991Z" fill="#555555"/>
<path d="M27.9597 2.72875C28.2261 2.86893 28.483 3.02312 28.7307 3.18199L29.24 2.39699C28.9737 2.22411 28.6886 2.06057 28.4036 1.90637L27.9597 2.72875Z" fill="#555555"/>
<path d="M31.6557 9.67687C31.623 10.7843 31.2679 11.8216 30.6511 12.7421H33.1556V6.16309H30.5576C31.3099 7.23778 31.693 8.43864 31.6557 9.67687Z" fill="#555555"/>
<path d="M13.3159 1.58401C13.3159 0.710233 12.6103 0 11.7366 0C10.8628 0 10.1572 0.710233 10.1572 1.58401C10.1572 2.22882 10.5684 3.33155 11.2693 3.682H11.2693V6.16314H10.4469V12.7421H13.1243C12.316 11.6394 11.9048 10.3965 11.9422 9.11622C11.9749 8.05554 12.3066 7.05561 12.8907 6.16314H12.2039V3.68195C12.9047 3.33146 13.3159 2.22882 13.3159 1.58401ZM11.7366 2.86897C11.5403 2.86897 11.0917 2.12135 11.0917 1.58401C11.0917 1.22422 11.3814 0.934518 11.7366 0.934518C12.0917 0.934518 12.3814 1.22422 12.3814 1.58401C12.3814 2.12135 11.9328 2.86897 11.7366 2.86897Z" fill="#555555"/>
<path d="M21.689 13.2608C21.7871 13.2608 21.8852 13.2655 21.9834 13.2655C25.2729 13.2655 28.2072 11.5413 28.2633 9.57884C28.296 8.43406 27.3568 7.53692 26.7914 7.10704C25.5579 6.15851 23.7776 5.58845 21.9086 5.53238C21.8105 5.53238 21.7123 5.52771 21.6189 5.52771C18.3247 5.52771 15.3903 7.25189 15.3343 9.21438C15.2782 11.2329 18.3061 13.1627 21.689 13.2608ZM24.6795 8.04156C25.2355 8.04156 25.6841 8.4948 25.6841 9.05084C25.6841 9.60688 25.2355 10.0601 24.6795 10.0601C24.1234 10.0601 23.6702 9.60688 23.6702 9.05084C23.6702 8.4948 24.1234 8.04156 24.6795 8.04156ZM18.9229 8.04156C19.4789 8.04156 19.9275 8.4948 19.9275 9.05084C19.9275 9.60688 19.4789 10.0601 18.9229 10.0601C18.3668 10.0601 17.9136 9.60688 17.9136 9.05084C17.9136 8.4948 18.3668 8.04156 18.9229 8.04156Z" fill="#555555"/>
<path d="M12.8766 9.14431C12.8298 10.8031 13.6943 12.3964 15.311 13.6347C16.7548 14.7467 18.6425 15.4523 20.7031 15.6579V18.3446C19.0864 18.6484 17.5585 19.5875 16.1801 20.994L12.8298 26.6945H30.7679L27.4177 20.994C26.0392 19.5875 24.5113 18.6484 22.8946 18.3446V15.6813C27.2635 15.3682 30.6277 12.8357 30.7212 9.64895C30.7679 7.99018 29.9035 6.39683 28.2914 5.15392C26.628 3.88298 24.3898 3.14471 21.9788 3.07462C21.8573 3.06995 21.7358 3.06995 21.6143 3.06995C16.8156 3.06995 12.9746 5.73799 12.8766 9.14431ZM23.4085 22.9798C23.4085 23.8676 22.6843 24.5872 21.8012 24.5872C20.9134 24.5872 20.1938 23.8676 20.1938 22.9798C20.1938 22.0967 20.9134 21.3725 21.8012 21.3725C22.6843 21.3725 23.4085 22.0967 23.4085 22.9798ZM21.9367 4.59788C23.9973 4.65863 25.9738 5.30344 27.3615 6.36412C28.0671 6.90614 29.2399 8.04625 29.1979 9.6069C29.1231 12.1394 25.8897 14.2001 21.9834 14.2001C21.8759 14.2001 21.7684 14.1954 21.661 14.1954C17.6519 14.0786 14.3297 11.7843 14.4044 9.18636C14.4745 6.58373 17.8855 4.49041 21.9367 4.59788Z" fill="#555555"/>
<path d="M31.319 27.6267H12.2797L11.3507 29.2064C11.0898 29.9159 10.849 30.6424 10.6306 31.3828H32.9675C32.749 30.6418 32.5079 29.9146 32.2468 29.2045L31.319 27.6267Z" fill="#555555"/>
<path d="M33.511 27.1862C33.8028 26.0959 33.5327 24.677 32.7887 23.3911C31.8875 21.8276 30.4538 20.7776 29.2209 20.7776C28.9742 20.7776 28.7472 20.8271 28.5374 20.9131C30.2458 22.8406 31.7168 25.4043 32.8526 28.2784C33.1577 28.0253 33.3855 27.6548 33.511 27.1862Z" fill="#555555"/>
<path d="M10.0876 27.1862C10.2127 27.6536 10.4397 28.0232 10.746 28.2778C11.8816 25.4039 13.3525 22.8406 15.0608 20.9132C14.8505 20.8271 14.6237 20.7776 14.3776 20.7776C13.1449 20.7776 11.7112 21.8276 10.8102 23.3904C10.066 24.677 9.79584 26.0959 10.0876 27.1862Z" fill="#555555"/>
<path d="M9.1665 40.3897H11.6874H17.062H26.5361H31.9107H34.4316C34.3997 39.2754 34.3042 38.1442 34.1568 37.0128H9.44135C9.29393 38.1442 9.19842 39.2753 9.1665 40.3897Z" fill="#555555"/>
<path d="M34.0226 36.0783C33.8236 34.8112 33.5576 33.5503 33.2294 32.3174H10.3687C10.0405 33.5503 9.77449 34.8112 9.57544 36.0783H34.0226Z" fill="#555555"/>
<path d="M27.4707 42.1716C27.4707 43.1381 28.2569 43.9243 29.2234 43.9243C30.1899 43.9243 30.9763 43.1381 30.9763 42.1716V41.3242H27.4707V42.1716H27.4707Z" fill="#555555"/>
<path d="M14.3749 43.9243C15.3414 43.9243 16.1276 43.1381 16.1276 42.1716V41.3242H12.6221V42.1716C12.622 43.1381 13.4085 43.9243 14.3749 43.9243Z" fill="#555555"/>
<path d="M6.1695 17.5048V16.3148H7.35952V15.3802H6.1695V14.1902H5.23498V15.3802H4.04492V16.3148H5.23498V17.5048H6.1695Z" fill="#555555"/>
<path d="M2.12458 37.2143V36.0242H3.31464V35.0897H2.12458V33.8997H1.19006V35.0897H0V36.0242H1.19006V37.2143H2.12458Z" fill="#555555"/>
<path d="M35.3414 14.9154V16.1055H34.1514V17.04H35.3414V18.23H36.2759V17.04H37.466V16.1055H36.2759V14.9154H35.3414Z" fill="#555555"/>
<path d="M42.8144 33.75H41.6243V32.5599H40.6898V33.75H39.4998V34.6845H40.6898V35.8746H41.6243V34.6845H42.8144V33.75Z" fill="#555555"/>
<path d="M5.10615 23.2555H4.17163V24.19H5.10615V23.2555Z" fill="#555555"/>
<path d="M1.36811 23.2555H0.433594V24.19H1.36811V23.2555Z" fill="#555555"/>
<path d="M3.23701 23.2555H2.30249V24.19H3.23701V23.2555Z" fill="#555555"/>
<path d="M37.6179 23.7228H36.6833V24.6573H37.6179V23.7228Z" fill="#555555"/>
<path d="M41.3559 23.7228H40.4214V24.6573H41.3559V23.7228Z" fill="#555555"/>
<path d="M39.4868 23.7228H38.5522V24.6573H39.4868V23.7228Z" fill="#555555"/>
<path d="M39.9169 3.62598H38.9824V4.56049H39.9169V3.62598Z" fill="#555555"/>
<path d="M41.7858 3.62598H40.8513V4.56049H41.7858V3.62598Z" fill="#555555"/>
<path d="M38.0478 3.62598H37.1133V4.56049H38.0478V3.62598Z" fill="#555555"/>
<path d="M7.4936 5.55103H6.55908V6.48554H7.4936V5.55103Z" fill="#555555"/>
<path d="M5.6247 5.55103H4.69019V6.48554H5.6247V5.55103Z" fill="#555555"/>
<path d="M3.75556 5.55103H2.82104V6.48554H3.75556V5.55103Z" fill="#555555"/>
</svg>
