<svg width="44" height="44" viewBox="0 0 44 44" fill="none" xmlns="http://www.w3.org/2000/svg">
<path d="M25.6272 39.7136C25.6272 40.6398 24.8732 41.3938 23.9517 41.3938V42.3246C24.8732 42.3246 25.6272 43.0786 25.6272 44.0001H26.558C26.558 43.0785 27.3119 42.3246 28.2381 42.3246V41.3938C27.3119 41.3938 26.558 40.6398 26.558 39.7136H25.6272Z" fill="#555555"/>
<path d="M9.88712 0H8.9563V0.930822H9.88712V0Z" fill="#555555"/>
<path d="M29.7927 4.63559L30.0952 3.75131C29.0946 3.41622 28.0567 3.15559 27.0142 2.98804L26.8652 3.9049C27.8566 4.06779 28.8432 4.31446 29.7927 4.63559Z" fill="#555555"/>
<path d="M1.0861 31.1128H0.155273V32.0436H1.0861V31.1128Z" fill="#555555"/>
<path d="M13.6105 0H12.6797V0.930822H13.6105V0Z" fill="#555555"/>
<path d="M41.4884 9.0802H40.5576V10.011H41.4884V9.0802Z" fill="#555555"/>
<path d="M15.5929 40.8073H14.6621V41.7381H15.5929V40.8073Z" fill="#555555"/>
<path d="M41.2979 35.9111V34.9803C40.3764 34.9803 39.6224 34.2263 39.6224 33.3002H38.6916C38.6916 34.2263 37.9376 34.9803 37.0115 34.9803V35.9111C37.9376 35.9111 38.6916 36.6651 38.6916 37.5866H39.6224C39.6224 36.6651 40.3764 35.9111 41.2979 35.9111Z" fill="#555555"/>
<path d="M11.7487 0H10.8179V0.930822H11.7487V0Z" fill="#555555"/>
<path d="M37.2438 40.2208H36.313V41.1516H37.2438V40.2208Z" fill="#555555"/>
<path d="M33.5207 40.2208H32.5898V41.1516H33.5207V40.2208Z" fill="#555555"/>
<path d="M17.8503 38.3639L17.976 37.4424C17.3988 37.3632 16.8217 37.2562 16.2539 37.1212L16.0352 38.0241C16.6356 38.1684 17.2453 38.28 17.8503 38.3639Z" fill="#555555"/>
<path d="M11.8698 40.8073H10.939V41.7381H11.8698V40.8073Z" fill="#555555"/>
<path d="M2.94767 31.1128H2.01685V32.0436H2.94767V31.1128Z" fill="#555555"/>
<path d="M15.3464 36.8792C13.0938 36.209 11.0413 35.1246 9.25411 33.6539L8.66309 34.3707C10.548 35.9251 12.7076 37.0654 15.0811 37.7682L15.3464 36.8792Z" fill="#555555"/>
<path d="M4.80948 31.1128H3.87866V32.0436H4.80948V31.1128Z" fill="#555555"/>
<path d="M20.3775 38.5361V37.6053C19.912 37.6053 19.4373 37.5867 18.9719 37.5494L18.9021 38.4803C19.3907 38.5175 19.8841 38.5361 20.3775 38.5361Z" fill="#555555"/>
<path d="M14.3688 6.43201C16.6168 5.0032 19.2184 4.09099 21.8945 3.78847L21.7875 2.8623C18.9764 3.18344 16.235 4.14219 13.8708 5.64546L14.3688 6.43201Z" fill="#555555"/>
<path d="M39.6266 9.0802H38.6958V10.011H39.6266V9.0802Z" fill="#555555"/>
<path d="M9.87783 32.8952C12.796 35.2968 16.5286 36.6231 20.3775 36.6231C25.4602 36.6231 30.6179 34.2412 33.4091 29.9631C35.7454 26.3748 35.0752 21.6555 31.8778 19.2261C29.5306 17.4376 26.7285 18.5012 24.7384 20.7527C22.2066 23.6243 19.5118 25.2253 16.7333 25.5138C13.2381 25.8768 10.4037 24.9926 8.33732 22.8936C4.38133 18.8817 4.43722 11.6958 4.43722 11.6213C4.44188 11.3886 4.27428 11.1931 4.04158 11.1559C3.81818 11.1187 3.59478 11.2583 3.52497 11.4817C1.06299 19.5845 3.43654 27.5896 9.87783 32.8952Z" fill="#555555"/>
<path d="M34.4515 8.86149C31.5288 6.45997 27.8008 5.13354 23.9518 5.13354C18.415 5.13354 13.472 7.86532 10.9203 11.7936C8.57929 15.3819 9.25409 20.0965 12.4515 22.5306C14.7969 24.3176 17.6018 23.2587 19.5863 20.9994C22.1228 18.1325 24.8129 16.5315 27.5914 16.2429C31.0866 15.8799 33.9209 16.7642 35.992 18.8632C39.948 22.875 39.8921 30.061 39.8921 30.1354C39.8875 30.3635 40.0551 30.5636 40.2831 30.6008C40.3064 30.6055 40.3296 30.6055 40.3576 30.6055C40.5576 30.6055 40.7392 30.4752 40.7997 30.275C43.2664 22.1722 40.8882 14.1671 34.4515 8.86149Z" fill="#555555"/>
<path d="M5.87055 2.14563C5.87055 3.06714 5.12124 3.82111 4.19507 3.82111V4.75193C5.12124 4.75193 5.87055 5.5059 5.87055 6.43207H6.80137C6.80137 5.5059 7.55534 4.75193 8.4815 4.75193V3.82111C7.55534 3.82111 6.80137 3.06714 6.80137 2.14563H5.87055Z" fill="#555555"/>
<path d="M43.35 9.0802H42.4192V10.011H43.35V9.0802Z" fill="#555555"/>
<path d="M13.7314 40.8073H12.8005V41.7381H13.7314V40.8073Z" fill="#555555"/>
<path d="M5.60997 37.6518C4.6838 37.6518 3.93444 36.8978 3.93444 35.9717H3.00362C3.00362 36.8978 2.24965 37.6518 1.32349 37.6518V38.5826C2.24965 38.5826 3.00362 39.3319 3.00362 40.2581H3.93444C3.93444 39.3319 4.6838 38.5826 5.60997 38.5826V37.6518Z" fill="#555555"/>
<path d="M23.1232 3.69072C23.9423 3.65349 24.7848 3.67211 25.6085 3.74657L25.6923 2.82041C24.8266 2.74129 23.9423 2.72267 23.0767 2.7599L23.1232 3.69072Z" fill="#555555"/>
<path d="M41.2979 4.75193V3.82111C40.3764 3.82111 39.6224 3.06714 39.6224 2.14563H38.6916C38.6916 3.06714 37.9376 3.82111 37.0115 3.82111V4.75193C37.9376 4.75193 38.6916 5.5059 38.6916 6.43207H39.6224C39.6224 5.5059 40.3764 4.75193 41.2979 4.75193Z" fill="#555555"/>
<path d="M35.3825 40.2208H34.4517V41.1516H35.3825V40.2208Z" fill="#555555"/>
</svg>
