<svg width="20" height="19" viewBox="0 0 20 19" fill="none" xmlns="http://www.w3.org/2000/svg">
<g clip-path="url(#clip0)">
<path d="M4.57773 6.08569H0.404785V18.9147H4.57773V6.08569Z" fill="white"/>
<path d="M15.9442 6.23614C15.8999 6.22215 15.8579 6.20699 15.8112 6.19416C15.7552 6.18133 15.6993 6.17083 15.6421 6.1615C15.4205 6.11718 15.1779 6.08569 14.8934 6.08569C12.4605 6.08569 10.9175 7.85494 10.409 8.53838V6.08569H6.23608V18.9147H10.409V11.9171C10.409 11.9171 13.5626 7.52488 14.8934 10.7508C14.8934 13.6303 14.8934 18.9147 14.8934 18.9147H19.0651V10.2575C19.0651 8.31911 17.7367 6.70382 15.9442 6.23614Z" fill="white"/>
<path d="M2.44577 4.33637C3.57298 4.33637 4.48676 3.42259 4.48676 2.29538C4.48676 1.16818 3.57298 0.254395 2.44577 0.254395C1.31857 0.254395 0.404785 1.16818 0.404785 2.29538C0.404785 3.42259 1.31857 4.33637 2.44577 4.33637Z" fill="white"/>
</g>
<defs>
<clipPath id="clip0">
<rect width="18.6604" height="18.6604" fill="white" transform="translate(0.404785 0.254395)"/>
</clipPath>
</defs>
</svg>
