<svg width="94" height="94" viewBox="0 0 100 94" fill="none" xmlns="http://www.w3.org/2000/svg">
  <path
    d="M48.206 40.6909L48.0999 40.5849L47.9939 40.6909L40.8559 47.8279L40.7498 47.934L40.8559 48.0401L45.8999 53.0831L46.0059 53.1891L46.112 53.0831L53.25 45.9461L53.3561 45.84L53.25 45.7339L48.206 40.6909ZM46.0059 51.6339L42.3051 47.934L48.0999 42.1401L51.8008 45.84L46.0059 51.6339Z"
    fill="currentColor" stroke="#333333" stroke-width="0.3"/>
  <path d="M57.857 31.217V31.067H57.707H56.906H56.756V31.217V36.322V36.472H56.906H57.707H57.857V36.322V31.217Z"
        fill="currentColor" stroke="#333333" stroke-width="0.3"/>
  <path d="M83.982 5.30603V5.15603H83.832H83.031H82.881V5.30603V10.412V10.562H83.031H83.832H83.982V10.412V5.30603Z"
        fill="currentColor" stroke="#333333" stroke-width="0.3"/>
  <path d="M81.845 9.64001V9.49001H81.695H80.894H80.744V9.64001V16.977V17.127H80.894H81.695H81.845V16.977V9.64001Z"
        fill="currentColor" stroke="#333333" stroke-width="0.3"/>
  <path d="M60.4998 34.459V34.309H60.3498H59.5488H59.3988V34.459V37.105V37.255H59.5488H60.3498H60.4998V37.105V34.459Z"
        fill="currentColor" stroke="#333333" stroke-width="0.3"/>
  <path d="M70.3289 19.763V19.613H70.1789H69.3779H69.2279V19.763V28.071V28.221H69.3779H70.1789H70.3289V28.071V19.763Z"
        fill="currentColor" stroke="#333333" stroke-width="0.3"/>
  <path d="M36.9442 57.374V57.224H36.7942H35.9932H35.8432V57.374V62.479V62.629H35.9932H36.7942H36.9442V62.479V57.374Z"
        fill="currentColor" stroke="#333333" stroke-width="0.3"/>
  <path d="M10.8201 83.285V83.135H10.6701H9.86914H9.71914V83.285V88.39V88.54H9.86914H10.6701H10.8201V88.39V83.285Z"
        fill="currentColor" stroke="#333333" stroke-width="0.3"/>
  <path d="M12.9539 76.72V76.57H12.8039H12.0029H11.8529V76.72V84.057V84.207H12.0029H12.8039H12.9539V84.057V76.72Z"
        fill="currentColor" stroke="#333333" stroke-width="0.3"/>
  <path d="M34.2991 56.592V56.442H34.1491H33.3481H33.1981V56.592V59.238V59.388H33.3481H34.1491H34.2991V59.238V56.592Z"
        fill="currentColor" stroke="#333333" stroke-width="0.3"/>
  <path d="M24.47 65.624V65.474H24.32H23.519H23.369V65.624V73.933V74.083H23.519H24.32H24.47V73.933V65.624Z"
        fill="currentColor" stroke="#333333" stroke-width="0.3"/>
  <path
    d="M50.989 54.2628L50.9892 54.2631C51.5346 54.8096 51.5346 55.6973 50.9903 56.2439L50.9901 56.2441C50.7167 56.5175 50.3569 56.654 49.9971 56.654C49.6393 56.654 49.2794 56.5176 49.0079 56.245L50.989 54.2628ZM50.989 54.2628C50.4444 53.7193 49.5548 53.7186 49.0064 54.2625L49.0064 54.2625M50.989 54.2628L49.0064 54.2625M49.0064 54.2625L49.0058 54.2632M49.0064 54.2625L49.0058 54.2632M49.0058 54.2632C48.4614 54.8098 48.4615 55.6974 49.0078 56.2449L49.0058 54.2632ZM49.7864 55.4662L49.7858 55.4656C49.6676 55.3481 49.668 55.1575 49.7848 55.0414L49.7851 55.0411C49.8439 54.9823 49.9212 54.953 49.9971 54.953C50.0755 54.953 50.1512 54.9821 50.2114 55.0415C50.3295 55.159 50.3292 55.3496 50.2141 55.4658C50.0936 55.5845 49.9037 55.5842 49.7864 55.4662Z"
    fill="currentColor" stroke="#333333" stroke-width="0.3"/>
  <path
    d="M51.656 51.6158L51.6559 51.6159C51.3917 51.8801 51.246 52.2333 51.246 52.606C51.246 52.9797 51.3918 53.3319 51.6559 53.5961C51.9292 53.8693 52.2869 54.006 52.647 54.006C53.0067 54.006 53.3654 53.8696 53.6369 53.5982C53.9024 53.3338 54.048 52.9795 54.048 52.606C54.048 52.2332 53.9022 51.8813 53.6395 51.6164L53.6395 51.6164L53.6389 51.6158C53.1064 51.0844 52.1886 51.0844 51.656 51.6158ZM52.4325 52.8183L52.4324 52.8183C52.375 52.7615 52.344 52.6869 52.344 52.607C52.344 52.5284 52.3747 52.4534 52.4331 52.3951C52.4915 52.3366 52.5656 52.306 52.645 52.306C52.7244 52.306 52.7985 52.3366 52.8569 52.3951L52.8569 52.3951L52.8582 52.3963C52.9146 52.4514 52.946 52.5274 52.946 52.607L52.946 52.6082C52.9467 52.6875 52.9168 52.7609 52.8591 52.8188C52.7407 52.9363 52.5521 52.9367 52.4325 52.8183Z"
    fill="currentColor" stroke="#333333" stroke-width="0.3"/>
  <path
    d="M56.6959 49.959C56.6959 49.5854 56.5493 49.2313 56.2862 48.9681C55.7555 48.4352 54.8364 48.4344 54.3029 48.9679C53.7572 49.5136 53.7575 50.4015 54.3027 50.9489C54.5672 51.2145 54.9206 51.359 55.2939 51.359H55.2959C55.6703 51.359 56.02 51.2118 56.2846 50.9495L56.285 50.9491C56.549 50.6851 56.6959 50.3331 56.6959 49.959ZM55.0846 50.1716L55.0846 50.1716L55.084 50.171C54.9665 50.0534 54.9668 49.8626 55.0827 49.7464C55.1415 49.6884 55.2169 49.657 55.297 49.657C55.3756 49.657 55.451 49.6879 55.5095 49.7457C55.5664 49.802 55.5975 49.8758 55.5979 49.9562C55.5954 50.0405 55.5648 50.115 55.5089 50.171C55.4506 50.2293 55.3755 50.26 55.297 50.26C55.2159 50.26 55.1413 50.2289 55.0846 50.1716Z"
    fill="currentColor" stroke="#333333" stroke-width="0.3"/>
  <mask id="path-15-outside-1" width="94" height="94" fill="black">
    <rect fill="white" width="94" height="94"/>
<path d="M73.242 60.113L72.816 59.689C69.295 56.168 63.628 56.084 59.988 59.419L58.549 57.982L63.973 52.559L54.242 42.827L56.699 40.371L59.549 43.22L92.699 10.07L83.629 1L50.479 34.15L53.329 36.999L50.872 39.456L42.777 31.361L39.501 34.638L33.691 28.827L33.125 29.392L38.935 35.203L35.81 38.328L32.671 35.19L32.105 35.755L35.245 38.893L31.366 42.772L39.461 50.867L37.003 53.324L34.154 50.475L1 83.628L10.07 92.698L43.22 59.547L40.37 56.698L42.827 54.239L52.558 63.97L57.982 58.547L59.42 59.985C56.084 63.624 56.168 69.292 59.691 72.814L60.116 73.239L62.518 70.835L69.539 70.387L72.062 72.909L72.91 72.06L70.387 69.536L70.836 62.515L73.242 60.113ZM62.8 23.525L73.001 13.323L80.079 20.399L80.374 20.694L70.173 30.897L63.442 24.167L62.8 23.525ZM80.941 20.129L73.568 12.757L83.629 2.697L91.002 10.07L80.941 20.129ZM62.236 24.09L62.531 24.385L69.607 31.462L59.547 41.522L52.174 34.15L62.236 24.09ZM53.892 37.565L56.133 39.806L53.675 42.262L51.435 40.022L53.892 37.565ZM23.526 62.8L30.898 70.173L20.697 80.374L17.009 76.687L13.323 73L23.526 62.8ZM12.757 73.568L16.444 77.255L20.131 80.942L10.071 91.003L2.698 83.63L12.757 73.568ZM31.464 69.607L24.091 62.234L34.151 52.174L41.524 59.547L31.464 69.607ZM39.806 56.132L37.566 53.891L40.023 51.434L42.263 53.674L39.806 56.132ZM37.874 47.588L45.059 40.403L44.211 39.554L37.025 46.739L33.059 42.773L42.774 33.057L46.881 37.164L45.929 38.116L46.495 38.681L47.447 37.73L62.276 52.559L52.56 62.274L37.874 47.588ZM60.538 60.537C62.114 58.961 64.184 58.175 66.253 58.175C68.135 58.175 70.018 58.826 71.526 60.129L60.13 71.526C57.395 68.355 57.533 63.546 60.538 60.537ZM63.374 69.978L66.253 67.1L68.786 69.633L63.374 69.978ZM69.633 68.785L67.101 66.252L69.98 63.375L69.633 68.785Z"/>
</mask>
<path d="M73.242 60.113L72.816 59.689C69.295 56.168 63.628 56.084 59.988 59.419L58.549 57.982L63.973 52.559L54.242 42.827L56.699 40.371L59.549 43.22L92.699 10.07L83.629 1L50.479 34.15L53.329 36.999L50.872 39.456L42.777 31.361L39.501 34.638L33.691 28.827L33.125 29.392L38.935 35.203L35.81 38.328L32.671 35.19L32.105 35.755L35.245 38.893L31.366 42.772L39.461 50.867L37.003 53.324L34.154 50.475L1 83.628L10.07 92.698L43.22 59.547L40.37 56.698L42.827 54.239L52.558 63.97L57.982 58.547L59.42 59.985C56.084 63.624 56.168 69.292 59.691 72.814L60.116 73.239L62.518 70.835L69.539 70.387L72.062 72.909L72.91 72.06L70.387 69.536L70.836 62.515L73.242 60.113ZM62.8 23.525L73.001 13.323L80.079 20.399L80.374 20.694L70.173 30.897L63.442 24.167L62.8 23.525ZM80.941 20.129L73.568 12.757L83.629 2.697L91.002 10.07L80.941 20.129ZM62.236 24.09L62.531 24.385L69.607 31.462L59.547 41.522L52.174 34.15L62.236 24.09ZM53.892 37.565L56.133 39.806L53.675 42.262L51.435 40.022L53.892 37.565ZM23.526 62.8L30.898 70.173L20.697 80.374L17.009 76.687L13.323 73L23.526 62.8ZM12.757 73.568L16.444 77.255L20.131 80.942L10.071 91.003L2.698 83.63L12.757 73.568ZM31.464 69.607L24.091 62.234L34.151 52.174L41.524 59.547L31.464 69.607ZM39.806 56.132L37.566 53.891L40.023 51.434L42.263 53.674L39.806 56.132ZM37.874 47.588L45.059 40.403L44.211 39.554L37.025 46.739L33.059 42.773L42.774 33.057L46.881 37.164L45.929 38.116L46.495 38.681L47.447 37.73L62.276 52.559L52.56 62.274L37.874 47.588ZM60.538 60.537C62.114 58.961 64.184 58.175 66.253 58.175C68.135 58.175 70.018 58.826 71.526 60.129L60.13 71.526C57.395 68.355 57.533 63.546 60.538 60.537ZM63.374 69.978L66.253 67.1L68.786 69.633L63.374 69.978ZM69.633 68.785L67.101 66.252L69.98 63.375L69.633 68.785Z" fill="#333333"/>
  <path
    d="M73.242 60.113L72.816 59.689C69.295 56.168 63.628 56.084 59.988 59.419L58.549 57.982L63.973 52.559L54.242 42.827L56.699 40.371L59.549 43.22L92.699 10.07L83.629 1L50.479 34.15L53.329 36.999L50.872 39.456L42.777 31.361L39.501 34.638L33.691 28.827L33.125 29.392L38.935 35.203L35.81 38.328L32.671 35.19L32.105 35.755L35.245 38.893L31.366 42.772L39.461 50.867L37.003 53.324L34.154 50.475L1 83.628L10.07 92.698L43.22 59.547L40.37 56.698L42.827 54.239L52.558 63.97L57.982 58.547L59.42 59.985C56.084 63.624 56.168 69.292 59.691 72.814L60.116 73.239L62.518 70.835L69.539 70.387L72.062 72.909L72.91 72.06L70.387 69.536L70.836 62.515L73.242 60.113ZM62.8 23.525L73.001 13.323L80.079 20.399L80.374 20.694L70.173 30.897L63.442 24.167L62.8 23.525ZM80.941 20.129L73.568 12.757L83.629 2.697L91.002 10.07L80.941 20.129ZM62.236 24.09L62.531 24.385L69.607 31.462L59.547 41.522L52.174 34.15L62.236 24.09ZM53.892 37.565L56.133 39.806L53.675 42.262L51.435 40.022L53.892 37.565ZM23.526 62.8L30.898 70.173L20.697 80.374L17.009 76.687L13.323 73L23.526 62.8ZM12.757 73.568L16.444 77.255L20.131 80.942L10.071 91.003L2.698 83.63L12.757 73.568ZM31.464 69.607L24.091 62.234L34.151 52.174L41.524 59.547L31.464 69.607ZM39.806 56.132L37.566 53.891L40.023 51.434L42.263 53.674L39.806 56.132ZM37.874 47.588L45.059 40.403L44.211 39.554L37.025 46.739L33.059 42.773L42.774 33.057L46.881 37.164L45.929 38.116L46.495 38.681L47.447 37.73L62.276 52.559L52.56 62.274L37.874 47.588ZM60.538 60.537C62.114 58.961 64.184 58.175 66.253 58.175C68.135 58.175 70.018 58.826 71.526 60.129L60.13 71.526C57.395 68.355 57.533 63.546 60.538 60.537ZM63.374 69.978L66.253 67.1L68.786 69.633L63.374 69.978ZM69.633 68.785L67.101 66.252L69.98 63.375L69.633 68.785Z"
    stroke="#333333" stroke-width="0.6" mask="url(#path-15-outside-1)"/>
</svg>
