<svg width="40" height="31" viewBox="0 0 40 31" fill="none" xmlns="http://www.w3.org/2000/svg">
<mask id="path-1-outside-1" maskUnits="userSpaceOnUse" x="0" y="0" width="40" height="31" fill="black">
<rect fill="white" width="40" height="31"/>
<path d="M1 12.445C1.13374 12.6078 4.33688 16.4317 8.34079 16.4611C8.35635 16.4611 8.37149 16.4611 8.38705 16.4611C10.3941 16.4615 12.2354 15.4929 13.8609 13.5831C15.5377 11.6118 17.4619 10.5267 19.577 10.3589C22.6577 10.1142 25.283 11.8978 26.0249 12.458L25.3372 13.1457C24.6328 13.8502 24.4452 14.3174 24.7038 14.8133C23.591 15.0656 21.8103 15.6692 20.6188 17.068C20.3849 17.2657 18.171 19.1612 17.2411 20.8082C16.6607 20.8284 14.6449 20.9912 14.1132 22.2975L14.0216 22.5221L18.1151 24.3764L18.2307 24.1859C18.7993 23.2552 19.0475 22.9696 19.1186 22.8968C20.8968 22.2891 22.9803 19.9553 23.2608 19.6344C23.808 19.3278 24.4612 19.2727 25.0946 19.2201C25.3642 19.1974 25.6279 19.1764 25.8768 19.1347C25.296 19.8009 24.6601 20.6089 24.1394 21.4702C23.845 21.7314 21.6879 23.6871 21.0343 25.4418C20.8274 25.5297 20.3925 25.7648 19.5724 26.3839L19.4012 26.513L21.486 30.466L21.7085 30.3491C22.9277 29.7068 23.0695 27.948 23.0838 27.4059C24.7383 26.4907 26.652 24.299 26.8534 24.0673C28.3187 22.8497 29.538 21.2654 30.1604 20.3864C30.4136 20.6232 30.6378 20.7822 30.9171 20.812C30.9448 20.8154 30.9743 20.8162 31.0024 20.8162C31.357 20.8162 31.7275 20.5925 32.2532 20.0663L32.4408 19.8788C32.4829 20.3784 32.5691 20.8944 32.726 21.3819L32.3441 22.6882C32.244 22.8249 31.982 23.2346 32.1216 23.5941C32.2146 23.8372 32.5577 24.2339 33.0309 24.3508C33.11 24.3714 33.2008 24.384 33.3022 24.384C33.539 24.384 33.8279 24.307 34.1261 24.0467C34.884 23.3847 34.8793 22.0224 34.865 21.6721C35.8151 20.1656 35.8841 18.2961 35.8875 17.9024C36.234 17.2871 36.3695 16.5991 36.3909 15.9304L37.6783 14.6442C38.7218 13.5995 38.5413 13.1293 37.9361 12.4871C37.9782 12.4496 38.019 12.4139 38.061 12.3727C39.5928 10.8548 39.7173 8.48778 38.3394 7.09566C37.6674 6.41769 36.7509 6.0644 35.7436 6.11571C34.7515 6.16114 33.7985 6.58971 33.0599 7.32067C33.0086 7.37156 32.967 7.42203 32.9211 7.4725C32.2755 6.86224 31.8066 6.67803 30.7581 7.72611L30.417 8.06636C29.8194 7.77995 29.4 7.67354 29.2343 7.63989C29.1763 7.0944 28.9277 5.28255 28.087 3.83912L28.1833 2.48107C28.2523 2.32545 28.4222 1.87081 28.209 1.5478C28.066 1.33036 27.6458 1.01577 27.16 1.00105C26.8888 0.988853 26.4921 1.07802 26.1553 1.52972C25.5547 2.33849 25.8482 3.67047 25.9361 4.00945C25.2674 5.84823 25.7305 7.8914 25.7515 7.97888C25.9223 9.39876 26.588 10.5066 27.216 11.2653L26.3836 12.0976C25.6565 11.5353 22.8928 9.60021 19.5391 9.85677C17.284 10.0347 15.2425 11.1791 13.474 13.2576C11.9489 15.0497 10.2363 15.959 8.38411 15.959C8.36939 15.959 8.35551 15.959 8.34121 15.9581C4.57072 15.9304 1.41721 12.1641 1.38609 12.1254L1 12.445ZM27.7106 2.30106L27.6841 2.39653L27.5941 3.65869L26.3942 3.74827C26.3037 3.33905 26.1523 2.37971 26.5607 1.82917C26.7285 1.60416 26.9174 1.4864 27.1449 1.50448C27.4553 1.51374 27.7308 1.73706 27.7871 1.82454C27.8456 1.9116 27.7821 2.16101 27.7106 2.30106ZM32.6057 7.86701C32.5708 7.91874 32.5405 7.97047 32.5106 8.0222C32.2427 8.39946 32.1401 8.78008 32.1616 9.15819C31.696 8.79817 31.2661 8.52101 30.8872 8.30861L31.1152 8.08108C31.8915 7.30343 32.0673 7.34086 32.6057 7.86701ZM37.0781 12.4883C36.0818 13.025 35.1569 12.44 34.0588 11.3309C32.9577 10.2176 32.3828 9.28436 32.9367 8.29095C33.0015 8.20095 33.0759 8.1122 33.1646 8.0243C33.5352 7.65756 33.9335 7.47587 34.373 7.47587C34.5202 7.47587 34.6707 7.49606 34.8272 7.53643C35.3958 7.68321 36.0132 8.0916 36.6651 8.74938C38.0551 10.1537 38.2869 11.3338 37.3566 12.2566C37.2649 12.3474 37.1715 12.4223 37.0781 12.4883ZM38.4126 11.0357C38.4101 10.2252 37.9479 9.32684 37.0251 8.39483C36.308 7.67102 35.6116 7.21805 34.9534 7.04856C34.7662 7.00019 34.5845 6.97664 34.4062 6.9737C34.8343 6.76425 35.294 6.63976 35.7655 6.61789C35.8164 6.61578 35.8673 6.61452 35.9173 6.61452C36.7147 6.61452 37.4423 6.90725 37.9773 7.44853C38.8984 8.37633 39.025 9.81807 38.4126 11.0357ZM37.3204 14.2859L36.3749 15.2309C36.3118 14.4146 36.1146 13.6824 35.9594 13.2159C36.0818 13.2407 36.2042 13.2559 36.3266 13.2559C36.6681 13.2559 37.0117 13.1528 37.3536 12.9148C37.415 12.8803 37.4768 12.8416 37.5378 12.8C38.0598 13.3337 38.0951 13.5103 37.3204 14.2859ZM32.7693 22.9612L32.8151 22.8733L33.1701 21.6595L34.3612 21.826C34.3629 22.2449 34.3086 23.2152 33.7926 23.6648C33.5806 23.8503 33.3728 23.9151 33.152 23.86C32.8496 23.7847 32.6288 23.5088 32.5918 23.4125C32.5552 23.3153 32.6705 23.0844 32.7693 22.9612ZM30.4523 19.9658C30.5032 19.8884 30.5461 19.8245 30.5718 19.7841C31.0988 19.4792 31.8331 18.7276 32.4564 18.0244C32.4269 18.3554 32.4047 18.7583 32.4101 19.1949L31.897 19.7076C31.4663 20.1382 31.1673 20.3229 30.9688 20.3082C30.8195 20.2934 30.655 20.1622 30.4523 19.9658ZM24.7266 15.3335C25.0353 16.1091 25.6901 16.639 26.4232 16.6731C26.4488 16.6744 26.4732 16.6752 26.4989 16.6752C27.139 16.6752 27.6702 16.2908 27.9276 15.6338C28.3435 14.5744 29.2629 14.3767 29.6536 14.3385L31.9239 16.6315L34.799 13.7841L31.6144 10.5675L28.7385 13.4144L29.3634 14.0462C28.8365 14.1563 28.0142 14.4916 27.6138 15.5106C27.4006 16.0527 26.9565 16.361 26.4375 16.3371C25.9437 16.3135 25.3574 15.969 25.0576 15.2599C25.4773 15.1742 25.7524 15.1468 25.7616 15.146L25.8962 15.1342L25.961 15.0143C26.4808 14.0491 29.096 12.0522 29.1229 12.032L28.8167 11.6304C28.7957 11.6459 28.6872 11.7288 28.5231 11.8587C27.9629 11.3931 26.5027 9.99556 26.2486 7.8914C26.2398 7.84514 25.8058 5.93571 26.3828 4.25717L27.6916 4.16002C28.5795 5.73677 28.7452 7.81527 28.7469 7.83672L28.757 7.98477L29.0854 8.12524C29.0993 8.12734 30.4935 8.3574 32.387 9.9964C32.6663 10.5869 33.1642 11.1606 33.6925 11.6939C34.2102 12.2175 34.7679 12.7091 35.3437 12.9972C35.5439 13.5133 36.4212 16.0098 35.4168 17.7073L35.3807 17.7687L35.3824 17.8406C35.3824 17.8608 35.4021 19.8182 34.4819 21.3365L33.1815 21.1539C32.7247 19.6474 32.9771 17.7981 33.0515 17.3347C33.4086 16.9078 33.6584 16.5894 33.6874 16.5515L33.2891 16.2428C33.2685 16.2689 31.2455 18.8635 30.2761 19.3736L30.216 19.4052L30.1798 19.4628C30.1638 19.488 28.5568 22.0069 26.5144 23.6951L26.4846 23.7245C26.4627 23.7493 24.3674 26.1841 22.7179 27.0315L22.5774 27.1047L22.5812 27.2624C22.5816 27.2814 22.6106 29.0428 21.6875 29.767L20.0489 26.6602C20.9725 25.9784 21.2787 25.8888 21.2921 25.885L21.4225 25.8497L21.473 25.7193C22.058 23.9756 24.478 21.8454 24.502 21.8239L24.5524 21.7629C25.2977 20.5231 26.2995 19.382 27.0095 18.6439L26.8269 18.469L26.6545 18.2848C26.3063 18.6128 25.7254 18.6612 25.0525 18.7171C24.3825 18.7726 23.6242 18.8357 22.9702 19.2193L22.9063 19.2719C22.884 19.2984 20.657 21.8677 18.9121 22.4342L18.8536 22.4607C18.7783 22.5082 18.5415 22.7286 17.9174 23.7321L14.6957 22.2727C15.2446 21.4744 16.7806 21.3117 17.3883 21.3091L17.5418 21.3108L17.6137 21.1746C18.4776 19.533 20.9334 17.4608 20.9582 17.4402L20.988 17.4095C22.047 16.1579 23.6722 15.5846 24.7266 15.3335ZM29.4518 13.4157L31.6106 11.2796L34.0857 13.7791L31.9269 15.9156L29.4518 13.4157ZM25.6918 13.5032L27.5529 11.6421C27.769 11.8688 27.9646 12.048 28.1198 12.1796C27.3169 12.8328 26.0505 13.9217 25.5862 14.6556C25.5008 14.6661 25.3743 14.6833 25.2216 14.7098C25.0155 14.4533 24.9739 14.2215 25.6918 13.5032Z"/>
</mask>
<path d="M1 12.445C1.13374 12.6078 4.33688 16.4317 8.34079 16.4611C8.35635 16.4611 8.37149 16.4611 8.38705 16.4611C10.3941 16.4615 12.2354 15.4929 13.8609 13.5831C15.5377 11.6118 17.4619 10.5267 19.577 10.3589C22.6577 10.1142 25.283 11.8978 26.0249 12.458L25.3372 13.1457C24.6328 13.8502 24.4452 14.3174 24.7038 14.8133C23.591 15.0656 21.8103 15.6692 20.6188 17.068C20.3849 17.2657 18.171 19.1612 17.2411 20.8082C16.6607 20.8284 14.6449 20.9912 14.1132 22.2975L14.0216 22.5221L18.1151 24.3764L18.2307 24.1859C18.7993 23.2552 19.0475 22.9696 19.1186 22.8968C20.8968 22.2891 22.9803 19.9553 23.2608 19.6344C23.808 19.3278 24.4612 19.2727 25.0946 19.2201C25.3642 19.1974 25.6279 19.1764 25.8768 19.1347C25.296 19.8009 24.6601 20.6089 24.1394 21.4702C23.845 21.7314 21.6879 23.6871 21.0343 25.4418C20.8274 25.5297 20.3925 25.7648 19.5724 26.3839L19.4012 26.513L21.486 30.466L21.7085 30.3491C22.9277 29.7068 23.0695 27.948 23.0838 27.4059C24.7383 26.4907 26.652 24.299 26.8534 24.0673C28.3187 22.8497 29.538 21.2654 30.1604 20.3864C30.4136 20.6232 30.6378 20.7822 30.9171 20.812C30.9448 20.8154 30.9743 20.8162 31.0024 20.8162C31.357 20.8162 31.7275 20.5925 32.2532 20.0663L32.4408 19.8788C32.4829 20.3784 32.5691 20.8944 32.726 21.3819L32.3441 22.6882C32.244 22.8249 31.982 23.2346 32.1216 23.5941C32.2146 23.8372 32.5577 24.2339 33.0309 24.3508C33.11 24.3714 33.2008 24.384 33.3022 24.384C33.539 24.384 33.8279 24.307 34.1261 24.0467C34.884 23.3847 34.8793 22.0224 34.865 21.6721C35.8151 20.1656 35.8841 18.2961 35.8875 17.9024C36.234 17.2871 36.3695 16.5991 36.3909 15.9304L37.6783 14.6442C38.7218 13.5995 38.5413 13.1293 37.9361 12.4871C37.9782 12.4496 38.019 12.4139 38.061 12.3727C39.5928 10.8548 39.7173 8.48778 38.3394 7.09566C37.6674 6.41769 36.7509 6.0644 35.7436 6.11571C34.7515 6.16114 33.7985 6.58971 33.0599 7.32067C33.0086 7.37156 32.967 7.42203 32.9211 7.4725C32.2755 6.86224 31.8066 6.67803 30.7581 7.72611L30.417 8.06636C29.8194 7.77995 29.4 7.67354 29.2343 7.63989C29.1763 7.0944 28.9277 5.28255 28.087 3.83912L28.1833 2.48107C28.2523 2.32545 28.4222 1.87081 28.209 1.5478C28.066 1.33036 27.6458 1.01577 27.16 1.00105C26.8888 0.988853 26.4921 1.07802 26.1553 1.52972C25.5547 2.33849 25.8482 3.67047 25.9361 4.00945C25.2674 5.84823 25.7305 7.8914 25.7515 7.97888C25.9223 9.39876 26.588 10.5066 27.216 11.2653L26.3836 12.0976C25.6565 11.5353 22.8928 9.60021 19.5391 9.85677C17.284 10.0347 15.2425 11.1791 13.474 13.2576C11.9489 15.0497 10.2363 15.959 8.38411 15.959C8.36939 15.959 8.35551 15.959 8.34121 15.9581C4.57072 15.9304 1.41721 12.1641 1.38609 12.1254L1 12.445ZM27.7106 2.30106L27.6841 2.39653L27.5941 3.65869L26.3942 3.74827C26.3037 3.33905 26.1523 2.37971 26.5607 1.82917C26.7285 1.60416 26.9174 1.4864 27.1449 1.50448C27.4553 1.51374 27.7308 1.73706 27.7871 1.82454C27.8456 1.9116 27.7821 2.16101 27.7106 2.30106ZM32.6057 7.86701C32.5708 7.91874 32.5405 7.97047 32.5106 8.0222C32.2427 8.39946 32.1401 8.78008 32.1616 9.15819C31.696 8.79817 31.2661 8.52101 30.8872 8.30861L31.1152 8.08108C31.8915 7.30343 32.0673 7.34086 32.6057 7.86701ZM37.0781 12.4883C36.0818 13.025 35.1569 12.44 34.0588 11.3309C32.9577 10.2176 32.3828 9.28436 32.9367 8.29095C33.0015 8.20095 33.0759 8.1122 33.1646 8.0243C33.5352 7.65756 33.9335 7.47587 34.373 7.47587C34.5202 7.47587 34.6707 7.49606 34.8272 7.53643C35.3958 7.68321 36.0132 8.0916 36.6651 8.74938C38.0551 10.1537 38.2869 11.3338 37.3566 12.2566C37.2649 12.3474 37.1715 12.4223 37.0781 12.4883ZM38.4126 11.0357C38.4101 10.2252 37.9479 9.32684 37.0251 8.39483C36.308 7.67102 35.6116 7.21805 34.9534 7.04856C34.7662 7.00019 34.5845 6.97664 34.4062 6.9737C34.8343 6.76425 35.294 6.63976 35.7655 6.61789C35.8164 6.61578 35.8673 6.61452 35.9173 6.61452C36.7147 6.61452 37.4423 6.90725 37.9773 7.44853C38.8984 8.37633 39.025 9.81807 38.4126 11.0357ZM37.3204 14.2859L36.3749 15.2309C36.3118 14.4146 36.1146 13.6824 35.9594 13.2159C36.0818 13.2407 36.2042 13.2559 36.3266 13.2559C36.6681 13.2559 37.0117 13.1528 37.3536 12.9148C37.415 12.8803 37.4768 12.8416 37.5378 12.8C38.0598 13.3337 38.0951 13.5103 37.3204 14.2859ZM32.7693 22.9612L32.8151 22.8733L33.1701 21.6595L34.3612 21.826C34.3629 22.2449 34.3086 23.2152 33.7926 23.6648C33.5806 23.8503 33.3728 23.9151 33.152 23.86C32.8496 23.7847 32.6288 23.5088 32.5918 23.4125C32.5552 23.3153 32.6705 23.0844 32.7693 22.9612ZM30.4523 19.9658C30.5032 19.8884 30.5461 19.8245 30.5718 19.7841C31.0988 19.4792 31.8331 18.7276 32.4564 18.0244C32.4269 18.3554 32.4047 18.7583 32.4101 19.1949L31.897 19.7076C31.4663 20.1382 31.1673 20.3229 30.9688 20.3082C30.8195 20.2934 30.655 20.1622 30.4523 19.9658ZM24.7266 15.3335C25.0353 16.1091 25.6901 16.639 26.4232 16.6731C26.4488 16.6744 26.4732 16.6752 26.4989 16.6752C27.139 16.6752 27.6702 16.2908 27.9276 15.6338C28.3435 14.5744 29.2629 14.3767 29.6536 14.3385L31.9239 16.6315L34.799 13.7841L31.6144 10.5675L28.7385 13.4144L29.3634 14.0462C28.8365 14.1563 28.0142 14.4916 27.6138 15.5106C27.4006 16.0527 26.9565 16.361 26.4375 16.3371C25.9437 16.3135 25.3574 15.969 25.0576 15.2599C25.4773 15.1742 25.7524 15.1468 25.7616 15.146L25.8962 15.1342L25.961 15.0143C26.4808 14.0491 29.096 12.0522 29.1229 12.032L28.8167 11.6304C28.7957 11.6459 28.6872 11.7288 28.5231 11.8587C27.9629 11.3931 26.5027 9.99556 26.2486 7.8914C26.2398 7.84514 25.8058 5.93571 26.3828 4.25717L27.6916 4.16002C28.5795 5.73677 28.7452 7.81527 28.7469 7.83672L28.757 7.98477L29.0854 8.12524C29.0993 8.12734 30.4935 8.3574 32.387 9.9964C32.6663 10.5869 33.1642 11.1606 33.6925 11.6939C34.2102 12.2175 34.7679 12.7091 35.3437 12.9972C35.5439 13.5133 36.4212 16.0098 35.4168 17.7073L35.3807 17.7687L35.3824 17.8406C35.3824 17.8608 35.4021 19.8182 34.4819 21.3365L33.1815 21.1539C32.7247 19.6474 32.9771 17.7981 33.0515 17.3347C33.4086 16.9078 33.6584 16.5894 33.6874 16.5515L33.2891 16.2428C33.2685 16.2689 31.2455 18.8635 30.2761 19.3736L30.216 19.4052L30.1798 19.4628C30.1638 19.488 28.5568 22.0069 26.5144 23.6951L26.4846 23.7245C26.4627 23.7493 24.3674 26.1841 22.7179 27.0315L22.5774 27.1047L22.5812 27.2624C22.5816 27.2814 22.6106 29.0428 21.6875 29.767L20.0489 26.6602C20.9725 25.9784 21.2787 25.8888 21.2921 25.885L21.4225 25.8497L21.473 25.7193C22.058 23.9756 24.478 21.8454 24.502 21.8239L24.5524 21.7629C25.2977 20.5231 26.2995 19.382 27.0095 18.6439L26.8269 18.469L26.6545 18.2848C26.3063 18.6128 25.7254 18.6612 25.0525 18.7171C24.3825 18.7726 23.6242 18.8357 22.9702 19.2193L22.9063 19.2719C22.884 19.2984 20.657 21.8677 18.9121 22.4342L18.8536 22.4607C18.7783 22.5082 18.5415 22.7286 17.9174 23.7321L14.6957 22.2727C15.2446 21.4744 16.7806 21.3117 17.3883 21.3091L17.5418 21.3108L17.6137 21.1746C18.4776 19.533 20.9334 17.4608 20.9582 17.4402L20.988 17.4095C22.047 16.1579 23.6722 15.5846 24.7266 15.3335ZM29.4518 13.4157L31.6106 11.2796L34.0857 13.7791L31.9269 15.9156L29.4518 13.4157ZM25.6918 13.5032L27.5529 11.6421C27.769 11.8688 27.9646 12.048 28.1198 12.1796C27.3169 12.8328 26.0505 13.9217 25.5862 14.6556C25.5008 14.6661 25.3743 14.6833 25.2216 14.7098C25.0155 14.4533 24.9739 14.2215 25.6918 13.5032Z" fill="white"/>
<path d="M1 12.445C1.13374 12.6078 4.33688 16.4317 8.34079 16.4611C8.35635 16.4611 8.37149 16.4611 8.38705 16.4611C10.3941 16.4615 12.2354 15.4929 13.8609 13.5831C15.5377 11.6118 17.4619 10.5267 19.577 10.3589C22.6577 10.1142 25.283 11.8978 26.0249 12.458L25.3372 13.1457C24.6328 13.8502 24.4452 14.3174 24.7038 14.8133C23.591 15.0656 21.8103 15.6692 20.6188 17.068C20.3849 17.2657 18.171 19.1612 17.2411 20.8082C16.6607 20.8284 14.6449 20.9912 14.1132 22.2975L14.0216 22.5221L18.1151 24.3764L18.2307 24.1859C18.7993 23.2552 19.0475 22.9696 19.1186 22.8968C20.8968 22.2891 22.9803 19.9553 23.2608 19.6344C23.808 19.3278 24.4612 19.2727 25.0946 19.2201C25.3642 19.1974 25.6279 19.1764 25.8768 19.1347C25.296 19.8009 24.6601 20.6089 24.1394 21.4702C23.845 21.7314 21.6879 23.6871 21.0343 25.4418C20.8274 25.5297 20.3925 25.7648 19.5724 26.3839L19.4012 26.513L21.486 30.466L21.7085 30.3491C22.9277 29.7068 23.0695 27.948 23.0838 27.4059C24.7383 26.4907 26.652 24.299 26.8534 24.0673C28.3187 22.8497 29.538 21.2654 30.1604 20.3864C30.4136 20.6232 30.6378 20.7822 30.9171 20.812C30.9448 20.8154 30.9743 20.8162 31.0024 20.8162C31.357 20.8162 31.7275 20.5925 32.2532 20.0663L32.4408 19.8788C32.4829 20.3784 32.5691 20.8944 32.726 21.3819L32.3441 22.6882C32.244 22.8249 31.982 23.2346 32.1216 23.5941C32.2146 23.8372 32.5577 24.2339 33.0309 24.3508C33.11 24.3714 33.2008 24.384 33.3022 24.384C33.539 24.384 33.8279 24.307 34.1261 24.0467C34.884 23.3847 34.8793 22.0224 34.865 21.6721C35.8151 20.1656 35.8841 18.2961 35.8875 17.9024C36.234 17.2871 36.3695 16.5991 36.3909 15.9304L37.6783 14.6442C38.7218 13.5995 38.5413 13.1293 37.9361 12.4871C37.9782 12.4496 38.019 12.4139 38.061 12.3727C39.5928 10.8548 39.7173 8.48778 38.3394 7.09566C37.6674 6.41769 36.7509 6.0644 35.7436 6.11571C34.7515 6.16114 33.7985 6.58971 33.0599 7.32067C33.0086 7.37156 32.967 7.42203 32.9211 7.4725C32.2755 6.86224 31.8066 6.67803 30.7581 7.72611L30.417 8.06636C29.8194 7.77995 29.4 7.67354 29.2343 7.63989C29.1763 7.0944 28.9277 5.28255 28.087 3.83912L28.1833 2.48107C28.2523 2.32545 28.4222 1.87081 28.209 1.5478C28.066 1.33036 27.6458 1.01577 27.16 1.00105C26.8888 0.988853 26.4921 1.07802 26.1553 1.52972C25.5547 2.33849 25.8482 3.67047 25.9361 4.00945C25.2674 5.84823 25.7305 7.8914 25.7515 7.97888C25.9223 9.39876 26.588 10.5066 27.216 11.2653L26.3836 12.0976C25.6565 11.5353 22.8928 9.60021 19.5391 9.85677C17.284 10.0347 15.2425 11.1791 13.474 13.2576C11.9489 15.0497 10.2363 15.959 8.38411 15.959C8.36939 15.959 8.35551 15.959 8.34121 15.9581C4.57072 15.9304 1.41721 12.1641 1.38609 12.1254L1 12.445ZM27.7106 2.30106L27.6841 2.39653L27.5941 3.65869L26.3942 3.74827C26.3037 3.33905 26.1523 2.37971 26.5607 1.82917C26.7285 1.60416 26.9174 1.4864 27.1449 1.50448C27.4553 1.51374 27.7308 1.73706 27.7871 1.82454C27.8456 1.9116 27.7821 2.16101 27.7106 2.30106ZM32.6057 7.86701C32.5708 7.91874 32.5405 7.97047 32.5106 8.0222C32.2427 8.39946 32.1401 8.78008 32.1616 9.15819C31.696 8.79817 31.2661 8.52101 30.8872 8.30861L31.1152 8.08108C31.8915 7.30343 32.0673 7.34086 32.6057 7.86701ZM37.0781 12.4883C36.0818 13.025 35.1569 12.44 34.0588 11.3309C32.9577 10.2176 32.3828 9.28436 32.9367 8.29095C33.0015 8.20095 33.0759 8.1122 33.1646 8.0243C33.5352 7.65756 33.9335 7.47587 34.373 7.47587C34.5202 7.47587 34.6707 7.49606 34.8272 7.53643C35.3958 7.68321 36.0132 8.0916 36.6651 8.74938C38.0551 10.1537 38.2869 11.3338 37.3566 12.2566C37.2649 12.3474 37.1715 12.4223 37.0781 12.4883ZM38.4126 11.0357C38.4101 10.2252 37.9479 9.32684 37.0251 8.39483C36.308 7.67102 35.6116 7.21805 34.9534 7.04856C34.7662 7.00019 34.5845 6.97664 34.4062 6.9737C34.8343 6.76425 35.294 6.63976 35.7655 6.61789C35.8164 6.61578 35.8673 6.61452 35.9173 6.61452C36.7147 6.61452 37.4423 6.90725 37.9773 7.44853C38.8984 8.37633 39.025 9.81807 38.4126 11.0357ZM37.3204 14.2859L36.3749 15.2309C36.3118 14.4146 36.1146 13.6824 35.9594 13.2159C36.0818 13.2407 36.2042 13.2559 36.3266 13.2559C36.6681 13.2559 37.0117 13.1528 37.3536 12.9148C37.415 12.8803 37.4768 12.8416 37.5378 12.8C38.0598 13.3337 38.0951 13.5103 37.3204 14.2859ZM32.7693 22.9612L32.8151 22.8733L33.1701 21.6595L34.3612 21.826C34.3629 22.2449 34.3086 23.2152 33.7926 23.6648C33.5806 23.8503 33.3728 23.9151 33.152 23.86C32.8496 23.7847 32.6288 23.5088 32.5918 23.4125C32.5552 23.3153 32.6705 23.0844 32.7693 22.9612ZM30.4523 19.9658C30.5032 19.8884 30.5461 19.8245 30.5718 19.7841C31.0988 19.4792 31.8331 18.7276 32.4564 18.0244C32.4269 18.3554 32.4047 18.7583 32.4101 19.1949L31.897 19.7076C31.4663 20.1382 31.1673 20.3229 30.9688 20.3082C30.8195 20.2934 30.655 20.1622 30.4523 19.9658ZM24.7266 15.3335C25.0353 16.1091 25.6901 16.639 26.4232 16.6731C26.4488 16.6744 26.4732 16.6752 26.4989 16.6752C27.139 16.6752 27.6702 16.2908 27.9276 15.6338C28.3435 14.5744 29.2629 14.3767 29.6536 14.3385L31.9239 16.6315L34.799 13.7841L31.6144 10.5675L28.7385 13.4144L29.3634 14.0462C28.8365 14.1563 28.0142 14.4916 27.6138 15.5106C27.4006 16.0527 26.9565 16.361 26.4375 16.3371C25.9437 16.3135 25.3574 15.969 25.0576 15.2599C25.4773 15.1742 25.7524 15.1468 25.7616 15.146L25.8962 15.1342L25.961 15.0143C26.4808 14.0491 29.096 12.0522 29.1229 12.032L28.8167 11.6304C28.7957 11.6459 28.6872 11.7288 28.5231 11.8587C27.9629 11.3931 26.5027 9.99556 26.2486 7.8914C26.2398 7.84514 25.8058 5.93571 26.3828 4.25717L27.6916 4.16002C28.5795 5.73677 28.7452 7.81527 28.7469 7.83672L28.757 7.98477L29.0854 8.12524C29.0993 8.12734 30.4935 8.3574 32.387 9.9964C32.6663 10.5869 33.1642 11.1606 33.6925 11.6939C34.2102 12.2175 34.7679 12.7091 35.3437 12.9972C35.5439 13.5133 36.4212 16.0098 35.4168 17.7073L35.3807 17.7687L35.3824 17.8406C35.3824 17.8608 35.4021 19.8182 34.4819 21.3365L33.1815 21.1539C32.7247 19.6474 32.9771 17.7981 33.0515 17.3347C33.4086 16.9078 33.6584 16.5894 33.6874 16.5515L33.2891 16.2428C33.2685 16.2689 31.2455 18.8635 30.2761 19.3736L30.216 19.4052L30.1798 19.4628C30.1638 19.488 28.5568 22.0069 26.5144 23.6951L26.4846 23.7245C26.4627 23.7493 24.3674 26.1841 22.7179 27.0315L22.5774 27.1047L22.5812 27.2624C22.5816 27.2814 22.6106 29.0428 21.6875 29.767L20.0489 26.6602C20.9725 25.9784 21.2787 25.8888 21.2921 25.885L21.4225 25.8497L21.473 25.7193C22.058 23.9756 24.478 21.8454 24.502 21.8239L24.5524 21.7629C25.2977 20.5231 26.2995 19.382 27.0095 18.6439L26.8269 18.469L26.6545 18.2848C26.3063 18.6128 25.7254 18.6612 25.0525 18.7171C24.3825 18.7726 23.6242 18.8357 22.9702 19.2193L22.9063 19.2719C22.884 19.2984 20.657 21.8677 18.9121 22.4342L18.8536 22.4607C18.7783 22.5082 18.5415 22.7286 17.9174 23.7321L14.6957 22.2727C15.2446 21.4744 16.7806 21.3117 17.3883 21.3091L17.5418 21.3108L17.6137 21.1746C18.4776 19.533 20.9334 17.4608 20.9582 17.4402L20.988 17.4095C22.047 16.1579 23.6722 15.5846 24.7266 15.3335ZM29.4518 13.4157L31.6106 11.2796L34.0857 13.7791L31.9269 15.9156L29.4518 13.4157ZM25.6918 13.5032L27.5529 11.6421C27.769 11.8688 27.9646 12.048 28.1198 12.1796C27.3169 12.8328 26.0505 13.9217 25.5862 14.6556C25.5008 14.6661 25.3743 14.6833 25.2216 14.7098C25.0155 14.4533 24.9739 14.2215 25.6918 13.5032Z" stroke="#999999" stroke-width="0.4" mask="url(#path-1-outside-1)"/>
</svg>
