<svg width="30" height="28" viewBox="0 0 30 28" fill="none" xmlns="http://www.w3.org/2000/svg">
<path d="M28.3502 1.67199C27.2506 0.560176 25.9255 -0.0180845 24.5133 0.000431085C23.1921 0.0175404 21.8957 0.578985 20.863 1.58135L20.8533 1.59078L7.44849 15.2194C6.10723 16.5747 6.10687 18.5424 7.44767 19.8981C8.09783 20.5555 8.92722 20.9175 9.78322 20.9175C9.78333 20.9175 9.78351 20.9175 9.78363 20.9175C10.65 20.9174 11.4848 20.5554 12.1384 19.8941L21.4035 10.4288L19.7285 8.78942L10.4676 18.2506C10.2616 18.459 10.0186 18.5738 9.78327 18.5738C9.55171 18.5739 9.32648 18.4649 9.11396 18.2501C8.49708 17.6263 8.9087 17.0757 9.11683 16.8654L22.5045 3.25431C23.7839 2.0201 25.4231 2.04541 26.6838 3.32011C28.1797 4.83259 27.7622 6.60821 26.6848 7.69694L11.4461 23.4352C10.399 24.4926 9.07411 25.0749 7.71504 25.0751C7.7148 25.0751 7.71457 25.0751 7.71433 25.0751C6.35572 25.0751 5.06678 24.498 3.98701 23.4063C1.45946 20.8507 2.1654 17.8493 3.98666 16.0075L15.5352 4.46146L13.8782 2.80408L2.32706 14.3526L2.32266 14.357C0.874167 15.8208 0.0501056 17.6666 0.00229317 19.5543C-0.0487419 21.5673 0.752936 23.4692 2.32073 25.0544C3.82881 26.5792 5.74418 27.4189 7.71451 27.4189C7.71474 27.4189 7.71527 27.4189 7.7155 27.4188C9.7074 27.4186 11.6257 26.5875 13.117 25.0787L28.3557 9.34044C30.55 7.11821 30.548 3.89427 28.3502 1.67199Z" fill="white"/>
</svg>
