<svg width="191" height="55" viewBox="0 0 191 55" fill="none" xmlns="http://www.w3.org/2000/svg">
<path d="M27.91 12.28C27.77 12.14 27.51 11.95 27.13 11.71C26.77 11.47 26.32 11.24 25.78 11.02C25.26 10.78 24.69 10.58 24.07 10.42C23.45 10.26 22.82 10.18 22.18 10.18C21.04 10.18 20.19 10.39 19.63 10.81C19.07 11.23 18.79 11.82 18.79 12.58C18.79 13.02 18.89 13.39 19.09 13.69C19.31 13.97 19.62 14.22 20.02 14.44C20.42 14.66 20.92 14.86 21.52 15.04C22.14 15.22 22.85 15.41 23.65 15.61C24.69 15.89 25.63 16.19 26.47 16.51C27.33 16.83 28.05 17.23 28.63 17.71C29.23 18.19 29.69 18.77 30.01 19.45C30.33 20.11 30.49 20.93 30.49 21.91C30.49 23.05 30.27 24.03 29.83 24.85C29.41 25.65 28.83 26.3 28.09 26.8C27.37 27.3 26.53 27.67 25.57 27.91C24.63 28.13 23.64 28.24 22.6 28.24C21 28.24 19.42 28 17.86 27.52C16.3 27.04 14.9 26.36 13.66 25.48L15.49 21.91C15.67 22.09 15.99 22.33 16.45 22.63C16.93 22.91 17.49 23.2 18.13 23.5C18.77 23.78 19.48 24.02 20.26 24.22C21.04 24.42 21.84 24.52 22.66 24.52C24.94 24.52 26.08 23.79 26.08 22.33C26.08 21.87 25.95 21.48 25.69 21.16C25.43 20.84 25.06 20.56 24.58 20.32C24.1 20.08 23.52 19.86 22.84 19.66C22.16 19.46 21.4 19.24 20.56 19C19.54 18.72 18.65 18.42 17.89 18.1C17.15 17.76 16.53 17.37 16.03 16.93C15.53 16.47 15.15 15.95 14.89 15.37C14.65 14.77 14.53 14.06 14.53 13.24C14.53 12.16 14.73 11.2 15.13 10.36C15.53 9.52 16.08 8.82 16.78 8.26C17.5 7.7 18.33 7.28 19.27 7C20.21 6.7 21.22 6.55 22.3 6.55C23.8 6.55 25.18 6.79 26.44 7.27C27.7 7.73 28.8 8.28 29.74 8.92L27.91 12.28ZM48.3784 26.14V28H34.0684V6.7H48.1084V8.56H36.1684V16.24H46.5784V18.01H36.1684V26.14H48.3784ZM54.4497 10.6V28H52.3497V6.7H53.9697L68.0697 24.43V6.73H70.1697V28H68.3397L54.4497 10.6ZM84.1635 26.26C85.5035 26.26 86.6135 26.01 87.4935 25.51C88.3935 24.99 89.1035 24.32 89.6235 23.5C90.1635 22.66 90.5335 21.71 90.7335 20.65C90.9535 19.59 91.0635 18.52 91.0635 17.44V6.7H93.1635V17.44C93.1635 18.88 93.0035 20.25 92.6835 21.55C92.3635 22.83 91.8435 23.96 91.1235 24.94C90.4235 25.92 89.5035 26.7 88.3635 27.28C87.2235 27.86 85.8335 28.15 84.1935 28.15C82.5135 28.15 81.0935 27.85 79.9335 27.25C78.7935 26.63 77.8735 25.82 77.1735 24.82C76.4735 23.82 75.9735 22.68 75.6735 21.4C75.3735 20.12 75.2235 18.8 75.2235 17.44V6.7H77.2935V17.44C77.2935 18.56 77.4035 19.65 77.6235 20.71C77.8435 21.77 78.2135 22.71 78.7335 23.53C79.2735 24.35 79.9835 25.01 80.8635 25.51C81.7435 26.01 82.8435 26.26 84.1635 26.26ZM98.17 28V6.7H107.17C108.09 6.7 108.93 6.9 109.69 7.3C110.47 7.68 111.14 8.19 111.7 8.83C112.26 9.45 112.69 10.16 112.99 10.96C113.31 11.76 113.47 12.57 113.47 13.39C113.47 14.17 113.35 14.92 113.11 15.64C112.89 16.34 112.57 16.98 112.15 17.56C111.75 18.12 111.26 18.6 110.68 19C110.1 19.38 109.45 19.64 108.73 19.78L113.95 28H111.58L106.57 20.14H100.27V28H98.17ZM100.27 18.28H107.23C107.85 18.28 108.41 18.15 108.91 17.89C109.43 17.61 109.87 17.24 110.23 16.78C110.59 16.32 110.87 15.8 111.07 15.22C111.27 14.64 111.37 14.03 111.37 13.39C111.37 12.75 111.25 12.14 111.01 11.56C110.79 10.96 110.48 10.44 110.08 10C109.7 9.56 109.24 9.21 108.7 8.95C108.18 8.69 107.63 8.56 107.05 8.56H100.27V18.28ZM124.047 6.7H125.817L134.667 28H132.447L129.687 21.34H120.117L117.387 28H115.137L124.047 6.7ZM129.207 19.69L124.917 9.16L120.567 19.69H129.207ZM153.741 22.51C153.741 23.31 153.581 24.05 153.261 24.73C152.941 25.39 152.511 25.97 151.971 26.47C151.431 26.95 150.801 27.33 150.081 27.61C149.361 27.87 148.591 28 147.771 28H137.721V6.7H147.981C148.721 6.7 149.391 6.86 149.991 7.18C150.591 7.5 151.101 7.92 151.521 8.44C151.941 8.94 152.261 9.52 152.481 10.18C152.721 10.82 152.841 11.47 152.841 12.13C152.841 13.21 152.571 14.2 152.031 15.1C151.491 15.98 150.741 16.64 149.781 17.08C151.001 17.44 151.961 18.11 152.661 19.09C153.381 20.07 153.741 21.21 153.741 22.51ZM151.641 22.15C151.641 21.63 151.551 21.13 151.371 20.65C151.191 20.15 150.931 19.72 150.591 19.36C150.271 18.98 149.881 18.68 149.421 18.46C148.981 18.22 148.501 18.1 147.981 18.1H139.821V26.17H147.771C148.311 26.17 148.811 26.06 149.271 25.84C149.751 25.62 150.161 25.33 150.501 24.97C150.861 24.59 151.141 24.16 151.341 23.68C151.541 23.18 151.641 22.67 151.641 22.15ZM139.821 8.53V16.39H147.141C147.661 16.39 148.141 16.28 148.581 16.06C149.041 15.84 149.431 15.55 149.751 15.19C150.071 14.83 150.321 14.42 150.501 13.96C150.681 13.48 150.771 12.98 150.771 12.46C150.771 11.92 150.681 11.41 150.501 10.93C150.341 10.45 150.101 10.04 149.781 9.7C149.481 9.34 149.121 9.06 148.701 8.86C148.281 8.64 147.821 8.53 147.321 8.53H139.821ZM157.701 28V6.7H159.801V26.14H172.101V28H157.701ZM189.501 26.14V28H175.191V6.7H189.231V8.56H177.291V16.24H187.701V18.01H177.291V26.14H189.501Z" fill="white"/>
<path d="M17.984 42.13H18.908L20.308 45.658L21.722 42.13H22.66L20.924 46.372L22.828 50.866L26.426 42.06H27.49L23.276 52H22.408L20.322 47.086L18.222 52H17.368L13.168 42.06H14.218L17.83 50.866L19.72 46.372L17.984 42.13ZM30.9402 52.14C30.4082 52.14 29.9182 52.042 29.4702 51.846C29.0316 51.6407 28.6489 51.3653 28.3222 51.02C27.9956 50.6653 27.7389 50.2593 27.5522 49.802C27.3749 49.3447 27.2862 48.8547 27.2862 48.332C27.2862 47.8187 27.3749 47.338 27.5522 46.89C27.7389 46.4327 27.9909 46.036 28.3082 45.7C28.6349 45.3547 29.0222 45.084 29.4702 44.888C29.9182 44.6827 30.4036 44.58 30.9262 44.58C31.4582 44.58 31.9436 44.6827 32.3822 44.888C32.8302 45.084 33.2129 45.3547 33.5302 45.7C33.8476 46.0453 34.0949 46.442 34.2722 46.89C34.4496 47.338 34.5382 47.814 34.5382 48.318C34.5382 48.3927 34.5382 48.4673 34.5382 48.542C34.5382 48.6167 34.5336 48.668 34.5242 48.696H28.2802C28.3082 49.088 28.3969 49.452 28.5462 49.788C28.7049 50.1147 28.9056 50.3993 29.1482 50.642C29.3909 50.8847 29.6662 51.076 29.9742 51.216C30.2916 51.3467 30.6276 51.412 30.9822 51.412C31.2156 51.412 31.4489 51.3793 31.6822 51.314C31.9156 51.2487 32.1302 51.16 32.3262 51.048C32.5222 50.936 32.6996 50.8007 32.8582 50.642C33.0169 50.474 33.1382 50.292 33.2222 50.096L34.0482 50.32C33.9362 50.5907 33.7776 50.838 33.5722 51.062C33.3669 51.2767 33.1289 51.468 32.8582 51.636C32.5876 51.7947 32.2889 51.916 31.9622 52C31.6356 52.0933 31.2949 52.14 30.9402 52.14ZM33.6282 47.968C33.6002 47.576 33.5069 47.2213 33.3482 46.904C33.1989 46.5773 33.0029 46.2973 32.7602 46.064C32.5269 45.8307 32.2516 45.6487 31.9342 45.518C31.6262 45.3873 31.2949 45.322 30.9402 45.322C30.5856 45.322 30.2496 45.3873 29.9322 45.518C29.6149 45.6487 29.3349 45.8307 29.0922 46.064C28.8589 46.2973 28.6676 46.5773 28.5182 46.904C28.3782 47.2307 28.2942 47.5853 28.2662 47.968H33.6282ZM39.577 52.14C38.9984 52.14 38.4664 51.9953 37.981 51.706C37.505 51.4167 37.1317 51.0433 36.861 50.586V52H36.007V41.78H36.959V46.232C37.2857 45.7373 37.6777 45.3407 38.135 45.042C38.5924 44.734 39.1244 44.58 39.731 44.58C40.2444 44.58 40.7017 44.6873 41.103 44.902C41.5137 45.1167 41.859 45.406 42.139 45.77C42.4284 46.1247 42.6477 46.5307 42.797 46.988C42.9557 47.436 43.035 47.898 43.035 48.374C43.035 48.8873 42.9464 49.3727 42.769 49.83C42.5917 50.2873 42.349 50.6887 42.041 51.034C41.733 51.37 41.3644 51.6407 40.935 51.846C40.515 52.042 40.0624 52.14 39.577 52.14ZM39.353 51.3C39.7544 51.3 40.1184 51.2207 40.445 51.062C40.781 50.894 41.0657 50.6747 41.299 50.404C41.5417 50.124 41.7284 49.8113 41.859 49.466C41.999 49.1113 42.069 48.7473 42.069 48.374C42.069 47.9913 42.0037 47.6227 41.873 47.268C41.7517 46.9133 41.5744 46.6007 41.341 46.33C41.117 46.05 40.8417 45.8307 40.515 45.672C40.1977 45.504 39.8477 45.42 39.465 45.42C39.1757 45.42 38.905 45.4713 38.653 45.574C38.401 45.6673 38.1677 45.798 37.953 45.966C37.7384 46.134 37.547 46.33 37.379 46.554C37.211 46.7687 37.071 46.9973 36.959 47.24V49.508C36.9964 49.76 37.0944 49.998 37.253 50.222C37.421 50.4367 37.617 50.6233 37.841 50.782C38.0744 50.9407 38.3217 51.0667 38.583 51.16C38.8537 51.2533 39.1104 51.3 39.353 51.3ZM54.222 43.922C53.942 43.6047 53.5687 43.348 53.102 43.152C52.6353 42.956 52.1033 42.858 51.506 42.858C50.6287 42.858 49.9893 43.026 49.588 43.362C49.1867 43.6887 48.986 44.1367 48.986 44.706C48.986 45.0047 49.0373 45.252 49.14 45.448C49.252 45.6347 49.42 45.798 49.644 45.938C49.868 46.078 50.1527 46.1993 50.498 46.302C50.8527 46.4047 51.268 46.5073 51.744 46.61C52.276 46.722 52.752 46.848 53.172 46.988C53.6013 47.128 53.9653 47.3053 54.264 47.52C54.5627 47.7253 54.7913 47.9773 54.95 48.276C55.1087 48.5747 55.188 48.948 55.188 49.396C55.188 49.8533 55.0993 50.25 54.922 50.586C54.7447 50.922 54.4973 51.202 54.18 51.426C53.8627 51.65 53.4847 51.818 53.046 51.93C52.6073 52.0327 52.1267 52.084 51.604 52.084C50.064 52.084 48.734 51.6033 47.614 50.642L48.104 49.844C48.2813 50.0307 48.4913 50.208 48.734 50.376C48.986 50.544 49.2613 50.6933 49.56 50.824C49.868 50.9453 50.1947 51.0433 50.54 51.118C50.8853 51.1833 51.2493 51.216 51.632 51.216C52.4253 51.216 53.0413 51.076 53.48 50.796C53.928 50.5067 54.152 50.0727 54.152 49.494C54.152 49.186 54.0867 48.9293 53.956 48.724C53.8347 48.5093 53.648 48.3273 53.396 48.178C53.144 48.0193 52.8313 47.884 52.458 47.772C52.0847 47.66 51.6507 47.548 51.156 47.436C50.6333 47.3147 50.176 47.1887 49.784 47.058C49.392 46.9273 49.0607 46.764 48.79 46.568C48.5193 46.372 48.314 46.1387 48.174 45.868C48.0433 45.588 47.978 45.2473 47.978 44.846C47.978 44.3887 48.062 43.9827 48.23 43.628C48.4073 43.264 48.6547 42.9653 48.972 42.732C49.2893 42.4893 49.6627 42.3073 50.092 42.186C50.5213 42.0553 50.9973 41.99 51.52 41.99C52.1827 41.99 52.7707 42.0927 53.284 42.298C53.8067 42.494 54.278 42.774 54.698 43.138L54.222 43.922ZM59.8699 52.14C59.3379 52.14 58.8479 52.042 58.3999 51.846C57.9613 51.6407 57.5786 51.3653 57.2519 51.02C56.9253 50.6653 56.6686 50.2593 56.4819 49.802C56.3046 49.3447 56.2159 48.8547 56.2159 48.332C56.2159 47.8187 56.3046 47.338 56.4819 46.89C56.6686 46.4327 56.9206 46.036 57.2379 45.7C57.5646 45.3547 57.9519 45.084 58.3999 44.888C58.8479 44.6827 59.3333 44.58 59.8559 44.58C60.3879 44.58 60.8733 44.6827 61.3119 44.888C61.7599 45.084 62.1426 45.3547 62.4599 45.7C62.7773 46.0453 63.0246 46.442 63.2019 46.89C63.3793 47.338 63.4679 47.814 63.4679 48.318C63.4679 48.3927 63.4679 48.4673 63.4679 48.542C63.4679 48.6167 63.4633 48.668 63.4539 48.696H57.2099C57.2379 49.088 57.3266 49.452 57.4759 49.788C57.6346 50.1147 57.8353 50.3993 58.0779 50.642C58.3206 50.8847 58.5959 51.076 58.9039 51.216C59.2213 51.3467 59.5573 51.412 59.9119 51.412C60.1453 51.412 60.3786 51.3793 60.6119 51.314C60.8453 51.2487 61.0599 51.16 61.2559 51.048C61.4519 50.936 61.6293 50.8007 61.7879 50.642C61.9466 50.474 62.0679 50.292 62.1519 50.096L62.9779 50.32C62.8659 50.5907 62.7073 50.838 62.5019 51.062C62.2966 51.2767 62.0586 51.468 61.7879 51.636C61.5173 51.7947 61.2186 51.916 60.8919 52C60.5653 52.0933 60.2246 52.14 59.8699 52.14ZM62.5579 47.968C62.5299 47.576 62.4366 47.2213 62.2779 46.904C62.1286 46.5773 61.9326 46.2973 61.6899 46.064C61.4566 45.8307 61.1813 45.6487 60.8639 45.518C60.5559 45.3873 60.2246 45.322 59.8699 45.322C59.5153 45.322 59.1793 45.3873 58.8619 45.518C58.5446 45.6487 58.2646 45.8307 58.0219 46.064C57.7886 46.2973 57.5973 46.5773 57.4479 46.904C57.3079 47.2307 57.2239 47.5853 57.1959 47.968H62.5579ZM68.5767 45.546C67.9327 45.5647 67.3727 45.742 66.8967 46.078C66.4207 46.414 66.0847 46.876 65.8887 47.464V52H64.9367V44.706H65.8327V46.456C66.1034 45.896 66.4674 45.4573 66.9247 45.14C67.3821 44.8227 67.8721 44.664 68.3947 44.664C68.4694 44.664 68.5301 44.6687 68.5767 44.678V45.546ZM72.0289 52L69.0609 44.706H70.0409L72.5469 51.118L75.0669 44.706H75.9909L73.0229 52H72.0289ZM77.3098 52V44.706H78.2618V52H77.3098ZM77.3098 43.18V41.78H78.2618V43.18H77.3098ZM79.8546 48.332C79.8546 47.8187 79.9433 47.3333 80.1206 46.876C80.2979 46.4187 80.5453 46.022 80.8626 45.686C81.1893 45.3407 81.5766 45.07 82.0246 44.874C82.4726 44.678 82.9673 44.58 83.5086 44.58C84.1993 44.58 84.8013 44.7387 85.3146 45.056C85.8279 45.364 86.2153 45.784 86.4766 46.316L85.5526 46.61C85.3473 46.2367 85.0579 45.9473 84.6846 45.742C84.3206 45.5273 83.9146 45.42 83.4666 45.42C83.0933 45.42 82.7433 45.4947 82.4166 45.644C82.0993 45.7933 81.8193 45.9987 81.5766 46.26C81.3433 46.512 81.1566 46.8153 81.0166 47.17C80.8859 47.5247 80.8206 47.912 80.8206 48.332C80.8206 48.7427 80.8906 49.13 81.0306 49.494C81.1706 49.858 81.3619 50.1753 81.6046 50.446C81.8473 50.7073 82.1273 50.9173 82.4446 51.076C82.7713 51.2253 83.1166 51.3 83.4806 51.3C83.7139 51.3 83.9426 51.2673 84.1666 51.202C84.3999 51.1367 84.6146 51.048 84.8106 50.936C85.0066 50.8147 85.1746 50.6793 85.3146 50.53C85.4546 50.3807 85.5526 50.222 85.6086 50.054L86.5466 50.334C86.4439 50.5953 86.2946 50.838 86.0986 51.062C85.9026 51.2767 85.6693 51.468 85.3986 51.636C85.1373 51.7947 84.8433 51.916 84.5166 52C84.1993 52.0933 83.8679 52.14 83.5226 52.14C82.9906 52.14 82.5006 52.042 82.0526 51.846C81.6046 51.6407 81.2173 51.3653 80.8906 51.02C80.5639 50.6653 80.3073 50.2593 80.1206 49.802C79.9433 49.3447 79.8546 48.8547 79.8546 48.332ZM91.1238 52.14C90.5918 52.14 90.1018 52.042 89.6538 51.846C89.2152 51.6407 88.8325 51.3653 88.5058 51.02C88.1792 50.6653 87.9225 50.2593 87.7358 49.802C87.5585 49.3447 87.4698 48.8547 87.4698 48.332C87.4698 47.8187 87.5585 47.338 87.7358 46.89C87.9225 46.4327 88.1745 46.036 88.4918 45.7C88.8185 45.3547 89.2058 45.084 89.6538 44.888C90.1018 44.6827 90.5872 44.58 91.1098 44.58C91.6418 44.58 92.1272 44.6827 92.5658 44.888C93.0138 45.084 93.3965 45.3547 93.7138 45.7C94.0312 46.0453 94.2785 46.442 94.4558 46.89C94.6332 47.338 94.7218 47.814 94.7218 48.318C94.7218 48.3927 94.7218 48.4673 94.7218 48.542C94.7218 48.6167 94.7172 48.668 94.7078 48.696H88.4638C88.4918 49.088 88.5805 49.452 88.7298 49.788C88.8885 50.1147 89.0892 50.3993 89.3318 50.642C89.5745 50.8847 89.8498 51.076 90.1578 51.216C90.4752 51.3467 90.8112 51.412 91.1658 51.412C91.3992 51.412 91.6325 51.3793 91.8658 51.314C92.0992 51.2487 92.3138 51.16 92.5098 51.048C92.7058 50.936 92.8832 50.8007 93.0418 50.642C93.2005 50.474 93.3218 50.292 93.4058 50.096L94.2318 50.32C94.1198 50.5907 93.9612 50.838 93.7558 51.062C93.5505 51.2767 93.3125 51.468 93.0418 51.636C92.7712 51.7947 92.4725 51.916 92.1458 52C91.8192 52.0933 91.4785 52.14 91.1238 52.14ZM93.8118 47.968C93.7838 47.576 93.6905 47.2213 93.5318 46.904C93.3825 46.5773 93.1865 46.2973 92.9438 46.064C92.7105 45.8307 92.4352 45.6487 92.1178 45.518C91.8098 45.3873 91.4785 45.322 91.1238 45.322C90.7692 45.322 90.4332 45.3873 90.1158 45.518C89.7985 45.6487 89.5185 45.8307 89.2758 46.064C89.0425 46.2973 88.8512 46.5773 88.7018 46.904C88.5618 47.2307 88.4778 47.5853 88.4498 47.968H93.8118ZM98.6126 52.14C98.0433 52.14 97.488 52.0467 96.9466 51.86C96.4053 51.6733 95.9386 51.4027 95.5466 51.048L95.9806 50.404C96.3913 50.74 96.8066 50.992 97.2266 51.16C97.656 51.328 98.1133 51.412 98.5986 51.412C99.1866 51.412 99.6533 51.2953 99.9986 51.062C100.353 50.8193 100.531 50.4787 100.531 50.04C100.531 49.8347 100.484 49.6667 100.391 49.536C100.297 49.396 100.157 49.2747 99.9706 49.172C99.7933 49.0693 99.5646 48.9807 99.2846 48.906C99.014 48.822 98.6966 48.738 98.3326 48.654C97.9126 48.5513 97.5486 48.4487 97.2406 48.346C96.9326 48.2433 96.676 48.1267 96.4706 47.996C96.2746 47.8653 96.1253 47.7067 96.0226 47.52C95.9293 47.324 95.8826 47.0813 95.8826 46.792C95.8826 46.428 95.9526 46.106 96.0926 45.826C96.242 45.546 96.438 45.3173 96.6806 45.14C96.9326 44.9533 97.222 44.8133 97.5486 44.72C97.8846 44.6267 98.2393 44.58 98.6126 44.58C99.1726 44.58 99.6813 44.6733 100.139 44.86C100.596 45.0373 100.965 45.2753 101.245 45.574L100.783 46.134C100.512 45.854 100.181 45.644 99.7886 45.504C99.406 45.364 99.0046 45.294 98.5846 45.294C98.3326 45.294 98.0993 45.322 97.8846 45.378C97.67 45.4247 97.4786 45.504 97.3106 45.616C97.152 45.728 97.026 45.8727 96.9326 46.05C96.8393 46.218 96.7926 46.4187 96.7926 46.652C96.7926 46.848 96.8253 47.0067 96.8906 47.128C96.956 47.2493 97.0633 47.3567 97.2126 47.45C97.362 47.534 97.5486 47.6133 97.7726 47.688C98.006 47.7533 98.286 47.8233 98.6126 47.898C99.0793 48.01 99.49 48.122 99.8446 48.234C100.199 48.346 100.493 48.4767 100.727 48.626C100.969 48.7753 101.151 48.9573 101.273 49.172C101.394 49.3867 101.455 49.648 101.455 49.956C101.455 50.628 101.198 51.16 100.685 51.552C100.171 51.944 99.4806 52.14 98.6126 52.14ZM106.931 52V45.462H105.923V44.706H106.931V44.51C106.931 43.614 107.123 42.914 107.505 42.41C107.888 41.8967 108.411 41.64 109.073 41.64C109.363 41.64 109.643 41.682 109.913 41.766C110.184 41.85 110.417 41.962 110.613 42.102L110.319 42.788C110.189 42.6853 110.025 42.606 109.829 42.55C109.643 42.494 109.451 42.466 109.255 42.466C108.807 42.466 108.467 42.6387 108.233 42.984C108 43.3293 107.883 43.8287 107.883 44.482V44.706H109.899V45.462H107.883V52H106.931ZM113.941 52.14C113.409 52.14 112.924 52.042 112.485 51.846C112.047 51.6407 111.664 51.3653 111.337 51.02C111.02 50.6747 110.773 50.2733 110.595 49.816C110.418 49.3587 110.329 48.878 110.329 48.374C110.329 47.8607 110.418 47.3753 110.595 46.918C110.782 46.4607 111.034 46.0593 111.351 45.714C111.678 45.3687 112.061 45.0933 112.499 44.888C112.938 44.6827 113.419 44.58 113.941 44.58C114.464 44.58 114.945 44.6827 115.383 44.888C115.831 45.0933 116.214 45.3687 116.531 45.714C116.858 46.0593 117.11 46.4607 117.287 46.918C117.474 47.3753 117.567 47.8607 117.567 48.374C117.567 48.878 117.479 49.3587 117.301 49.816C117.124 50.2733 116.872 50.6747 116.545 51.02C116.228 51.3653 115.845 51.6407 115.397 51.846C114.959 52.042 114.473 52.14 113.941 52.14ZM111.295 48.388C111.295 48.7987 111.365 49.1813 111.505 49.536C111.645 49.8813 111.832 50.1893 112.065 50.46C112.308 50.7213 112.588 50.9267 112.905 51.076C113.232 51.2253 113.577 51.3 113.941 51.3C114.305 51.3 114.646 51.2253 114.963 51.076C115.29 50.9173 115.575 50.7073 115.817 50.446C116.06 50.1753 116.251 49.8627 116.391 49.508C116.531 49.1533 116.601 48.7707 116.601 48.36C116.601 47.9587 116.531 47.5807 116.391 47.226C116.251 46.862 116.06 46.5493 115.817 46.288C115.575 46.0173 115.29 45.8073 114.963 45.658C114.646 45.4993 114.305 45.42 113.941 45.42C113.577 45.42 113.237 45.4993 112.919 45.658C112.602 45.8073 112.322 46.0173 112.079 46.288C111.837 46.5587 111.645 46.876 111.505 47.24C111.365 47.5947 111.295 47.9773 111.295 48.388ZM122.799 45.546C122.155 45.5647 121.595 45.742 121.119 46.078C120.643 46.414 120.307 46.876 120.111 47.464V52H119.159V44.706H120.055V46.456C120.326 45.896 120.69 45.4573 121.147 45.14C121.605 44.8227 122.095 44.664 122.617 44.664C122.692 44.664 122.753 44.6687 122.799 44.678V45.546ZM134.966 49.438C134.966 49.8113 134.891 50.1567 134.742 50.474C134.593 50.782 134.392 51.0527 134.14 51.286C133.888 51.51 133.594 51.6873 133.258 51.818C132.922 51.9393 132.563 52 132.18 52H127.49V42.06H132.278C132.623 42.06 132.936 42.1347 133.216 42.284C133.496 42.4333 133.734 42.6293 133.93 42.872C134.126 43.1053 134.275 43.376 134.378 43.684C134.49 43.9827 134.546 44.286 134.546 44.594C134.546 45.098 134.42 45.56 134.168 45.98C133.916 46.3907 133.566 46.6987 133.118 46.904C133.687 47.072 134.135 47.3847 134.462 47.842C134.798 48.2993 134.966 48.8313 134.966 49.438ZM133.986 49.27C133.986 49.0273 133.944 48.794 133.86 48.57C133.776 48.3367 133.655 48.136 133.496 47.968C133.347 47.7907 133.165 47.6507 132.95 47.548C132.745 47.436 132.521 47.38 132.278 47.38H128.47V51.146H132.18C132.432 51.146 132.665 51.0947 132.88 50.992C133.104 50.8893 133.295 50.754 133.454 50.586C133.622 50.4087 133.753 50.208 133.846 49.984C133.939 49.7507 133.986 49.5127 133.986 49.27ZM128.47 42.914V46.582H131.886C132.129 46.582 132.353 46.5307 132.558 46.428C132.773 46.3253 132.955 46.19 133.104 46.022C133.253 45.854 133.37 45.6627 133.454 45.448C133.538 45.224 133.58 44.9907 133.58 44.748C133.58 44.496 133.538 44.258 133.454 44.034C133.379 43.81 133.267 43.6187 133.118 43.46C132.978 43.292 132.81 43.1613 132.614 43.068C132.418 42.9653 132.203 42.914 131.97 42.914H128.47ZM138.9 52.14C138.107 52.14 137.514 51.8787 137.122 51.356C136.74 50.824 136.548 50.0353 136.548 48.99V44.706H137.5V48.822C137.5 50.474 138.065 51.3 139.194 51.3C139.474 51.3 139.75 51.2533 140.02 51.16C140.291 51.0667 140.538 50.9313 140.762 50.754C140.996 50.5767 141.201 50.3667 141.378 50.124C141.565 49.8813 141.714 49.606 141.826 49.298V44.706H142.778V50.768C142.778 51.0293 142.89 51.16 143.114 51.16V52C143.002 52.0187 142.909 52.028 142.834 52.028C142.769 52.028 142.722 52.028 142.694 52.028C142.47 52.0187 142.288 51.9393 142.148 51.79C142.008 51.6407 141.938 51.44 141.938 51.188V50.348C141.621 50.9173 141.187 51.3607 140.636 51.678C140.095 51.986 139.516 52.14 138.9 52.14ZM147.353 52.14C146.784 52.14 146.228 52.0467 145.687 51.86C145.146 51.6733 144.679 51.4027 144.287 51.048L144.721 50.404C145.132 50.74 145.547 50.992 145.967 51.16C146.396 51.328 146.854 51.412 147.339 51.412C147.927 51.412 148.394 51.2953 148.739 51.062C149.094 50.8193 149.271 50.4787 149.271 50.04C149.271 49.8347 149.224 49.6667 149.131 49.536C149.038 49.396 148.898 49.2747 148.711 49.172C148.534 49.0693 148.305 48.9807 148.025 48.906C147.754 48.822 147.437 48.738 147.073 48.654C146.653 48.5513 146.289 48.4487 145.981 48.346C145.673 48.2433 145.416 48.1267 145.211 47.996C145.015 47.8653 144.866 47.7067 144.763 47.52C144.67 47.324 144.623 47.0813 144.623 46.792C144.623 46.428 144.693 46.106 144.833 45.826C144.982 45.546 145.178 45.3173 145.421 45.14C145.673 44.9533 145.962 44.8133 146.289 44.72C146.625 44.6267 146.98 44.58 147.353 44.58C147.913 44.58 148.422 44.6733 148.879 44.86C149.336 45.0373 149.705 45.2753 149.985 45.574L149.523 46.134C149.252 45.854 148.921 45.644 148.529 45.504C148.146 45.364 147.745 45.294 147.325 45.294C147.073 45.294 146.84 45.322 146.625 45.378C146.41 45.4247 146.219 45.504 146.051 45.616C145.892 45.728 145.766 45.8727 145.673 46.05C145.58 46.218 145.533 46.4187 145.533 46.652C145.533 46.848 145.566 47.0067 145.631 47.128C145.696 47.2493 145.804 47.3567 145.953 47.45C146.102 47.534 146.289 47.6133 146.513 47.688C146.746 47.7533 147.026 47.8233 147.353 47.898C147.82 48.01 148.23 48.122 148.585 48.234C148.94 48.346 149.234 48.4767 149.467 48.626C149.71 48.7753 149.892 48.9573 150.013 49.172C150.134 49.3867 150.195 49.648 150.195 49.956C150.195 50.628 149.938 51.16 149.425 51.552C148.912 51.944 148.221 52.14 147.353 52.14ZM151.753 52V44.706H152.705V52H151.753ZM151.753 43.18V41.78H152.705V43.18H151.753ZM160.934 52H159.982V47.926C159.982 47.058 159.851 46.428 159.59 46.036C159.338 45.644 158.946 45.448 158.414 45.448C158.134 45.448 157.854 45.4993 157.574 45.602C157.294 45.7047 157.033 45.8493 156.79 46.036C156.557 46.2227 156.347 46.4467 156.16 46.708C155.973 46.96 155.838 47.2353 155.754 47.534V52H154.802V44.706H155.67V46.358C155.969 45.826 156.393 45.3967 156.944 45.07C157.504 44.7433 158.111 44.58 158.764 44.58C159.165 44.58 159.506 44.6547 159.786 44.804C160.066 44.9533 160.29 45.1633 160.458 45.434C160.626 45.7047 160.747 46.036 160.822 46.428C160.897 46.82 160.934 47.254 160.934 47.73V52ZM166.114 52.14C165.582 52.14 165.092 52.042 164.644 51.846C164.205 51.6407 163.823 51.3653 163.496 51.02C163.169 50.6653 162.913 50.2593 162.726 49.802C162.549 49.3447 162.46 48.8547 162.46 48.332C162.46 47.8187 162.549 47.338 162.726 46.89C162.913 46.4327 163.165 46.036 163.482 45.7C163.809 45.3547 164.196 45.084 164.644 44.888C165.092 44.6827 165.577 44.58 166.1 44.58C166.632 44.58 167.117 44.6827 167.556 44.888C168.004 45.084 168.387 45.3547 168.704 45.7C169.021 46.0453 169.269 46.442 169.446 46.89C169.623 47.338 169.712 47.814 169.712 48.318C169.712 48.3927 169.712 48.4673 169.712 48.542C169.712 48.6167 169.707 48.668 169.698 48.696H163.454C163.482 49.088 163.571 49.452 163.72 49.788C163.879 50.1147 164.079 50.3993 164.322 50.642C164.565 50.8847 164.84 51.076 165.148 51.216C165.465 51.3467 165.801 51.412 166.156 51.412C166.389 51.412 166.623 51.3793 166.856 51.314C167.089 51.2487 167.304 51.16 167.5 51.048C167.696 50.936 167.873 50.8007 168.032 50.642C168.191 50.474 168.312 50.292 168.396 50.096L169.222 50.32C169.11 50.5907 168.951 50.838 168.746 51.062C168.541 51.2767 168.303 51.468 168.032 51.636C167.761 51.7947 167.463 51.916 167.136 52C166.809 52.0933 166.469 52.14 166.114 52.14ZM168.802 47.968C168.774 47.576 168.681 47.2213 168.522 46.904C168.373 46.5773 168.177 46.2973 167.934 46.064C167.701 45.8307 167.425 45.6487 167.108 45.518C166.8 45.3873 166.469 45.322 166.114 45.322C165.759 45.322 165.423 45.3873 165.106 45.518C164.789 45.6487 164.509 45.8307 164.266 46.064C164.033 46.2973 163.841 46.5773 163.692 46.904C163.552 47.2307 163.468 47.5853 163.44 47.968H168.802ZM173.603 52.14C173.034 52.14 172.478 52.0467 171.937 51.86C171.396 51.6733 170.929 51.4027 170.537 51.048L170.971 50.404C171.382 50.74 171.797 50.992 172.217 51.16C172.646 51.328 173.104 51.412 173.589 51.412C174.177 51.412 174.644 51.2953 174.989 51.062C175.344 50.8193 175.521 50.4787 175.521 50.04C175.521 49.8347 175.474 49.6667 175.381 49.536C175.288 49.396 175.148 49.2747 174.961 49.172C174.784 49.0693 174.555 48.9807 174.275 48.906C174.004 48.822 173.687 48.738 173.323 48.654C172.903 48.5513 172.539 48.4487 172.231 48.346C171.923 48.2433 171.666 48.1267 171.461 47.996C171.265 47.8653 171.116 47.7067 171.013 47.52C170.92 47.324 170.873 47.0813 170.873 46.792C170.873 46.428 170.943 46.106 171.083 45.826C171.232 45.546 171.428 45.3173 171.671 45.14C171.923 44.9533 172.212 44.8133 172.539 44.72C172.875 44.6267 173.23 44.58 173.603 44.58C174.163 44.58 174.672 44.6733 175.129 44.86C175.586 45.0373 175.955 45.2753 176.235 45.574L175.773 46.134C175.502 45.854 175.171 45.644 174.779 45.504C174.396 45.364 173.995 45.294 173.575 45.294C173.323 45.294 173.09 45.322 172.875 45.378C172.66 45.4247 172.469 45.504 172.301 45.616C172.142 45.728 172.016 45.8727 171.923 46.05C171.83 46.218 171.783 46.4187 171.783 46.652C171.783 46.848 171.816 47.0067 171.881 47.128C171.946 47.2493 172.054 47.3567 172.203 47.45C172.352 47.534 172.539 47.6133 172.763 47.688C172.996 47.7533 173.276 47.8233 173.603 47.898C174.07 48.01 174.48 48.122 174.835 48.234C175.19 48.346 175.484 48.4767 175.717 48.626C175.96 48.7753 176.142 48.9573 176.263 49.172C176.384 49.3867 176.445 49.648 176.445 49.956C176.445 50.628 176.188 51.16 175.675 51.552C175.162 51.944 174.471 52.14 173.603 52.14ZM180.425 52.14C179.856 52.14 179.3 52.0467 178.759 51.86C178.218 51.6733 177.751 51.4027 177.359 51.048L177.793 50.404C178.204 50.74 178.619 50.992 179.039 51.16C179.468 51.328 179.926 51.412 180.411 51.412C180.999 51.412 181.466 51.2953 181.811 51.062C182.166 50.8193 182.343 50.4787 182.343 50.04C182.343 49.8347 182.296 49.6667 182.203 49.536C182.11 49.396 181.97 49.2747 181.783 49.172C181.606 49.0693 181.377 48.9807 181.097 48.906C180.826 48.822 180.509 48.738 180.145 48.654C179.725 48.5513 179.361 48.4487 179.053 48.346C178.745 48.2433 178.488 48.1267 178.283 47.996C178.087 47.8653 177.938 47.7067 177.835 47.52C177.742 47.324 177.695 47.0813 177.695 46.792C177.695 46.428 177.765 46.106 177.905 45.826C178.054 45.546 178.25 45.3173 178.493 45.14C178.745 44.9533 179.034 44.8133 179.361 44.72C179.697 44.6267 180.052 44.58 180.425 44.58C180.985 44.58 181.494 44.6733 181.951 44.86C182.408 45.0373 182.777 45.2753 183.057 45.574L182.595 46.134C182.324 45.854 181.993 45.644 181.601 45.504C181.218 45.364 180.817 45.294 180.397 45.294C180.145 45.294 179.912 45.322 179.697 45.378C179.482 45.4247 179.291 45.504 179.123 45.616C178.964 45.728 178.838 45.8727 178.745 46.05C178.652 46.218 178.605 46.4187 178.605 46.652C178.605 46.848 178.638 47.0067 178.703 47.128C178.768 47.2493 178.876 47.3567 179.025 47.45C179.174 47.534 179.361 47.6133 179.585 47.688C179.818 47.7533 180.098 47.8233 180.425 47.898C180.892 48.01 181.302 48.122 181.657 48.234C182.012 48.346 182.306 48.4767 182.539 48.626C182.782 48.7753 182.964 48.9573 183.085 49.172C183.206 49.3867 183.267 49.648 183.267 49.956C183.267 50.628 183.01 51.16 182.497 51.552C181.984 51.944 181.293 52.14 180.425 52.14Z" fill="white"/>
<path d="M3.5 16C5.433 16 7 14.433 7 12.5C7 10.567 5.433 9 3.5 9C1.567 9 0 10.567 0 12.5C0 14.433 1.567 16 3.5 16Z" fill="#333333"/>
<path d="M3.5 15.5C5.15685 15.5 6.5 14.1569 6.5 12.5C6.5 10.8431 5.15685 9.5 3.5 9.5C1.84315 9.5 0.5 10.8431 0.5 12.5C0.5 14.1569 1.84315 15.5 3.5 15.5Z" stroke="white"/>
<path d="M3.5 29C5.433 29 7 27.433 7 25.5C7 23.567 5.433 22 3.5 22C1.567 22 0 23.567 0 25.5C0 27.433 1.567 29 3.5 29Z" fill="#333333"/>
<path d="M3.5 28.5C5.15685 28.5 6.5 27.1569 6.5 25.5C6.5 23.8431 5.15685 22.5 3.5 22.5C1.84315 22.5 0.5 23.8431 0.5 25.5C0.5 27.1569 1.84315 28.5 3.5 28.5Z" stroke="white"/>
</svg>
