<svg width="132" height="38" viewBox="0 0 132 38" fill="none" xmlns="http://www.w3.org/2000/svg">
<path d="M20.1308 8.21792C20.0348 8.12189 19.8565 7.99158 19.5958 7.82696C19.3489 7.66235 19.0403 7.5046 18.6699 7.35371C18.3132 7.18909 17.9223 7.05192 17.497 6.94218C17.0718 6.83243 16.6397 6.77756 16.2007 6.77756C15.4188 6.77756 14.8358 6.9216 14.4517 7.20967C14.0676 7.49774 13.8756 7.90241 13.8756 8.42368C13.8756 8.72547 13.9441 8.97925 14.0813 9.18501C14.2322 9.37706 14.4448 9.54853 14.7192 9.69943C14.9935 9.85032 15.3365 9.9875 15.748 10.111C16.1733 10.2344 16.6602 10.3647 17.209 10.5019C17.9223 10.694 18.567 10.8997 19.1431 11.1192C19.733 11.3387 20.2268 11.613 20.6246 11.9423C21.0362 12.2715 21.3517 12.6693 21.5712 13.1357C21.7906 13.5884 21.9004 14.1508 21.9004 14.823C21.9004 15.6049 21.7495 16.277 21.4477 16.8395C21.1596 17.3882 20.7618 17.834 20.2543 18.1769C19.7604 18.5199 19.1843 18.7737 18.5258 18.9383C17.8811 19.0892 17.2021 19.1646 16.4888 19.1646C15.3914 19.1646 14.3077 19 13.2377 18.6708C12.1677 18.3416 11.2075 17.8752 10.357 17.2716L11.6121 14.823C11.7356 14.9464 11.9551 15.111 12.2706 15.3168C12.5998 15.5089 12.9839 15.7078 13.4229 15.9135C13.8618 16.1056 14.3488 16.2702 14.8838 16.4074C15.4188 16.5445 15.9675 16.6131 16.5299 16.6131C18.0937 16.6131 18.8756 16.1124 18.8756 15.111C18.8756 14.7955 18.7865 14.528 18.6082 14.3086C18.4298 14.0891 18.176 13.897 17.8468 13.7324C17.5176 13.5678 17.1198 13.4169 16.6534 13.2797C16.187 13.1426 15.6657 12.9917 15.0896 12.8271C14.39 12.635 13.7795 12.4292 13.2583 12.2098C12.7507 11.9766 12.3255 11.7091 11.9825 11.4073C11.6396 11.0918 11.3789 10.7351 11.2006 10.3373C11.036 9.92577 10.9537 9.43879 10.9537 8.87637C10.9537 8.13561 11.0909 7.47717 11.3652 6.90102C11.6396 6.32488 12.0168 5.84476 12.4969 5.46067C12.9908 5.07657 13.5601 4.7885 14.2048 4.59646C14.8495 4.39069 15.5423 4.28781 16.283 4.28781C17.3118 4.28781 18.2584 4.45242 19.1226 4.78164C19.9868 5.09715 20.7412 5.47439 21.386 5.91335L20.1308 8.21792ZM34.1698 17.7243V19H24.3548V4.39069H33.9846V5.66643H25.7951V10.934H32.9352V12.148H25.7951V17.7243H34.1698ZM38.3339 7.06563V19H36.8936V4.39069H38.0047L47.6757 16.5514V4.41127H49.116V19H47.8608L38.3339 7.06563ZM58.7141 17.8066C59.6332 17.8066 60.3946 17.6351 60.9981 17.2922C61.6154 16.9355 62.1024 16.476 62.4591 15.9135C62.8294 15.3374 63.0832 14.6858 63.2204 13.9588C63.3713 13.2317 63.4467 12.4978 63.4467 11.7571V4.39069H64.8871V11.7571C64.8871 12.7447 64.7773 13.6844 64.5579 14.5761C64.3384 15.454 63.9817 16.229 63.4879 16.9012C63.0078 17.5734 62.3768 18.1084 61.5949 18.5062C60.8129 18.904 59.8596 19.1029 58.7347 19.1029C57.5824 19.1029 56.6085 18.8971 55.8129 18.4856C55.031 18.0603 54.3999 17.5048 53.9198 16.8189C53.4397 16.133 53.0968 15.3511 52.891 14.4732C52.6852 13.5952 52.5823 12.6899 52.5823 11.7571V4.39069H54.0021V11.7571C54.0021 12.5253 54.0776 13.2729 54.2285 13.9999C54.3794 14.7269 54.6331 15.3717 54.9898 15.9341C55.3602 16.4965 55.8472 16.9492 56.4507 17.2922C57.0543 17.6351 57.8088 17.8066 58.7141 17.8066ZM68.321 19V4.39069H74.4939C75.1249 4.39069 75.7011 4.52787 76.2223 4.80222C76.7573 5.06286 77.2169 5.41266 77.601 5.85162C77.985 6.27687 78.28 6.76385 78.4857 7.31255C78.7052 7.86126 78.815 8.41683 78.815 8.97925C78.815 9.51424 78.7327 10.0286 78.568 10.5225C78.4172 11.0026 78.1977 11.4416 77.9096 11.8394C77.6352 12.2235 77.2992 12.5527 76.9014 12.8271C76.5035 13.0877 76.0577 13.266 75.5639 13.362L79.1442 19H77.5186L74.0824 13.609H69.7613V19H68.321ZM69.7613 12.3332H74.5351C74.9603 12.3332 75.3444 12.2441 75.6873 12.0657C76.044 11.8737 76.3458 11.6199 76.5927 11.3044C76.8396 10.9889 77.0317 10.6322 77.1688 10.2344C77.306 9.8366 77.3746 9.41821 77.3746 8.97925C77.3746 8.54028 77.2923 8.12189 77.1277 7.72408C76.9768 7.31255 76.7642 6.95589 76.4898 6.65411C76.2292 6.35232 75.9137 6.11226 75.5433 5.93393C75.1866 5.7556 74.8094 5.66643 74.4116 5.66643H69.7613V12.3332ZM86.0698 4.39069H87.2838L93.3539 19H91.8312L89.9382 14.432H83.3743L81.5018 19H79.9586L86.0698 4.39069ZM89.6089 13.3003L86.6665 6.07796L83.6829 13.3003H89.6089ZM106.436 15.2345C106.436 15.7832 106.326 16.2908 106.107 16.7572C105.887 17.2098 105.592 17.6077 105.222 17.9506C104.852 18.2798 104.42 18.5405 103.926 18.7325C103.432 18.9108 102.904 19 102.341 19H95.4482V4.39069H102.485C102.993 4.39069 103.452 4.50043 103.864 4.71992C104.275 4.9394 104.625 5.22747 104.913 5.58413C105.201 5.92707 105.421 6.32488 105.572 6.77756C105.736 7.21653 105.819 7.66235 105.819 8.11504C105.819 8.85579 105.634 9.53481 105.263 10.1521C104.893 10.7557 104.378 11.2084 103.72 11.5102C104.557 11.7571 105.215 12.2166 105.695 12.8888C106.189 13.5609 106.436 14.3429 106.436 15.2345ZM104.996 14.9876C104.996 14.6309 104.934 14.288 104.81 13.9588C104.687 13.6158 104.509 13.3209 104.275 13.074C104.056 12.8133 103.788 12.6076 103.473 12.4567C103.171 12.2921 102.842 12.2098 102.485 12.2098H96.8885V17.7448H102.341C102.712 17.7448 103.055 17.6694 103.37 17.5185C103.699 17.3676 103.981 17.1687 104.214 16.9218C104.461 16.6611 104.653 16.3662 104.79 16.037C104.927 15.694 104.996 15.3442 104.996 14.9876ZM96.8885 5.64586V11.0369H101.909C102.266 11.0369 102.595 10.9615 102.897 10.8106C103.212 10.6597 103.48 10.4608 103.699 10.2138C103.919 9.96692 104.09 9.68571 104.214 9.3702C104.337 9.04098 104.399 8.69804 104.399 8.34138C104.399 7.971 104.337 7.6212 104.214 7.29198C104.104 6.96275 103.939 6.68154 103.72 6.44834C103.514 6.20142 103.267 6.00938 102.979 5.8722C102.691 5.7213 102.376 5.64586 102.033 5.64586H96.8885ZM109.152 19V4.39069H110.593V17.7243H119.029V19H109.152ZM130.964 17.7243V19H121.149V4.39069H130.778V5.66643H122.589V10.934H129.729V12.148H122.589V17.7243H130.964Z" fill="white"/>
<path d="M13.3227 28.9797H13.9565L14.9167 31.3995L15.8866 28.9797H16.5299L15.3392 31.8892L16.6452 34.9716L19.113 28.9317H19.8427L16.9524 35.7494H16.3571L14.9263 32.379L13.486 35.7494H12.9002L10.0195 28.9317H10.7397L13.2171 34.9716L14.5134 31.8892L13.3227 28.9797ZM22.2092 35.8454C21.8443 35.8454 21.5082 35.7782 21.2009 35.6438C20.9001 35.5029 20.6376 35.3141 20.4136 35.0772C20.1895 34.834 20.0135 34.5555 19.8854 34.2418C19.7638 33.9281 19.703 33.5921 19.703 33.2336C19.703 32.8815 19.7638 32.5518 19.8854 32.2445C20.0135 31.9309 20.1863 31.6588 20.404 31.4283C20.628 31.1915 20.8937 31.0058 21.2009 30.8714C21.5082 30.7306 21.8411 30.6601 22.1996 30.6601C22.5645 30.6601 22.8974 30.7306 23.1982 30.8714C23.5055 31.0058 23.768 31.1915 23.9856 31.4283C24.2033 31.6652 24.3729 31.9373 24.4946 32.2445C24.6162 32.5518 24.677 32.8783 24.677 33.224C24.677 33.2752 24.677 33.3264 24.677 33.3776C24.677 33.4288 24.6738 33.464 24.6674 33.4832H20.3847C20.404 33.7521 20.4648 34.0018 20.5672 34.2322C20.676 34.4563 20.8137 34.6515 20.9801 34.818C21.1465 34.9844 21.3354 35.1156 21.5466 35.2117C21.7643 35.3013 21.9947 35.3461 22.238 35.3461C22.398 35.3461 22.5581 35.3237 22.7181 35.2789C22.8782 35.2341 23.0254 35.1732 23.1598 35.0964C23.2943 35.0196 23.4159 34.9268 23.5247 34.818C23.6335 34.7027 23.7168 34.5779 23.7744 34.4435L24.3409 34.5971C24.2641 34.7828 24.1553 34.9524 24.0144 35.106C23.8736 35.2533 23.7104 35.3845 23.5247 35.4997C23.3391 35.6086 23.1342 35.6918 22.9102 35.7494C22.6861 35.8134 22.4525 35.8454 22.2092 35.8454ZM24.0529 32.9839C24.0336 32.715 23.9696 32.4718 23.8608 32.2541C23.7584 32.0301 23.6239 31.838 23.4575 31.678C23.2975 31.5179 23.1086 31.3931 22.891 31.3035C22.6797 31.2139 22.4525 31.1691 22.2092 31.1691C21.9659 31.1691 21.7355 31.2139 21.5178 31.3035C21.3002 31.3931 21.1081 31.5179 20.9417 31.678C20.7816 31.838 20.6504 32.0301 20.548 32.2541C20.452 32.4782 20.3944 32.7214 20.3751 32.9839H24.0529ZM28.133 35.8454C27.7361 35.8454 27.3712 35.7462 27.0384 35.5477C26.7119 35.3493 26.4558 35.0932 26.2702 34.7796V35.7494H25.6844V28.7397H26.3374V31.7932C26.5614 31.4539 26.8303 31.1819 27.144 30.977C27.4577 30.7658 27.8226 30.6601 28.2387 30.6601C28.5907 30.6601 28.9044 30.7338 29.1797 30.881C29.4614 31.0282 29.6982 31.2267 29.8903 31.4763C30.0887 31.7196 30.2391 31.9981 30.3416 32.3117C30.4504 32.619 30.5048 32.9359 30.5048 33.2624C30.5048 33.6145 30.444 33.9473 30.3224 34.261C30.2007 34.5747 30.0343 34.85 29.823 35.0868C29.6118 35.3173 29.3589 35.5029 29.0645 35.6438C28.7764 35.7782 28.4659 35.8454 28.133 35.8454ZM27.9794 35.2693C28.2547 35.2693 28.5043 35.2149 28.7284 35.106C28.9588 34.9908 29.1541 34.8404 29.3141 34.6547C29.4806 34.4627 29.6086 34.2482 29.6982 34.0114C29.7942 33.7681 29.8423 33.5184 29.8423 33.2624C29.8423 32.9999 29.7974 32.7471 29.7078 32.5038C29.6246 32.2605 29.503 32.0461 29.3429 31.8604C29.1893 31.6684 29.0004 31.5179 28.7764 31.4091C28.5587 31.2939 28.3187 31.2363 28.0562 31.2363C27.8578 31.2363 27.6721 31.2715 27.4993 31.3419C27.3264 31.4059 27.1664 31.4955 27.0192 31.6108C26.8719 31.726 26.7407 31.8604 26.6255 32.0141C26.5102 32.1613 26.4142 32.3181 26.3374 32.4846V34.0402C26.363 34.213 26.4302 34.3763 26.539 34.5299C26.6543 34.6771 26.7887 34.8052 26.9423 34.914C27.1024 35.0228 27.272 35.1092 27.4513 35.1732C27.6369 35.2373 27.813 35.2693 27.9794 35.2693ZM38.1778 30.2088C37.9857 29.9912 37.7297 29.8151 37.4096 29.6807C37.0895 29.5463 36.7246 29.479 36.3149 29.479C35.7132 29.479 35.2747 29.5943 34.9994 29.8247C34.7241 30.0488 34.5865 30.3561 34.5865 30.7466C34.5865 30.9514 34.6217 31.1211 34.6921 31.2555C34.7689 31.3835 34.8842 31.4955 35.0378 31.5916C35.1914 31.6876 35.3867 31.7708 35.6235 31.8412C35.8668 31.9116 36.1517 31.9821 36.4782 32.0525C36.843 32.1293 37.1695 32.2157 37.4576 32.3117C37.7521 32.4078 38.0017 32.5294 38.2066 32.6766C38.4114 32.8175 38.5683 32.9903 38.6771 33.1952C38.7859 33.4 38.8403 33.6561 38.8403 33.9634C38.8403 34.277 38.7795 34.5491 38.6579 34.7796C38.5363 35.01 38.3666 35.2021 38.149 35.3557C37.9313 35.5093 37.6721 35.6246 37.3712 35.7014C37.0703 35.7718 36.7406 35.807 36.3821 35.807C35.3259 35.807 34.4136 35.4773 33.6455 34.818L33.9815 34.2706C34.1032 34.3987 34.2472 34.5203 34.4136 34.6355C34.5865 34.7507 34.7753 34.8532 34.9802 34.9428C35.1914 35.026 35.4155 35.0932 35.6524 35.1444C35.8892 35.1893 36.1389 35.2117 36.4013 35.2117C36.9455 35.2117 37.368 35.1156 37.6688 34.9236C37.9761 34.7251 38.1298 34.4275 38.1298 34.0306C38.1298 33.8193 38.085 33.6433 37.9953 33.5024C37.9121 33.3552 37.7841 33.2304 37.6112 33.1279C37.4384 33.0191 37.2239 32.9263 36.9679 32.8495C36.7118 32.7727 36.4141 32.6958 36.0749 32.619C35.7164 32.5358 35.4027 32.4494 35.1338 32.3598C34.865 32.2701 34.6377 32.1581 34.4521 32.0237C34.2664 31.8892 34.1256 31.7292 34.0296 31.5436C33.9399 31.3515 33.8951 31.1179 33.8951 30.8426C33.8951 30.5289 33.9527 30.2504 34.068 30.0072C34.1896 29.7575 34.3592 29.5527 34.5769 29.3926C34.7945 29.2262 35.0506 29.1014 35.3451 29.0181C35.6396 28.9285 35.966 28.8837 36.3245 28.8837C36.779 28.8837 37.1823 28.9541 37.5344 29.095C37.8929 29.2294 38.2162 29.4214 38.5043 29.6711L38.1778 30.2088ZM42.0516 35.8454C41.6867 35.8454 41.3506 35.7782 41.0433 35.6438C40.7425 35.5029 40.48 35.3141 40.2559 35.0772C40.0319 34.834 39.8558 34.5555 39.7278 34.2418C39.6062 33.9281 39.5454 33.5921 39.5454 33.2336C39.5454 32.8815 39.6062 32.5518 39.7278 32.2445C39.8558 31.9309 40.0287 31.6588 40.2463 31.4283C40.4704 31.1915 40.7361 31.0058 41.0433 30.8714C41.3506 30.7306 41.6835 30.6601 42.042 30.6601C42.4069 30.6601 42.7397 30.7306 43.0406 30.8714C43.3479 31.0058 43.6104 31.1915 43.828 31.4283C44.0457 31.6652 44.2153 31.9373 44.3369 32.2445C44.4586 32.5518 44.5194 32.8783 44.5194 33.224C44.5194 33.2752 44.5194 33.3264 44.5194 33.3776C44.5194 33.4288 44.5162 33.464 44.5098 33.4832H40.2271C40.2463 33.7521 40.3071 34.0018 40.4096 34.2322C40.5184 34.4563 40.656 34.6515 40.8225 34.818C40.9889 34.9844 41.1778 35.1156 41.389 35.2117C41.6067 35.3013 41.8371 35.3461 42.0804 35.3461C42.2404 35.3461 42.4005 35.3237 42.5605 35.2789C42.7205 35.2341 42.8678 35.1732 43.0022 35.0964C43.1366 35.0196 43.2583 34.9268 43.3671 34.818C43.4759 34.7027 43.5591 34.5779 43.6168 34.4435L44.1833 34.5971C44.1065 34.7828 43.9977 34.9524 43.8568 35.106C43.716 35.2533 43.5527 35.3845 43.3671 35.4997C43.1815 35.6086 42.9766 35.6918 42.7526 35.7494C42.5285 35.8134 42.2948 35.8454 42.0516 35.8454ZM43.8952 32.9839C43.876 32.715 43.812 32.4718 43.7032 32.2541C43.6008 32.0301 43.4663 31.838 43.2999 31.678C43.1398 31.5179 42.951 31.3931 42.7333 31.3035C42.5221 31.2139 42.2948 31.1691 42.0516 31.1691C41.8083 31.1691 41.5779 31.2139 41.3602 31.3035C41.1426 31.3931 40.9505 31.5179 40.7841 31.678C40.624 31.838 40.4928 32.0301 40.3904 32.2541C40.2943 32.4782 40.2367 32.7214 40.2175 32.9839H43.8952ZM48.0234 31.3227C47.5817 31.3355 47.1976 31.4571 46.8711 31.6876C46.5447 31.918 46.3142 32.2349 46.1798 32.6382V35.7494H45.5268V30.7466H46.1414V31.9469C46.327 31.5628 46.5767 31.2619 46.8903 31.0442C47.204 30.8266 47.5401 30.7178 47.8986 30.7178C47.9498 30.7178 47.9914 30.721 48.0234 30.7274V31.3227ZM50.3912 35.7494L48.3555 30.7466H49.0277L50.7465 35.1444L52.4749 30.7466H53.1087L51.073 35.7494H50.3912ZM54.0133 35.7494V30.7466H54.6662V35.7494H54.0133ZM54.0133 29.6999V28.7397H54.6662V29.6999H54.0133ZM55.7587 33.2336C55.7587 32.8815 55.8195 32.5486 55.9412 32.2349C56.0628 31.9212 56.2324 31.6492 56.4501 31.4187C56.6741 31.1819 56.9398 30.9962 57.2471 30.8618C57.5544 30.7274 57.8936 30.6601 58.2649 30.6601C58.7387 30.6601 59.1516 30.769 59.5036 30.9866C59.8557 31.1979 60.1214 31.4859 60.3006 31.8508L59.6669 32.0525C59.5261 31.7964 59.3276 31.598 59.0715 31.4571C58.8219 31.3099 58.5434 31.2363 58.2361 31.2363C57.9801 31.2363 57.74 31.2875 57.516 31.3899C57.2983 31.4923 57.1063 31.6332 56.9398 31.8124C56.7798 31.9853 56.6517 32.1933 56.5557 32.4366C56.4661 32.6798 56.4213 32.9455 56.4213 33.2336C56.4213 33.5152 56.4693 33.7809 56.5653 34.0306C56.6613 34.2802 56.7926 34.4979 56.959 34.6835C57.1255 34.8628 57.3175 35.0068 57.5352 35.1156C57.7592 35.2181 57.9961 35.2693 58.2457 35.2693C58.4058 35.2693 58.5626 35.2469 58.7163 35.2021C58.8763 35.1572 59.0235 35.0964 59.158 35.0196C59.2924 34.9364 59.4076 34.8436 59.5036 34.7411C59.5997 34.6387 59.6669 34.5299 59.7053 34.4147L60.3487 34.6067C60.2782 34.786 60.1758 34.9524 60.0414 35.106C59.9069 35.2533 59.7469 35.3845 59.5613 35.4997C59.382 35.6086 59.1804 35.6918 58.9563 35.7494C58.7387 35.8134 58.5114 35.8454 58.2745 35.8454C57.9097 35.8454 57.5736 35.7782 57.2663 35.6438C56.959 35.5029 56.6934 35.3141 56.4693 35.0772C56.2452 34.834 56.0692 34.5555 55.9412 34.2418C55.8195 33.9281 55.7587 33.5921 55.7587 33.2336ZM63.4881 35.8454C63.1232 35.8454 62.7871 35.7782 62.4799 35.6438C62.179 35.5029 61.9165 35.3141 61.6925 35.0772C61.4684 34.834 61.2924 34.5555 61.1643 34.2418C61.0427 33.9281 60.9819 33.5921 60.9819 33.2336C60.9819 32.8815 61.0427 32.5518 61.1643 32.2445C61.2924 31.9309 61.4652 31.6588 61.6829 31.4283C61.9069 31.1915 62.1726 31.0058 62.4799 30.8714C62.7871 30.7306 63.12 30.6601 63.4785 30.6601C63.8434 30.6601 64.1763 30.7306 64.4771 30.8714C64.7844 31.0058 65.0469 31.1915 65.2645 31.4283C65.4822 31.6652 65.6518 31.9373 65.7735 32.2445C65.8951 32.5518 65.9559 32.8783 65.9559 33.224C65.9559 33.2752 65.9559 33.3264 65.9559 33.3776C65.9559 33.4288 65.9527 33.464 65.9463 33.4832H61.6637C61.6829 33.7521 61.7437 34.0018 61.8461 34.2322C61.9549 34.4563 62.0926 34.6515 62.259 34.818C62.4254 34.9844 62.6143 35.1156 62.8255 35.2117C63.0432 35.3013 63.2736 35.3461 63.5169 35.3461C63.6769 35.3461 63.837 35.3237 63.997 35.2789C64.1571 35.2341 64.3043 35.1732 64.4387 35.0964C64.5732 35.0196 64.6948 34.9268 64.8036 34.818C64.9125 34.7027 64.9957 34.5779 65.0533 34.4435L65.6198 34.5971C65.543 34.7828 65.4342 34.9524 65.2933 35.106C65.1525 35.2533 64.9893 35.3845 64.8036 35.4997C64.618 35.6086 64.4131 35.6918 64.1891 35.7494C63.965 35.8134 63.7314 35.8454 63.4881 35.8454ZM65.3318 32.9839C65.3125 32.715 65.2485 32.4718 65.1397 32.2541C65.0373 32.0301 64.9028 31.838 64.7364 31.678C64.5764 31.5179 64.3875 31.3931 64.1699 31.3035C63.9586 31.2139 63.7314 31.1691 63.4881 31.1691C63.2448 31.1691 63.0144 31.2139 62.7967 31.3035C62.5791 31.3931 62.387 31.5179 62.2206 31.678C62.0605 31.838 61.9293 32.0301 61.8269 32.2541C61.7309 32.4782 61.6733 32.7214 61.654 32.9839H65.3318ZM68.6245 35.8454C68.234 35.8454 67.8531 35.7814 67.4819 35.6534C67.1106 35.5253 66.7905 35.3397 66.5216 35.0964L66.8193 34.6547C67.101 34.8852 67.3858 35.058 67.6739 35.1732C67.9684 35.2885 68.2821 35.3461 68.6149 35.3461C69.0182 35.3461 69.3383 35.2661 69.5752 35.106C69.8184 34.9396 69.9401 34.7059 69.9401 34.4051C69.9401 34.2642 69.9081 34.149 69.844 34.0594C69.78 33.9634 69.684 33.8801 69.556 33.8097C69.4343 33.7393 69.2775 33.6785 69.0855 33.6273C68.8998 33.5697 68.6822 33.512 68.4325 33.4544C68.1444 33.384 67.8948 33.3136 67.6835 33.2432C67.4723 33.1728 67.2962 33.0927 67.1554 33.0031C67.0209 32.9135 66.9185 32.8047 66.8481 32.6766C66.7841 32.5422 66.7521 32.3758 66.7521 32.1773C66.7521 31.9276 66.8001 31.7068 66.8961 31.5147C66.9985 31.3227 67.133 31.1659 67.2994 31.0442C67.4723 30.9162 67.6707 30.8202 67.8948 30.7562C68.1252 30.6921 68.3685 30.6601 68.6245 30.6601C69.0086 30.6601 69.3575 30.7242 69.6712 30.8522C69.9849 30.9738 70.2377 31.1371 70.4298 31.3419L70.1129 31.726C69.9273 31.534 69.7 31.3899 69.4311 31.2939C69.1687 31.1979 68.8934 31.1499 68.6053 31.1499C68.4325 31.1499 68.2725 31.1691 68.1252 31.2075C67.978 31.2395 67.8467 31.2939 67.7315 31.3707C67.6227 31.4475 67.5363 31.5468 67.4723 31.6684C67.4082 31.7836 67.3762 31.9212 67.3762 32.0813C67.3762 32.2157 67.3986 32.3245 67.4434 32.4078C67.4883 32.491 67.5619 32.5646 67.6643 32.6286C67.7667 32.6862 67.8948 32.7406 68.0484 32.7919C68.2084 32.8367 68.4005 32.8847 68.6245 32.9359C68.9446 33.0127 69.2263 33.0895 69.4695 33.1664C69.7128 33.2432 69.9145 33.3328 70.0745 33.4352C70.2409 33.5376 70.3658 33.6625 70.449 33.8097C70.5322 33.9569 70.5738 34.1362 70.5738 34.3474C70.5738 34.8084 70.3978 35.1732 70.0457 35.4421C69.6936 35.711 69.2199 35.8454 68.6245 35.8454ZM74.3301 35.7494V31.2651H73.6388V30.7466H74.3301V30.6121C74.3301 29.9976 74.4614 29.5175 74.7238 29.1718C74.9863 28.8197 75.3448 28.6436 75.7993 28.6436C75.9978 28.6436 76.1898 28.6724 76.3754 28.7301C76.5611 28.7877 76.7211 28.8645 76.8556 28.9605L76.6539 29.431C76.5643 29.3606 76.4523 29.3062 76.3178 29.2678C76.1898 29.2294 76.0586 29.2102 75.9241 29.2102C75.6169 29.2102 75.3832 29.3286 75.2232 29.5655C75.0631 29.8023 74.9831 30.1448 74.9831 30.5929V30.7466H76.3658V31.2651H74.9831V35.7494H74.3301ZM79.1381 35.8454C78.7733 35.8454 78.4404 35.7782 78.1395 35.6438C77.8386 35.5029 77.5762 35.3141 77.3521 35.0772C77.1345 34.8404 76.9648 34.5651 76.8432 34.2514C76.7216 33.9377 76.6607 33.6081 76.6607 33.2624C76.6607 32.9103 76.7216 32.5774 76.8432 32.2637C76.9712 31.9501 77.1441 31.6748 77.3617 31.4379C77.5858 31.2011 77.8482 31.0122 78.1491 30.8714C78.45 30.7306 78.7797 30.6601 79.1381 30.6601C79.4966 30.6601 79.8263 30.7306 80.1272 30.8714C80.4345 31.0122 80.6969 31.2011 80.9146 31.4379C81.1386 31.6748 81.3115 31.9501 81.4331 32.2637C81.5611 32.5774 81.6252 32.9103 81.6252 33.2624C81.6252 33.6081 81.5643 33.9377 81.4427 34.2514C81.3211 34.5651 81.1482 34.8404 80.9242 35.0772C80.7065 35.3141 80.4441 35.5029 80.1368 35.6438C79.8359 35.7782 79.503 35.8454 79.1381 35.8454ZM77.3233 33.272C77.3233 33.5536 77.3713 33.8161 77.4673 34.0594C77.5634 34.2962 77.6914 34.5075 77.8514 34.6931C78.0179 34.8724 78.2099 35.0132 78.4276 35.1156C78.6516 35.2181 78.8885 35.2693 79.1381 35.2693C79.3878 35.2693 79.6215 35.2181 79.8391 35.1156C80.0632 35.0068 80.2584 34.8628 80.4249 34.6835C80.5913 34.4979 80.7225 34.2834 80.8186 34.0402C80.9146 33.7969 80.9626 33.5344 80.9626 33.2528C80.9626 32.9775 80.9146 32.7182 80.8186 32.475C80.7225 32.2253 80.5913 32.0109 80.4249 31.8316C80.2584 31.646 80.0632 31.5019 79.8391 31.3995C79.6215 31.2907 79.3878 31.2363 79.1381 31.2363C78.8885 31.2363 78.6548 31.2907 78.4372 31.3995C78.2195 31.5019 78.0275 31.646 77.861 31.8316C77.6946 32.0173 77.5634 32.2349 77.4673 32.4846C77.3713 32.7278 77.3233 32.9903 77.3233 33.272ZM85.2138 31.3227C84.7721 31.3355 84.388 31.4571 84.0615 31.6876C83.7351 31.918 83.5046 32.2349 83.3702 32.6382V35.7494H82.7172V30.7466H83.3318V31.9469C83.5174 31.5628 83.7671 31.2619 84.0807 31.0442C84.3944 30.8266 84.7305 30.7178 85.089 30.7178C85.1402 30.7178 85.1818 30.721 85.2138 30.7274V31.3227ZM93.5588 33.9922C93.5588 34.2482 93.5076 34.4851 93.4052 34.7027C93.3027 34.914 93.1651 35.0996 92.9923 35.2597C92.8194 35.4133 92.6178 35.5349 92.3873 35.6246C92.1568 35.7078 91.9104 35.7494 91.6479 35.7494H88.4311V28.9317H91.7151C91.952 28.9317 92.1665 28.9829 92.3585 29.0854C92.5505 29.1878 92.7138 29.3222 92.8482 29.4886C92.9827 29.6487 93.0851 29.8343 93.1555 30.0456C93.2323 30.2504 93.2707 30.4585 93.2707 30.6697C93.2707 31.0154 93.1843 31.3323 93.0115 31.6204C92.8386 31.902 92.5986 32.1133 92.2913 32.2541C92.6818 32.3694 92.9891 32.5838 93.2131 32.8975C93.4436 33.2112 93.5588 33.5761 93.5588 33.9922ZM92.8866 33.8769C92.8866 33.7105 92.8578 33.5504 92.8002 33.3968C92.7426 33.2368 92.6594 33.0991 92.5505 32.9839C92.4481 32.8623 92.3233 32.7663 92.1761 32.6958C92.0352 32.619 91.8816 32.5806 91.7151 32.5806H89.1033V35.1636H91.6479C91.8208 35.1636 91.9808 35.1284 92.128 35.058C92.2817 34.9876 92.4129 34.8948 92.5217 34.7796C92.637 34.6579 92.7266 34.5203 92.7906 34.3666C92.8546 34.2066 92.8866 34.0434 92.8866 33.8769ZM89.1033 29.5175V32.0333H91.4463C91.6127 32.0333 91.7664 31.9981 91.9072 31.9276C92.0544 31.8572 92.1793 31.7644 92.2817 31.6492C92.3841 31.534 92.4641 31.4027 92.5217 31.2555C92.5794 31.1018 92.6082 30.9418 92.6082 30.7754C92.6082 30.6025 92.5794 30.4393 92.5217 30.2856C92.4705 30.132 92.3937 30.0008 92.2913 29.8919C92.1953 29.7767 92.08 29.6871 91.9456 29.6231C91.8112 29.5527 91.6639 29.5175 91.5039 29.5175H89.1033ZM96.2572 35.8454C95.7131 35.8454 95.3066 35.6662 95.0377 35.3077C94.7752 34.9428 94.644 34.4019 94.644 33.6849V30.7466H95.297V33.5697C95.297 34.7027 95.6843 35.2693 96.4589 35.2693C96.6509 35.2693 96.8398 35.2373 97.0254 35.1732C97.211 35.1092 97.3807 35.0164 97.5343 34.8948C97.6944 34.7731 97.8352 34.6291 97.9568 34.4627C98.0849 34.2962 98.1873 34.1074 98.2641 33.8961V30.7466H98.9171V34.9044C98.9171 35.0836 98.9939 35.1732 99.1475 35.1732V35.7494C99.0707 35.7622 99.0067 35.7686 98.9555 35.7686C98.9107 35.7686 98.8787 35.7686 98.8594 35.7686C98.7058 35.7622 98.581 35.7078 98.485 35.6054C98.3889 35.5029 98.3409 35.3653 98.3409 35.1925V34.6163C98.1233 35.0068 97.8256 35.3109 97.4479 35.5285C97.0766 35.7398 96.6797 35.8454 96.2572 35.8454ZM102.055 35.8454C101.664 35.8454 101.283 35.7814 100.912 35.6534C100.541 35.5253 100.221 35.3397 99.9517 35.0964L100.249 34.6547C100.531 34.8852 100.816 35.058 101.104 35.1732C101.398 35.2885 101.712 35.3461 102.045 35.3461C102.448 35.3461 102.768 35.2661 103.005 35.106C103.249 34.9396 103.37 34.7059 103.37 34.4051C103.37 34.2642 103.338 34.149 103.274 34.0594C103.21 33.9634 103.114 33.8801 102.986 33.8097C102.864 33.7393 102.708 33.6785 102.516 33.6273C102.33 33.5697 102.112 33.512 101.863 33.4544C101.575 33.384 101.325 33.3136 101.114 33.2432C100.902 33.1728 100.726 33.0927 100.585 33.0031C100.451 32.9135 100.349 32.8047 100.278 32.6766C100.214 32.5422 100.182 32.3758 100.182 32.1773C100.182 31.9276 100.23 31.7068 100.326 31.5147C100.429 31.3227 100.563 31.1659 100.73 31.0442C100.902 30.9162 101.101 30.8202 101.325 30.7562C101.555 30.6921 101.799 30.6601 102.055 30.6601C102.439 30.6601 102.788 30.7242 103.101 30.8522C103.415 30.9738 103.668 31.1371 103.86 31.3419L103.543 31.726C103.357 31.534 103.13 31.3899 102.861 31.2939C102.599 31.1979 102.324 31.1499 102.035 31.1499C101.863 31.1499 101.703 31.1691 101.555 31.2075C101.408 31.2395 101.277 31.2939 101.162 31.3707C101.053 31.4475 100.966 31.5468 100.902 31.6684C100.838 31.7836 100.806 31.9212 100.806 32.0813C100.806 32.2157 100.829 32.3245 100.874 32.4078C100.918 32.491 100.992 32.5646 101.094 32.6286C101.197 32.6862 101.325 32.7406 101.478 32.7919C101.639 32.8367 101.831 32.8847 102.055 32.9359C102.375 33.0127 102.656 33.0895 102.9 33.1664C103.143 33.2432 103.345 33.3328 103.505 33.4352C103.671 33.5376 103.796 33.6625 103.879 33.8097C103.962 33.9569 104.004 34.1362 104.004 34.3474C104.004 34.8084 103.828 35.1732 103.476 35.4421C103.124 35.711 102.65 35.8454 102.055 35.8454ZM105.073 35.7494V30.7466H105.726V35.7494H105.073ZM105.073 29.6999V28.7397H105.726V29.6999H105.073ZM111.37 35.7494H110.717V32.9551C110.717 32.3598 110.627 31.9276 110.448 31.6588C110.275 31.3899 110.006 31.2555 109.641 31.2555C109.449 31.2555 109.257 31.2907 109.065 31.3611C108.873 31.4315 108.694 31.5308 108.527 31.6588C108.367 31.7868 108.223 31.9405 108.095 32.1197C107.967 32.2925 107.874 32.4814 107.817 32.6862V35.7494H107.164V30.7466H107.759V31.8796C107.964 31.5147 108.255 31.2203 108.633 30.9962C109.017 30.7722 109.433 30.6601 109.881 30.6601C110.157 30.6601 110.39 30.7114 110.582 30.8138C110.774 30.9162 110.928 31.0602 111.043 31.2459C111.158 31.4315 111.242 31.6588 111.293 31.9276C111.344 32.1965 111.37 32.4942 111.37 32.8207V35.7494ZM114.923 35.8454C114.558 35.8454 114.222 35.7782 113.914 35.6438C113.614 35.5029 113.351 35.3141 113.127 35.0772C112.903 34.834 112.727 34.5555 112.599 34.2418C112.477 33.9281 112.416 33.5921 112.416 33.2336C112.416 32.8815 112.477 32.5518 112.599 32.2445C112.727 31.9309 112.9 31.6588 113.117 31.4283C113.341 31.1915 113.607 31.0058 113.914 30.8714C114.222 30.7306 114.555 30.6601 114.913 30.6601C115.278 30.6601 115.611 30.7306 115.912 30.8714C116.219 31.0058 116.481 31.1915 116.699 31.4283C116.917 31.6652 117.086 31.9373 117.208 32.2445C117.33 32.5518 117.39 32.8783 117.39 33.224C117.39 33.2752 117.39 33.3264 117.39 33.3776C117.39 33.4288 117.387 33.464 117.381 33.4832H113.098C113.117 33.7521 113.178 34.0018 113.281 34.2322C113.389 34.4563 113.527 34.6515 113.694 34.818C113.86 34.9844 114.049 35.1156 114.26 35.2117C114.478 35.3013 114.708 35.3461 114.951 35.3461C115.111 35.3461 115.272 35.3237 115.432 35.2789C115.592 35.2341 115.739 35.1732 115.873 35.0964C116.008 35.0196 116.129 34.9268 116.238 34.818C116.347 34.7027 116.43 34.5779 116.488 34.4435L117.054 34.5971C116.978 34.7828 116.869 34.9524 116.728 35.106C116.587 35.2533 116.424 35.3845 116.238 35.4997C116.053 35.6086 115.848 35.6918 115.624 35.7494C115.4 35.8134 115.166 35.8454 114.923 35.8454ZM116.766 32.9839C116.747 32.715 116.683 32.4718 116.574 32.2541C116.472 32.0301 116.337 31.838 116.171 31.678C116.011 31.5179 115.822 31.3931 115.604 31.3035C115.393 31.2139 115.166 31.1691 114.923 31.1691C114.679 31.1691 114.449 31.2139 114.231 31.3035C114.014 31.3931 113.822 31.5179 113.655 31.678C113.495 31.838 113.364 32.0301 113.261 32.2541C113.165 32.4782 113.108 32.7214 113.089 32.9839H116.766ZM120.059 35.8454C119.669 35.8454 119.288 35.7814 118.916 35.6534C118.545 35.5253 118.225 35.3397 117.956 35.0964L118.254 34.6547C118.535 34.8852 118.82 35.058 119.108 35.1732C119.403 35.2885 119.717 35.3461 120.049 35.3461C120.453 35.3461 120.773 35.2661 121.01 35.106C121.253 34.9396 121.375 34.7059 121.375 34.4051C121.375 34.2642 121.343 34.149 121.279 34.0594C121.215 33.9634 121.119 33.8801 120.99 33.8097C120.869 33.7393 120.712 33.6785 120.52 33.6273C120.334 33.5697 120.117 33.512 119.867 33.4544C119.579 33.384 119.329 33.3136 119.118 33.2432C118.907 33.1728 118.731 33.0927 118.59 33.0031C118.455 32.9135 118.353 32.8047 118.283 32.6766C118.219 32.5422 118.187 32.3758 118.187 32.1773C118.187 31.9276 118.235 31.7068 118.331 31.5147C118.433 31.3227 118.567 31.1659 118.734 31.0442C118.907 30.9162 119.105 30.8202 119.329 30.7562C119.56 30.6921 119.803 30.6601 120.059 30.6601C120.443 30.6601 120.792 30.7242 121.106 30.8522C121.419 30.9738 121.672 31.1371 121.864 31.3419L121.547 31.726C121.362 31.534 121.135 31.3899 120.866 31.2939C120.603 31.1979 120.328 31.1499 120.04 31.1499C119.867 31.1499 119.707 31.1691 119.56 31.2075C119.413 31.2395 119.281 31.2939 119.166 31.3707C119.057 31.4475 118.971 31.5468 118.907 31.6684C118.843 31.7836 118.811 31.9212 118.811 32.0813C118.811 32.2157 118.833 32.3245 118.878 32.4078C118.923 32.491 118.996 32.5646 119.099 32.6286C119.201 32.6862 119.329 32.7406 119.483 32.7919C119.643 32.8367 119.835 32.8847 120.059 32.9359C120.379 33.0127 120.661 33.0895 120.904 33.1664C121.147 33.2432 121.349 33.3328 121.509 33.4352C121.675 33.5376 121.8 33.6625 121.884 33.8097C121.967 33.9569 122.008 34.1362 122.008 34.3474C122.008 34.8084 121.832 35.1732 121.48 35.4421C121.128 35.711 120.654 35.8454 120.059 35.8454ZM124.738 35.8454C124.348 35.8454 123.967 35.7814 123.596 35.6534C123.224 35.5253 122.904 35.3397 122.635 35.0964L122.933 34.6547C123.215 34.8852 123.5 35.058 123.788 35.1732C124.082 35.2885 124.396 35.3461 124.729 35.3461C125.132 35.3461 125.452 35.2661 125.689 35.106C125.932 34.9396 126.054 34.7059 126.054 34.4051C126.054 34.2642 126.022 34.149 125.958 34.0594C125.894 33.9634 125.798 33.8801 125.67 33.8097C125.548 33.7393 125.391 33.6785 125.199 33.6273C125.014 33.5697 124.796 33.512 124.546 33.4544C124.258 33.384 124.009 33.3136 123.797 33.2432C123.586 33.1728 123.41 33.0927 123.269 33.0031C123.135 32.9135 123.032 32.8047 122.962 32.6766C122.898 32.5422 122.866 32.3758 122.866 32.1773C122.866 31.9276 122.914 31.7068 123.01 31.5147C123.112 31.3227 123.247 31.1659 123.413 31.0442C123.586 30.9162 123.785 30.8202 124.009 30.7562C124.239 30.6921 124.482 30.6601 124.738 30.6601C125.122 30.6601 125.471 30.7242 125.785 30.8522C126.099 30.9738 126.352 31.1371 126.544 31.3419L126.227 31.726C126.041 31.534 125.814 31.3899 125.545 31.2939C125.282 31.1979 125.007 31.1499 124.719 31.1499C124.546 31.1499 124.386 31.1691 124.239 31.2075C124.092 31.2395 123.961 31.2939 123.845 31.3707C123.736 31.4475 123.65 31.5468 123.586 31.6684C123.522 31.7836 123.49 31.9212 123.49 32.0813C123.49 32.2157 123.512 32.3245 123.557 32.4078C123.602 32.491 123.676 32.5646 123.778 32.6286C123.881 32.6862 124.009 32.7406 124.162 32.7919C124.322 32.8367 124.514 32.8847 124.738 32.9359C125.058 33.0127 125.34 33.0895 125.583 33.1664C125.827 33.2432 126.028 33.3328 126.188 33.4352C126.355 33.5376 126.48 33.6625 126.563 33.8097C126.646 33.9569 126.688 34.1362 126.688 34.3474C126.688 34.8084 126.512 35.1732 126.159 35.4421C125.807 35.711 125.334 35.8454 124.738 35.8454Z" fill="white"/>
<path d="M3.38805 10.9742C4.71395 10.9742 5.7888 9.89937 5.7888 8.57356C5.7888 7.24775 4.71395 6.17297 3.38805 6.17297C2.06216 6.17297 0.987305 7.24775 0.987305 8.57356C0.987305 9.89937 2.06216 10.9742 3.38805 10.9742Z" fill="#333333"/>
<path d="M3.38786 10.6312C4.52435 10.6312 5.44565 9.70993 5.44565 8.57352C5.44565 7.43711 4.52435 6.51587 3.38786 6.51587C2.25138 6.51587 1.33008 7.43711 1.33008 8.57352C1.33008 9.70993 2.25138 10.6312 3.38786 10.6312Z" stroke="white" stroke-width="0.685883"/>
<path d="M3.38805 19.8907C4.71395 19.8907 5.7888 18.8159 5.7888 17.4901C5.7888 16.1643 4.71395 15.0895 3.38805 15.0895C2.06216 15.0895 0.987305 16.1643 0.987305 17.4901C0.987305 18.8159 2.06216 19.8907 3.38805 19.8907Z" fill="#333333"/>
<path d="M3.38786 19.5477C4.52435 19.5477 5.44565 18.6264 5.44565 17.49C5.44565 16.3536 4.52435 15.4324 3.38786 15.4324C2.25138 15.4324 1.33008 16.3536 1.33008 17.49C1.33008 18.6264 2.25138 19.5477 3.38786 19.5477Z" stroke="white" stroke-width="0.685883"/>
</svg>
