<svg width="164" height="43" viewBox="0 0 164 43" fill="none" xmlns="http://www.w3.org/2000/svg">
<path d="M22.3391 10.4305C22.2182 10.3096 21.9938 10.1456 21.6658 9.93846C21.355 9.73129 20.9666 9.53276 20.5005 9.34285C20.0516 9.13569 19.5596 8.96305 19.0244 8.82493C18.4892 8.68682 17.9454 8.61776 17.3929 8.61776C16.4089 8.61776 15.6752 8.79904 15.1918 9.16158C14.7084 9.52413 14.4667 10.0334 14.4667 10.6894C14.4667 11.0693 14.553 11.3886 14.7256 11.6476C14.9155 11.8893 15.1831 12.1051 15.5284 12.295C15.8737 12.4849 16.3053 12.6575 16.8232 12.8129C17.3584 12.9683 17.9713 13.1323 18.6618 13.3049C19.5596 13.5466 20.371 13.8056 21.0961 14.0818C21.8384 14.358 22.4599 14.7033 22.9606 15.1177C23.4785 15.532 23.8756 16.0327 24.1518 16.6196C24.428 17.1893 24.5661 17.8972 24.5661 18.7431C24.5661 19.7272 24.3762 20.5731 23.9964 21.2809C23.6339 21.9715 23.1332 22.5326 22.4944 22.9642C21.8729 23.3958 21.1479 23.7151 20.3192 23.9223C19.5078 24.1122 18.6532 24.2072 17.7555 24.2072C16.3744 24.2072 15.0105 24 13.6639 23.5857C12.3173 23.1713 11.1088 22.5844 10.0385 21.8247L11.6181 18.7431C11.7735 18.8985 12.0497 19.1057 12.4468 19.3646C12.8611 19.6063 13.3445 19.8566 13.897 20.1156C14.4494 20.3573 15.0623 20.5645 15.7356 20.7371C16.4089 20.9097 17.0994 20.9961 17.8073 20.9961C19.7754 20.9961 20.7594 20.3659 20.7594 19.1057C20.7594 18.7086 20.6472 18.3719 20.4228 18.0957C20.1983 17.8195 19.8789 17.5778 19.4646 17.3706C19.0503 17.1635 18.5496 16.9735 17.9626 16.8009C17.3757 16.6283 16.7196 16.4384 15.9945 16.2312C15.1141 15.9895 14.3458 15.7305 13.6898 15.4543C13.051 15.1608 12.5158 14.8242 12.0842 14.4444C11.6526 14.0473 11.3246 13.5984 11.1002 13.0978C10.893 12.5799 10.7894 11.967 10.7894 11.2592C10.7894 10.3269 10.9621 9.49823 11.3074 8.77314C11.6526 8.04805 12.1274 7.44381 12.7316 6.96042C13.3532 6.47703 14.0696 6.11448 14.881 5.87279C15.6924 5.61383 16.5643 5.48435 17.4965 5.48435C18.7913 5.48435 19.9825 5.69151 21.0702 6.10585C22.1578 6.50292 23.1073 6.97768 23.9187 7.53013L22.3391 10.4305ZM40.0333 20.8666V24H27.2666V5.61383H39.8003V8.74724H30.8402V13.1755H38.5832V16.0758H30.8402V20.8666H40.0333ZM46.393 12.2173V24H42.8194V5.61383H45.5903L55.1718 17.6814V5.63972H58.7454V24H55.8451L46.393 12.2173ZM70.339 20.9702C71.1849 20.9702 71.8927 20.7975 72.4624 20.4522C73.0494 20.107 73.5155 19.6581 73.8608 19.1057C74.2234 18.5532 74.4737 17.9231 74.6118 17.2152C74.7672 16.4902 74.8449 15.7478 74.8449 14.9882V5.61383H78.3926V14.9882C78.3926 16.2485 78.2372 17.431 77.9265 18.5359C77.633 19.6408 77.1582 20.6076 76.5022 21.4363C75.8634 22.265 75.0348 22.921 74.0162 23.4044C72.9976 23.8878 71.7805 24.1295 70.3649 24.1295C68.8974 24.1295 67.6458 23.8792 66.6099 23.3785C65.5914 22.8606 64.7627 22.1873 64.1239 21.3586C63.4851 20.5127 63.019 19.5373 62.7255 18.4324C62.4493 17.3275 62.3112 16.1794 62.3112 14.9882V5.61383H65.8848V14.9882C65.8848 15.7651 65.9539 16.5161 66.092 17.2411C66.2474 17.949 66.4977 18.5791 66.843 19.1315C67.2055 19.684 67.6717 20.1329 68.2414 20.4781C68.8111 20.8062 69.5103 20.9702 70.339 20.9702ZM81.9922 24V5.61383H90.1235C90.9695 5.61383 91.7463 5.7951 92.4542 6.15764C93.1792 6.50292 93.8007 6.96905 94.3187 7.55603C94.8366 8.12574 95.2423 8.78177 95.5358 9.52413C95.8293 10.2492 95.976 10.9829 95.976 11.7253C95.976 12.9165 95.6739 14.0041 95.0697 14.9882C94.4827 15.955 93.6799 16.6542 92.6613 17.0858L96.8565 24H92.8426L89.0877 17.8367H85.5658V24H81.9922ZM85.5658 14.7033H90.0458C90.3738 14.7033 90.676 14.6256 90.9522 14.4703C91.2457 14.3149 91.496 14.1077 91.7032 13.8488C91.9103 13.5725 92.0743 13.2532 92.1952 12.8906C92.316 12.5281 92.3765 12.1396 92.3765 11.7253C92.3765 11.2937 92.3074 10.8966 92.1693 10.5341C92.0312 10.1715 91.8413 9.86077 91.5996 9.60181C91.3752 9.32559 91.1076 9.11842 90.7968 8.98031C90.5033 8.82493 90.2012 8.74724 89.8904 8.74724H85.5658V14.7033ZM104.167 5.61383H107.326L114.318 24H110.641L108.932 19.4164H102.509L100.826 24H97.149L104.167 5.61383ZM108.284 16.9045L105.746 9.6795L103.105 16.9045H108.284ZM131.147 19.261C131.147 20.0379 130.992 20.7198 130.681 21.3068C130.37 21.8938 129.939 22.3858 129.386 22.7829C128.851 23.18 128.221 23.4821 127.496 23.6892C126.788 23.8964 126.028 24 125.217 24H116.335V5.61383H126.175C126.814 5.61383 127.392 5.75194 127.91 6.02816C128.428 6.30439 128.868 6.66693 129.231 7.1158C129.593 7.5474 129.87 8.04805 130.06 8.61776C130.267 9.17021 130.37 9.73129 130.37 10.301C130.37 11.1987 130.146 12.0447 129.697 12.8388C129.248 13.6157 128.592 14.194 127.729 14.5738C128.782 14.8846 129.611 15.4457 130.215 16.2571C130.837 17.0512 131.147 18.0525 131.147 19.261ZM127.548 18.5877C127.548 18.2597 127.487 17.949 127.366 17.6555C127.263 17.3447 127.116 17.0771 126.926 16.8527C126.736 16.6283 126.512 16.4556 126.253 16.3348C125.994 16.1967 125.709 16.1276 125.398 16.1276H119.908V20.9702H125.217C125.545 20.9702 125.847 20.9097 126.123 20.7889C126.417 20.668 126.667 20.504 126.874 20.2969C127.082 20.0724 127.246 19.8135 127.366 19.52C127.487 19.2265 127.548 18.9157 127.548 18.5877ZM119.908 8.66956V13.3049H124.673C125.277 13.3049 125.787 13.0978 126.201 12.6834C126.633 12.2691 126.849 11.6994 126.849 10.9743C126.849 10.2665 126.65 9.7054 126.253 9.29106C125.873 8.87673 125.398 8.66956 124.829 8.66956H119.908ZM133.936 24V5.61383H137.51V20.8666H146.884V24H133.936ZM161.826 20.8666V24H149.059V5.61383H161.592V8.74724H152.632V13.1755H160.375V16.0758H152.632V20.8666H161.826Z" fill="#444444"/>
<path d="M13.6322 32.3893H14.404L15.5735 35.3365L16.7547 32.3893H17.5383L16.0881 35.9329L17.6786 39.687L20.6842 32.3308H21.5731L18.0529 40.6343H17.3278L15.5852 36.5293L13.831 40.6343H13.1176L9.60909 32.3308H10.4862L13.5035 39.687L15.0823 35.9329L13.6322 32.3893ZM24.4552 40.7512C24.0108 40.7512 23.6015 40.6694 23.2272 40.5056C22.8608 40.3341 22.5411 40.1041 22.2683 39.8156C21.9954 39.5194 21.781 39.1802 21.625 38.7982C21.4769 38.4161 21.4028 38.0068 21.4028 37.5702C21.4028 37.1414 21.4769 36.7399 21.625 36.3656C21.781 35.9836 21.9915 35.6522 22.2566 35.3715C22.5294 35.0831 22.853 34.857 23.2272 34.6932C23.6015 34.5217 24.0069 34.4359 24.4435 34.4359C24.8879 34.4359 25.2934 34.5217 25.6598 34.6932C26.034 34.857 26.3537 35.0831 26.6188 35.3715C26.8839 35.66 27.0905 35.9914 27.2386 36.3656C27.3868 36.7399 27.4608 37.1375 27.4608 37.5585C27.4608 37.6209 27.4608 37.6832 27.4608 37.7456C27.4608 37.808 27.4569 37.8509 27.4491 37.8743H22.2332C22.2566 38.2017 22.3306 38.5058 22.4554 38.7865C22.5879 39.0594 22.7556 39.2972 22.9583 39.4999C23.161 39.7026 23.391 39.8624 23.6483 39.9794C23.9134 40.0885 24.194 40.1431 24.4903 40.1431C24.6852 40.1431 24.8801 40.1158 25.0751 40.0612C25.27 40.0066 25.4493 39.9326 25.613 39.839C25.7768 39.7455 25.9249 39.6324 26.0574 39.4999C26.19 39.3595 26.2913 39.2075 26.3615 39.0438L27.0515 39.2309C26.9579 39.457 26.8254 39.6636 26.6539 39.8507C26.4824 40.03 26.2835 40.1899 26.0574 40.3302C25.8313 40.4628 25.5818 40.5641 25.309 40.6343C25.0361 40.7122 24.7515 40.7512 24.4552 40.7512ZM26.7007 37.2661C26.6773 36.9387 26.5993 36.6424 26.4668 36.3773C26.342 36.1044 26.1783 35.8705 25.9756 35.6756C25.7807 35.4807 25.5507 35.3287 25.2856 35.2195C25.0283 35.1104 24.7515 35.0558 24.4552 35.0558C24.1589 35.0558 23.8783 35.1104 23.6132 35.2195C23.3481 35.3287 23.1142 35.4807 22.9115 35.6756C22.7166 35.8705 22.5567 36.1044 22.432 36.3773C22.315 36.6502 22.2449 36.9465 22.2215 37.2661H26.7007ZM31.67 40.7512C31.1866 40.7512 30.7422 40.6304 30.3368 40.3887C29.9392 40.147 29.6273 39.8351 29.4012 39.4531V40.6343H28.6878V32.0969H29.4831V35.8159C29.7559 35.4027 30.0834 35.0714 30.4654 34.8219C30.8475 34.5646 31.2919 34.4359 31.7987 34.4359C32.2275 34.4359 32.6095 34.5256 32.9448 34.7049C33.2878 34.8842 33.5763 35.1259 33.8102 35.43C34.0519 35.7263 34.2351 36.0654 34.3599 36.4475C34.4924 36.8217 34.5587 37.2076 34.5587 37.6053C34.5587 38.0341 34.4846 38.4395 34.3365 38.8216C34.1883 39.2036 33.9856 39.5388 33.7283 39.8273C33.471 40.108 33.1631 40.3341 32.8044 40.5056C32.4536 40.6694 32.0754 40.7512 31.67 40.7512ZM31.4829 40.0495C31.8182 40.0495 32.1222 39.9833 32.3951 39.8507C32.6758 39.7104 32.9136 39.5272 33.1085 39.3011C33.3112 39.0672 33.4671 38.806 33.5763 38.5175C33.6932 38.2212 33.7517 37.9171 33.7517 37.6053C33.7517 37.2856 33.6971 36.9776 33.588 36.6814C33.4866 36.3851 33.3385 36.1239 33.1436 35.8978C32.9565 35.6639 32.7265 35.4807 32.4536 35.3481C32.1885 35.2078 31.8961 35.1376 31.5765 35.1376C31.3348 35.1376 31.1087 35.1805 30.8981 35.2663C30.6876 35.3443 30.4927 35.4534 30.3134 35.5937C30.1341 35.7341 29.9742 35.8978 29.8339 36.0849C29.6936 36.2643 29.5766 36.4553 29.4831 36.658V38.5526C29.5142 38.7631 29.5961 38.9619 29.7286 39.149C29.869 39.3283 30.0327 39.4843 30.2198 39.6168C30.4148 39.7494 30.6214 39.8546 30.8397 39.9326C31.0658 40.0105 31.2802 40.0495 31.4829 40.0495ZM43.9038 33.8863C43.6699 33.6212 43.358 33.4068 42.9682 33.2431C42.5784 33.0793 42.1339 32.9975 41.635 32.9975C40.9021 32.9975 40.368 33.1378 40.0327 33.4185C39.6975 33.6914 39.5299 34.0656 39.5299 34.5412C39.5299 34.7907 39.5727 34.9973 39.6585 35.161C39.7521 35.317 39.8924 35.4534 40.0795 35.5704C40.2666 35.6873 40.5044 35.7887 40.7929 35.8744C41.0892 35.9602 41.4361 36.0459 41.8338 36.1317C42.2782 36.2253 42.6758 36.3305 43.0267 36.4475C43.3853 36.5644 43.6894 36.7126 43.9389 36.8919C44.1884 37.0634 44.3794 37.2739 44.5119 37.5234C44.6445 37.7729 44.7107 38.0848 44.7107 38.459C44.7107 38.841 44.6367 39.1724 44.4885 39.4531C44.3404 39.7338 44.1338 39.9677 43.8687 40.1548C43.6036 40.3419 43.2878 40.4822 42.9214 40.5758C42.555 40.6616 42.1534 40.7044 41.7168 40.7044C40.4304 40.7044 39.3194 40.3029 38.3838 39.4999L38.7931 38.8333C38.9412 38.9892 39.1166 39.1373 39.3194 39.2777C39.5299 39.418 39.7599 39.5427 40.0094 39.6519C40.2666 39.7533 40.5395 39.8351 40.828 39.8975C41.1165 39.9521 41.4205 39.9794 41.7402 39.9794C42.4029 39.9794 42.9175 39.8624 43.2839 39.6285C43.6582 39.3868 43.8453 39.0243 43.8453 38.5409C43.8453 38.2836 43.7907 38.0692 43.6816 37.8977C43.5802 37.7183 43.4243 37.5663 43.2138 37.4415C43.0033 37.309 42.7421 37.196 42.4302 37.1024C42.1183 37.0088 41.7558 36.9153 41.3426 36.8217C40.906 36.7204 40.5239 36.6151 40.1965 36.506C39.869 36.3968 39.5922 36.2604 39.3661 36.0966C39.14 35.9329 38.9685 35.738 38.8516 35.5119C38.7424 35.278 38.6878 34.9934 38.6878 34.6581C38.6878 34.2761 38.758 33.937 38.8983 33.6407C39.0465 33.3366 39.2531 33.0871 39.5182 32.8922C39.7833 32.6895 40.0951 32.5375 40.4538 32.4361C40.8124 32.3269 41.21 32.2724 41.6467 32.2724C42.2002 32.2724 42.6914 32.3581 43.1202 32.5297C43.5568 32.6934 43.9506 32.9273 44.3014 33.2314L43.9038 33.8863ZM48.6218 40.7512C48.1774 40.7512 47.7681 40.6694 47.3938 40.5056C47.0274 40.3341 46.7077 40.1041 46.4348 39.8156C46.1619 39.5194 45.9475 39.1802 45.7916 38.7982C45.6435 38.4161 45.5694 38.0068 45.5694 37.5702C45.5694 37.1414 45.6435 36.7399 45.7916 36.3656C45.9475 35.9836 46.158 35.6522 46.4231 35.3715C46.696 35.0831 47.0196 34.857 47.3938 34.6932C47.7681 34.5217 48.1735 34.4359 48.6101 34.4359C49.0545 34.4359 49.4599 34.5217 49.8264 34.6932C50.2006 34.857 50.5203 35.0831 50.7854 35.3715C51.0504 35.66 51.2571 35.9914 51.4052 36.3656C51.5533 36.7399 51.6274 37.1375 51.6274 37.5585C51.6274 37.6209 51.6274 37.6832 51.6274 37.7456C51.6274 37.808 51.6235 37.8509 51.6157 37.8743H46.3997C46.4231 38.2017 46.4972 38.5058 46.6219 38.7865C46.7545 39.0594 46.9221 39.2972 47.1248 39.4999C47.3275 39.7026 47.5575 39.8624 47.8148 39.9794C48.0799 40.0885 48.3606 40.1431 48.6569 40.1431C48.8518 40.1431 49.0467 40.1158 49.2416 40.0612C49.4365 40.0066 49.6159 39.9326 49.7796 39.839C49.9433 39.7455 50.0915 39.6324 50.224 39.4999C50.3565 39.3595 50.4579 39.2075 50.5281 39.0438L51.2181 39.2309C51.1245 39.457 50.992 39.6636 50.8204 39.8507C50.6489 40.03 50.4501 40.1899 50.224 40.3302C49.9979 40.4628 49.7484 40.5641 49.4755 40.6343C49.2026 40.7122 48.9181 40.7512 48.6218 40.7512ZM50.8672 37.2661C50.8438 36.9387 50.7659 36.6424 50.6333 36.3773C50.5086 36.1044 50.3448 35.8705 50.1421 35.6756C49.9472 35.4807 49.7172 35.3287 49.4521 35.2195C49.1948 35.1104 48.9181 35.0558 48.6218 35.0558C48.3255 35.0558 48.0448 35.1104 47.7798 35.2195C47.5147 35.3287 47.2808 35.4807 47.0781 35.6756C46.8831 35.8705 46.7233 36.1044 46.5986 36.3773C46.4816 36.6502 46.4114 36.9465 46.388 37.2661H50.8672ZM55.8951 35.2429C55.3571 35.2585 54.8893 35.4066 54.4917 35.6873C54.094 35.968 53.8134 36.3539 53.6496 36.8451V40.6343H52.8544V34.5412H53.6028V36.0031C53.8289 35.5353 54.133 35.1688 54.5151 34.9037C54.8971 34.6387 55.3064 34.5061 55.743 34.5061C55.8054 34.5061 55.8561 34.51 55.8951 34.5178V35.2429ZM58.7789 40.6343L56.2995 34.5412H57.1182L59.2116 39.8975L61.3167 34.5412H62.0886L59.6092 40.6343H58.7789ZM63.1903 40.6343V34.5412H63.9855V40.6343H63.1903ZM63.1903 33.2664V32.0969H63.9855V33.2664H63.1903ZM65.3161 37.5702C65.3161 37.1414 65.3902 36.736 65.5383 36.3539C65.6864 35.9719 65.893 35.6405 66.1581 35.3598C66.431 35.0714 66.7546 34.8453 67.1288 34.6815C67.5031 34.5178 67.9163 34.4359 68.3685 34.4359C68.9454 34.4359 69.4483 34.5685 69.8771 34.8336C70.3059 35.0909 70.6295 35.4417 70.8478 35.8861L70.0759 36.1317C69.9044 35.8198 69.6627 35.5781 69.3509 35.4066C69.0468 35.2273 68.7076 35.1376 68.3334 35.1376C68.0215 35.1376 67.7292 35.2 67.4563 35.3248C67.1912 35.4495 66.9573 35.621 66.7546 35.8393C66.5597 36.0498 66.4037 36.3032 66.2868 36.5995C66.1776 36.8958 66.123 37.2193 66.123 37.5702C66.123 37.9132 66.1815 38.2368 66.2985 38.5409C66.4154 38.8449 66.5753 39.11 66.778 39.3361C66.9807 39.5544 67.2146 39.7299 67.4797 39.8624C67.7525 39.9872 68.041 40.0495 68.3451 40.0495C68.54 40.0495 68.731 40.0222 68.9181 39.9677C69.1131 39.9131 69.2924 39.839 69.4561 39.7455C69.6198 39.6441 69.7602 39.5311 69.8771 39.4063C69.9941 39.2816 70.0759 39.149 70.1227 39.0087L70.9063 39.2426C70.8205 39.4609 70.6958 39.6636 70.5321 39.8507C70.3683 40.03 70.1734 40.1899 69.9473 40.3302C69.729 40.4628 69.4834 40.5641 69.2105 40.6343C68.9454 40.7122 68.6687 40.7512 68.3802 40.7512C67.9358 40.7512 67.5264 40.6694 67.1522 40.5056C66.778 40.3341 66.4544 40.1041 66.1815 39.8156C65.9086 39.5194 65.6942 39.1802 65.5383 38.7982C65.3902 38.4161 65.3161 38.0068 65.3161 37.5702ZM74.7299 40.7512C74.2855 40.7512 73.8762 40.6694 73.5019 40.5056C73.1355 40.3341 72.8158 40.1041 72.5429 39.8156C72.2701 39.5194 72.0557 39.1802 71.8997 38.7982C71.7516 38.4161 71.6775 38.0068 71.6775 37.5702C71.6775 37.1414 71.7516 36.7399 71.8997 36.3656C72.0557 35.9836 72.2662 35.6522 72.5313 35.3715C72.8041 35.0831 73.1277 34.857 73.5019 34.6932C73.8762 34.5217 74.2816 34.4359 74.7182 34.4359C75.1626 34.4359 75.568 34.5217 75.9345 34.6932C76.3087 34.857 76.6284 35.0831 76.8935 35.3715C77.1586 35.66 77.3652 35.9914 77.5133 36.3656C77.6614 36.7399 77.7355 37.1375 77.7355 37.5585C77.7355 37.6209 77.7355 37.6832 77.7355 37.7456C77.7355 37.808 77.7316 37.8509 77.7238 37.8743H72.5079C72.5313 38.2017 72.6053 38.5058 72.7301 38.7865C72.8626 39.0594 73.0302 39.2972 73.233 39.4999C73.4357 39.7026 73.6657 39.8624 73.923 39.9794C74.188 40.0885 74.4687 40.1431 74.765 40.1431C74.9599 40.1431 75.1548 40.1158 75.3497 40.0612C75.5447 40.0066 75.724 39.9326 75.8877 39.839C76.0514 39.7455 76.1996 39.6324 76.3321 39.4999C76.4647 39.3595 76.566 39.2075 76.6362 39.0438L77.3262 39.2309C77.2326 39.457 77.1001 39.6636 76.9286 39.8507C76.757 40.03 76.5582 40.1899 76.3321 40.3302C76.106 40.4628 75.8565 40.5641 75.5836 40.6343C75.3108 40.7122 75.0262 40.7512 74.7299 40.7512ZM76.9753 37.2661C76.952 36.9387 76.874 36.6424 76.7414 36.3773C76.6167 36.1044 76.453 35.8705 76.2503 35.6756C76.0553 35.4807 75.8253 35.3287 75.5603 35.2195C75.303 35.1104 75.0262 35.0558 74.7299 35.0558C74.4336 35.0558 74.153 35.1104 73.8879 35.2195C73.6228 35.3287 73.3889 35.4807 73.1862 35.6756C72.9913 35.8705 72.8314 36.1044 72.7067 36.3773C72.5897 36.6502 72.5196 36.9465 72.4962 37.2661H76.9753ZM80.9857 40.7512C80.5101 40.7512 80.0462 40.6733 79.594 40.5173C79.1418 40.3614 78.752 40.1353 78.4245 39.839L78.7871 39.3011C79.1301 39.5817 79.4771 39.7922 79.8279 39.9326C80.1866 40.0729 80.5686 40.1431 80.974 40.1431C81.4652 40.1431 81.855 40.0456 82.1435 39.8507C82.4398 39.648 82.5879 39.3634 82.5879 38.997C82.5879 38.8255 82.5489 38.6851 82.471 38.576C82.393 38.459 82.2761 38.3577 82.1201 38.2719C81.972 38.1861 81.781 38.1121 81.5471 38.0497C81.321 37.9795 81.0559 37.9093 80.7518 37.8392C80.401 37.7534 80.0969 37.6677 79.8396 37.5819C79.5823 37.4961 79.3679 37.3987 79.1964 37.2895C79.0327 37.1804 78.9079 37.0478 78.8221 36.8919C78.7442 36.7282 78.7052 36.5254 78.7052 36.2837C78.7052 35.9797 78.7637 35.7107 78.8806 35.4768C79.0054 35.2429 79.1691 35.0519 79.3718 34.9037C79.5823 34.7478 79.824 34.6309 80.0969 34.5529C80.3776 34.4749 80.6738 34.4359 80.9857 34.4359C81.4535 34.4359 81.8784 34.5139 82.2605 34.6698C82.6425 34.818 82.9505 35.0168 83.1844 35.2663L82.7984 35.7341C82.5723 35.5002 82.2955 35.3248 81.9681 35.2078C81.6484 35.0909 81.3132 35.0324 80.9623 35.0324C80.7518 35.0324 80.5569 35.0558 80.3776 35.1026C80.1982 35.1415 80.0384 35.2078 79.8981 35.3014C79.7655 35.3949 79.6603 35.5158 79.5823 35.6639C79.5043 35.8043 79.4654 35.9719 79.4654 36.1668C79.4654 36.3305 79.4927 36.4631 79.5472 36.5644C79.6018 36.6658 79.6915 36.7554 79.8162 36.8334C79.941 36.9036 80.0969 36.9699 80.284 37.0322C80.4789 37.0868 80.7128 37.1453 80.9857 37.2076C81.3755 37.3012 81.7186 37.3948 82.0149 37.4883C82.3111 37.5819 82.5567 37.691 82.7517 37.8158C82.9544 37.9405 83.1064 38.0926 83.2078 38.2719C83.3091 38.4512 83.3598 38.6695 83.3598 38.9268C83.3598 39.4882 83.1454 39.9326 82.7166 40.26C82.2878 40.5875 81.7108 40.7512 80.9857 40.7512ZM87.9347 40.6343V35.1727H87.0927V34.5412H87.9347V34.3775C87.9347 33.629 88.0946 33.0442 88.4142 32.6232C88.7339 32.1944 89.1705 31.98 89.7241 31.98C89.9658 31.98 90.1997 32.0151 90.4258 32.0853C90.6519 32.1554 90.8468 32.249 91.0105 32.3659L90.7649 32.939C90.6558 32.8532 90.5193 32.7869 90.3556 32.7402C90.1997 32.6934 90.0398 32.67 89.8761 32.67C89.5019 32.67 89.2173 32.8142 89.0224 33.1027C88.8274 33.3912 88.73 33.8083 88.73 34.3541V34.5412H90.4141V35.1727H88.73V40.6343H87.9347ZM93.7905 40.7512C93.3461 40.7512 92.9407 40.6694 92.5742 40.5056C92.2078 40.3341 91.8881 40.1041 91.6153 39.8156C91.3502 39.5272 91.1436 39.1919 90.9954 38.8099C90.8473 38.4278 90.7732 38.0263 90.7732 37.6053C90.7732 37.1765 90.8473 36.771 90.9954 36.389C91.1514 36.007 91.3619 35.6717 91.627 35.3832C91.8998 35.0948 92.2195 34.8648 92.5859 34.6932C92.9524 34.5217 93.3539 34.4359 93.7905 34.4359C94.2271 34.4359 94.6287 34.5217 94.9951 34.6932C95.3693 34.8648 95.689 35.0948 95.9541 35.3832C96.227 35.6717 96.4375 36.007 96.5856 36.389C96.7416 36.771 96.8195 37.1765 96.8195 37.6053C96.8195 38.0263 96.7455 38.4278 96.5973 38.8099C96.4492 39.1919 96.2387 39.5272 95.9658 39.8156C95.7007 40.1041 95.381 40.3341 95.0068 40.5056C94.6404 40.6694 94.2349 40.7512 93.7905 40.7512ZM91.5802 37.617C91.5802 37.96 91.6386 38.2797 91.7556 38.576C91.8725 38.8644 92.0285 39.1217 92.2234 39.3478C92.4261 39.5661 92.66 39.7377 92.9251 39.8624C93.198 39.9872 93.4865 40.0495 93.7905 40.0495C94.0946 40.0495 94.3792 39.9872 94.6443 39.8624C94.9171 39.7299 95.1549 39.5544 95.3577 39.3361C95.5604 39.11 95.7202 38.8488 95.8371 38.5526C95.9541 38.2563 96.0126 37.9366 96.0126 37.5936C96.0126 37.2583 95.9541 36.9426 95.8371 36.6463C95.7202 36.3422 95.5604 36.081 95.3577 35.8627C95.1549 35.6366 94.9171 35.4612 94.6443 35.3365C94.3792 35.2039 94.0946 35.1376 93.7905 35.1376C93.4865 35.1376 93.2019 35.2039 92.9368 35.3365C92.6717 35.4612 92.4378 35.6366 92.2351 35.8627C92.0324 36.0888 91.8725 36.3539 91.7556 36.658C91.6386 36.9543 91.5802 37.2739 91.5802 37.617ZM101.19 35.2429C100.652 35.2585 100.184 35.4066 99.7869 35.6873C99.3892 35.968 99.1085 36.3539 98.9448 36.8451V40.6343H98.1496V34.5412H98.898V36.0031C99.1241 35.5353 99.4282 35.1688 99.8102 34.9037C100.192 34.6387 100.602 34.5061 101.038 34.5061C101.101 34.5061 101.151 34.51 101.19 34.5178V35.2429ZM111.354 38.4941C111.354 38.806 111.291 39.0944 111.167 39.3595C111.042 39.6168 110.874 39.8429 110.664 40.0378C110.453 40.225 110.208 40.3731 109.927 40.4822C109.646 40.5836 109.346 40.6343 109.027 40.6343H105.109V32.3308H109.108C109.397 32.3308 109.658 32.3932 109.892 32.518C110.126 32.6427 110.325 32.8064 110.488 33.0092C110.652 33.2041 110.777 33.4302 110.863 33.6875C110.956 33.937 111.003 34.1903 111.003 34.4476C111.003 34.8687 110.898 35.2546 110.687 35.6054C110.477 35.9485 110.184 36.2058 109.81 36.3773C110.286 36.5176 110.66 36.7788 110.933 37.1609C111.213 37.5429 111.354 37.9873 111.354 38.4941ZM110.535 38.3538C110.535 38.151 110.5 37.9561 110.43 37.769C110.36 37.5741 110.258 37.4065 110.126 37.2661C110.001 37.118 109.849 37.001 109.67 36.9153C109.498 36.8217 109.311 36.7749 109.108 36.7749H105.927V39.9209H109.027C109.237 39.9209 109.432 39.878 109.611 39.7922C109.798 39.7065 109.958 39.5934 110.091 39.4531C110.231 39.3049 110.34 39.1373 110.418 38.9502C110.496 38.7553 110.535 38.5565 110.535 38.3538ZM105.927 33.0442V36.1083H108.781C108.984 36.1083 109.171 36.0654 109.342 35.9797C109.522 35.8939 109.674 35.7809 109.798 35.6405C109.923 35.5002 110.021 35.3404 110.091 35.161C110.161 34.9739 110.196 34.779 110.196 34.5763C110.196 34.3658 110.161 34.167 110.091 33.9798C110.028 33.7927 109.935 33.6329 109.81 33.5003C109.693 33.36 109.553 33.2508 109.389 33.1729C109.225 33.0871 109.046 33.0442 108.851 33.0442H105.927ZM114.64 40.7512C113.978 40.7512 113.482 40.5329 113.155 40.0963C112.835 39.6519 112.676 38.9931 112.676 38.1199V34.5412H113.471V37.9795C113.471 39.3595 113.942 40.0495 114.886 40.0495C115.12 40.0495 115.35 40.0105 115.576 39.9326C115.802 39.8546 116.009 39.7416 116.196 39.5934C116.391 39.4453 116.562 39.2699 116.71 39.0672C116.866 38.8644 116.991 38.6344 117.085 38.3771V34.5412H117.88V39.6051C117.88 39.8234 117.973 39.9326 118.16 39.9326V40.6343C118.067 40.6499 117.989 40.6577 117.927 40.6577C117.872 40.6577 117.833 40.6577 117.81 40.6577C117.623 40.6499 117.47 40.5836 117.354 40.4589C117.237 40.3341 117.178 40.1665 117.178 39.956V39.2543C116.913 39.7299 116.55 40.1002 116.09 40.3653C115.638 40.6226 115.155 40.7512 114.64 40.7512ZM121.701 40.7512C121.226 40.7512 120.762 40.6733 120.309 40.5173C119.857 40.3614 119.467 40.1353 119.14 39.839L119.502 39.3011C119.846 39.5817 120.192 39.7922 120.543 39.9326C120.902 40.0729 121.284 40.1431 121.689 40.1431C122.181 40.1431 122.57 40.0456 122.859 39.8507C123.155 39.648 123.303 39.3634 123.303 38.997C123.303 38.8255 123.264 38.6851 123.186 38.576C123.108 38.459 122.991 38.3577 122.836 38.2719C122.687 38.1861 122.496 38.1121 122.262 38.0497C122.036 37.9795 121.771 37.9093 121.467 37.8392C121.116 37.7534 120.812 37.6677 120.555 37.5819C120.298 37.4961 120.083 37.3987 119.912 37.2895C119.748 37.1804 119.623 37.0478 119.538 36.8919C119.46 36.7282 119.421 36.5254 119.421 36.2837C119.421 35.9797 119.479 35.7107 119.596 35.4768C119.721 35.2429 119.885 35.0519 120.087 34.9037C120.298 34.7478 120.539 34.6309 120.812 34.5529C121.093 34.4749 121.389 34.4359 121.701 34.4359C122.169 34.4359 122.594 34.5139 122.976 34.6698C123.358 34.818 123.666 35.0168 123.9 35.2663L123.514 35.7341C123.288 35.5002 123.011 35.3248 122.684 35.2078C122.364 35.0909 122.029 35.0324 121.678 35.0324C121.467 35.0324 121.272 35.0558 121.093 35.1026C120.914 35.1415 120.754 35.2078 120.613 35.3014C120.481 35.3949 120.376 35.5158 120.298 35.6639C120.22 35.8043 120.181 35.9719 120.181 36.1668C120.181 36.3305 120.208 36.4631 120.263 36.5644C120.317 36.6658 120.407 36.7554 120.532 36.8334C120.656 36.9036 120.812 36.9699 120.999 37.0322C121.194 37.0868 121.428 37.1453 121.701 37.2076C122.091 37.3012 122.434 37.3948 122.73 37.4883C123.027 37.5819 123.272 37.691 123.467 37.8158C123.67 37.9405 123.822 38.0926 123.923 38.2719C124.025 38.4512 124.075 38.6695 124.075 38.9268C124.075 39.4882 123.861 39.9326 123.432 40.26C123.003 40.5875 122.426 40.7512 121.701 40.7512ZM125.377 40.6343V34.5412H126.172V40.6343H125.377ZM125.377 33.2664V32.0969H126.172V33.2664H125.377ZM133.046 40.6343H132.251V37.231C132.251 36.506 132.142 35.9797 131.923 35.6522C131.713 35.3248 131.385 35.161 130.941 35.161C130.707 35.161 130.473 35.2039 130.239 35.2897C130.005 35.3754 129.787 35.4963 129.584 35.6522C129.39 35.8082 129.214 35.9953 129.058 36.2136C128.902 36.4241 128.789 36.6541 128.719 36.9036V40.6343H127.924V34.5412H128.649V35.9212C128.898 35.4768 129.253 35.1181 129.713 34.8453C130.181 34.5724 130.688 34.4359 131.233 34.4359C131.569 34.4359 131.853 34.4983 132.087 34.6231C132.321 34.7478 132.508 34.9232 132.649 35.1493C132.789 35.3754 132.89 35.6522 132.953 35.9797C133.015 36.3071 133.046 36.6697 133.046 37.0673V40.6343ZM137.373 40.7512C136.929 40.7512 136.52 40.6694 136.145 40.5056C135.779 40.3341 135.459 40.1041 135.186 39.8156C134.914 39.5194 134.699 39.1802 134.543 38.7982C134.395 38.4161 134.321 38.0068 134.321 37.5702C134.321 37.1414 134.395 36.7399 134.543 36.3656C134.699 35.9836 134.91 35.6522 135.175 35.3715C135.448 35.0831 135.771 34.857 136.145 34.6932C136.52 34.5217 136.925 34.4359 137.362 34.4359C137.806 34.4359 138.212 34.5217 138.578 34.6932C138.952 34.857 139.272 35.0831 139.537 35.3715C139.802 35.66 140.009 35.9914 140.157 36.3656C140.305 36.7399 140.379 37.1375 140.379 37.5585C140.379 37.6209 140.379 37.6832 140.379 37.7456C140.379 37.808 140.375 37.8509 140.367 37.8743H135.151C135.175 38.2017 135.249 38.5058 135.374 38.7865C135.506 39.0594 135.674 39.2972 135.876 39.4999C136.079 39.7026 136.309 39.8624 136.566 39.9794C136.832 40.0885 137.112 40.1431 137.408 40.1431C137.603 40.1431 137.798 40.1158 137.993 40.0612C138.188 40.0066 138.367 39.9326 138.531 39.839C138.695 39.7455 138.843 39.6324 138.976 39.4999C139.108 39.3595 139.21 39.2075 139.28 39.0438L139.97 39.2309C139.876 39.457 139.744 39.6636 139.572 39.8507C139.401 40.03 139.202 40.1899 138.976 40.3302C138.75 40.4628 138.5 40.5641 138.227 40.6343C137.954 40.7122 137.67 40.7512 137.373 40.7512ZM139.619 37.2661C139.595 36.9387 139.517 36.6424 139.385 36.3773C139.26 36.1044 139.096 35.8705 138.894 35.6756C138.699 35.4807 138.469 35.3287 138.204 35.2195C137.946 35.1104 137.67 35.0558 137.373 35.0558C137.077 35.0558 136.796 35.1104 136.531 35.2195C136.266 35.3287 136.032 35.4807 135.83 35.6756C135.635 35.8705 135.475 36.1044 135.35 36.3773C135.233 36.6502 135.163 36.9465 135.14 37.2661H139.619ZM143.629 40.7512C143.154 40.7512 142.69 40.6733 142.238 40.5173C141.785 40.3614 141.395 40.1353 141.068 39.839L141.431 39.3011C141.774 39.5817 142.121 39.7922 142.471 39.9326C142.83 40.0729 143.212 40.1431 143.618 40.1431C144.109 40.1431 144.499 40.0456 144.787 39.8507C145.083 39.648 145.231 39.3634 145.231 38.997C145.231 38.8255 145.192 38.6851 145.114 38.576C145.037 38.459 144.92 38.3577 144.764 38.2719C144.615 38.1861 144.424 38.1121 144.191 38.0497C143.964 37.9795 143.699 37.9093 143.395 37.8392C143.044 37.7534 142.74 37.6677 142.483 37.5819C142.226 37.4961 142.011 37.3987 141.84 37.2895C141.676 37.1804 141.551 37.0478 141.466 36.8919C141.388 36.7282 141.349 36.5254 141.349 36.2837C141.349 35.9797 141.407 35.7107 141.524 35.4768C141.649 35.2429 141.813 35.0519 142.015 34.9037C142.226 34.7478 142.468 34.6309 142.74 34.5529C143.021 34.4749 143.317 34.4359 143.629 34.4359C144.097 34.4359 144.522 34.5139 144.904 34.6698C145.286 34.818 145.594 35.0168 145.828 35.2663L145.442 35.7341C145.216 35.5002 144.939 35.3248 144.612 35.2078C144.292 35.0909 143.957 35.0324 143.606 35.0324C143.395 35.0324 143.2 35.0558 143.021 35.1026C142.842 35.1415 142.682 35.2078 142.542 35.3014C142.409 35.3949 142.304 35.5158 142.226 35.6639C142.148 35.8043 142.109 35.9719 142.109 36.1668C142.109 36.3305 142.136 36.4631 142.191 36.5644C142.245 36.6658 142.335 36.7554 142.46 36.8334C142.584 36.9036 142.74 36.9699 142.928 37.0322C143.122 37.0868 143.356 37.1453 143.629 37.2076C144.019 37.3012 144.362 37.3948 144.658 37.4883C144.955 37.5819 145.2 37.691 145.395 37.8158C145.598 37.9405 145.75 38.0926 145.851 38.2719C145.953 38.4512 146.003 38.6695 146.003 38.9268C146.003 39.4882 145.789 39.9326 145.36 40.26C144.931 40.5875 144.354 40.7512 143.629 40.7512ZM149.328 40.7512C148.853 40.7512 148.389 40.6733 147.937 40.5173C147.484 40.3614 147.094 40.1353 146.767 39.839L147.13 39.3011C147.473 39.5817 147.82 39.7922 148.17 39.9326C148.529 40.0729 148.911 40.1431 149.317 40.1431C149.808 40.1431 150.198 40.0456 150.486 39.8507C150.782 39.648 150.93 39.3634 150.93 38.997C150.93 38.8255 150.891 38.6851 150.813 38.576C150.736 38.459 150.619 38.3577 150.463 38.2719C150.315 38.1861 150.123 38.1121 149.89 38.0497C149.663 37.9795 149.398 37.9093 149.094 37.8392C148.743 37.7534 148.439 37.6677 148.182 37.5819C147.925 37.4961 147.71 37.3987 147.539 37.2895C147.375 37.1804 147.25 37.0478 147.165 36.8919C147.087 36.7282 147.048 36.5254 147.048 36.2837C147.048 35.9797 147.106 35.7107 147.223 35.4768C147.348 35.2429 147.512 35.0519 147.714 34.9037C147.925 34.7478 148.167 34.6309 148.439 34.5529C148.72 34.4749 149.016 34.4359 149.328 34.4359C149.796 34.4359 150.221 34.5139 150.603 34.6698C150.985 34.818 151.293 35.0168 151.527 35.2663L151.141 35.7341C150.915 35.5002 150.638 35.3248 150.311 35.2078C149.991 35.0909 149.656 35.0324 149.305 35.0324C149.094 35.0324 148.899 35.0558 148.72 35.1026C148.541 35.1415 148.381 35.2078 148.241 35.3014C148.108 35.3949 148.003 35.5158 147.925 35.6639C147.847 35.8043 147.808 35.9719 147.808 36.1668C147.808 36.3305 147.835 36.4631 147.89 36.5644C147.944 36.6658 148.034 36.7554 148.159 36.8334C148.283 36.9036 148.439 36.9699 148.627 37.0322C148.821 37.0868 149.055 37.1453 149.328 37.2076C149.718 37.3012 150.061 37.3948 150.357 37.4883C150.654 37.5819 150.899 37.691 151.094 37.8158C151.297 37.9405 151.449 38.0926 151.55 38.2719C151.652 38.4512 151.702 38.6695 151.702 38.9268C151.702 39.4882 151.488 39.9326 151.059 40.26C150.63 40.5875 150.053 40.7512 149.328 40.7512Z" fill="#444444"/>
<path d="M3.31385 14.9231C5.14405 14.9231 6.62771 13.4395 6.62771 11.6093C6.62771 9.77907 5.14405 8.29541 3.31385 8.29541C1.48366 8.29541 0 9.77907 0 11.6093C0 13.4395 1.48366 14.9231 3.31385 14.9231Z" fill="#444444"/>
<path d="M3.31385 25.6887C5.14405 25.6887 6.62771 24.2051 6.62771 22.3749C6.62771 20.5447 5.14405 19.061 3.31385 19.061C1.48366 19.061 0 20.5447 0 22.3749C0 24.2051 1.48366 25.6887 3.31385 25.6887Z" fill="#444444"/>
</svg>
