<svg width="20" height="21" viewBox="0 0 20 21" fill="none" xmlns="http://www.w3.org/2000/svg">
<path d="M10 0.541992C4.48601 0.541992 0 5.028 0 10.5426C0 16.0566 4.4854 20.5426 10 20.5426C10.341 20.5426 10.6165 20.2665 10.6165 19.9267C10.6165 19.5863 10.341 19.3101 10 19.3101C5.16562 19.3101 1.2337 15.377 1.2337 10.5432C1.2337 5.70883 5.16562 1.77569 10 1.77569C14.8344 1.77569 18.7657 5.70883 18.7657 10.5432C18.7657 12.5631 17.6906 14.5664 16.152 15.4137C15.593 15.7211 14.9868 15.8735 14.3403 15.8797C14.7285 15.6482 15.0646 15.3366 15.3144 14.9423C15.3634 14.8682 15.4283 14.8039 15.4601 14.7225C15.6609 14.2394 15.6787 13.6914 15.7999 13.182C15.9487 12.5294 12.948 11.2577 12.6872 12.0708C12.5929 12.3726 12.4484 13.3247 12.2592 13.5757C12.0909 13.7992 11.6757 13.6939 11.4162 13.4729C10.7323 12.89 9.96877 12.0328 9.29896 11.3563L9.30019 11.3557C9.28305 11.3379 9.26223 11.3177 9.24386 11.3C9.22488 11.2816 9.2059 11.262 9.18692 11.2436C8.50977 10.5744 7.65261 9.81218 7.07035 9.12645C6.84994 8.86686 6.7434 8.45297 6.96749 8.28399C7.21851 8.09419 8.17119 7.95153 8.47242 7.85663C9.28427 7.59642 8.01322 4.59391 7.36056 4.74391C6.85116 4.86331 6.30319 4.88167 5.82012 5.08188C5.73808 5.11617 5.6744 5.17984 5.60032 5.22882C3.88661 6.31558 3.66558 8.95319 5.33827 10.9179C5.97563 11.6698 6.64054 12.3971 7.32505 13.1074L7.32137 13.1098C7.34035 13.1288 7.35995 13.1465 7.37954 13.1649C7.39791 13.1839 7.41566 13.2029 7.43342 13.2231L7.43709 13.2194C8.14731 13.9039 8.98916 14.9117 10.3569 15.8245C13.2364 17.7477 15.446 17.2107 16.7477 16.4968C18.9947 15.2594 20 12.6163 20 10.5463C20.0006 5.028 15.514 0.541992 10 0.541992Z" fill="white"/>
</svg>
