<svg width="30" height="14" viewBox="0 0 30 14" fill="none" xmlns="http://www.w3.org/2000/svg">
<path d="M29.7417 11.6294C29.659 12.2509 29.0847 12.6668 28.2701 12.7782C26.7087 12.9925 25.3066 12.9925 19.4576 12.9925H19.4371H5.98618C5.93847 12.9925 5.89063 12.9814 5.84705 12.9588C5.84694 12.9587 5.84683 12.9587 5.84672 12.9586L3.58799 11.7997C3.48633 11.7478 3.42275 11.6433 3.42275 11.5293V11.3267L1.61046 11.6877L1.60963 11.6878C1.59033 11.6915 1.57088 11.6934 1.55107 11.6934C1.48155 11.6934 1.41323 11.6696 1.35835 11.6245L1.35832 11.6245C1.28789 11.5667 1.24709 11.4806 1.24709 11.3897V8.85189C1.24709 8.7608 1.28779 8.67452 1.35862 8.61682C1.42912 8.5594 1.52143 8.53658 1.61004 8.55383L1.6105 8.55393L1.972 8.62608V6.8278C1.972 6.73672 2.01269 6.65043 2.08353 6.59274C2.15403 6.53531 2.24633 6.51249 2.33494 6.52975L2.33536 6.52983L3.39137 6.7401C3.41762 6.68777 3.44591 6.64055 3.4757 6.59816L2.86224 6.28251L2.862 6.28238L29.6426 11.6163M29.7417 11.6294L29.6426 11.6163M29.7417 11.6294C29.7417 11.6295 29.7417 11.6295 29.7417 11.6295L29.6426 11.6163M29.7417 11.6294C29.8097 11.1202 29.5052 10.6235 29.0122 10.4145L29.0122 10.4145C28.324 10.1236 26.2471 9.05504 25.817 8.83299M29.6426 11.6163C29.7041 11.1556 29.4286 10.6996 28.9732 10.5066C28.2665 10.2079 26.1138 9.09886 25.7469 8.90932M25.817 8.83299C25.8225 8.84145 25.8275 8.84945 25.8321 8.85694L25.7469 8.90932M25.817 8.83299C25.8083 8.82846 25.8002 8.82429 25.7928 8.82048L25.7469 8.90932M25.817 8.83299C25.6406 8.55828 25.0228 7.79225 23.6365 7.79225C22.2585 7.79225 10.0241 7.39218 8.56093 7.34414M25.7469 8.90932C25.6041 8.6771 25.0195 7.89225 23.6365 7.89225C22.2404 7.89225 9.73372 7.48273 8.51111 7.44256M8.51111 7.44256L8.58973 7.38076C8.58099 7.36965 8.57138 7.35743 8.56093 7.34414M8.51111 7.44256C8.0498 6.85573 5.19192 3.23058 4.20309 2.24207M8.51111 7.44256L8.51439 7.34262C8.52843 7.34308 8.54396 7.34359 8.56093 7.34414M8.56093 7.34414C8.02257 6.65975 5.24914 3.14639 4.27381 2.17136M4.20309 2.24207L4.27381 2.17136M4.20309 2.24207L4.27379 2.17135C4.2738 2.17135 4.2738 2.17135 4.27381 2.17136M4.20309 2.24207L2.81197 6.08815L2.71918 6.12545C2.71916 6.12539 2.71914 6.12534 2.71912 6.12529C2.65549 5.967 1.1755 2.27976 0.994295 1.79842L0.994215 1.79821C0.956497 1.69731 0.917526 1.58432 0.90457 1.47307C0.89138 1.35981 0.904129 1.2397 0.978712 1.13226M4.27381 2.17136C3.73847 1.63603 3.37715 1.31767 3.07612 1.13413C2.76818 0.94637 2.52387 0.9 2.22985 0.9H2.22854V0.900008L2.08419 0.901891L2.08315 0.901904V0.90191C2.02998 0.903154 1.97369 0.904079 1.91321 0.904079L1.90383 0.904079C1.6708 0.904075 1.48286 0.904071 1.33774 0.928624C1.18545 0.954392 1.06361 1.00979 0.978712 1.13226M0.978712 1.13226L1.0609 1.18923L0.978758 1.13219C0.978743 1.13221 0.978727 1.13224 0.978712 1.13226ZM3.92916 9.09601C3.9304 9.10515 3.93102 9.11438 3.93102 9.12365V11.2254H4.03102V9.12365C4.03102 9.06806 4.0159 9.01288 3.98635 8.96487L3.92916 9.09601ZM8.01253 7.631C7.34485 6.78426 4.74467 3.50186 3.84431 2.60149C3.3068 2.06398 2.98794 1.79112 2.75977 1.65163C2.64746 1.58297 2.55939 1.54811 2.47986 1.52966C2.39982 1.51109 2.32377 1.50797 2.23084 1.50796C2.23062 1.50796 2.23039 1.50796 2.23016 1.50796L2.09508 1.50982C2.09502 1.50982 2.09496 1.50982 2.0949 1.50983C2.03195 1.51092 1.95904 1.51117 1.88602 1.51141C1.82581 1.51161 1.76553 1.51182 1.71067 1.5125C1.64568 1.5133 1.58766 1.5148 1.53989 1.51733C1.54651 1.53686 1.55446 1.55917 1.56402 1.58457C1.72561 2.01415 2.99249 5.17254 3.24172 5.79349L4.19826 6.28571C4.32272 6.34963 4.37719 6.48638 4.35242 6.61428C4.32611 6.75015 4.2078 6.84741 4.07655 6.8593L8.01253 7.631ZM29.1386 11.5494C29.1689 11.3213 29.026 11.0811 28.7745 10.9747C28.5593 10.8838 28.2239 10.7246 27.8498 10.5416C27.75 10.9101 27.6358 11.5539 27.7892 12.2258C27.9227 12.2106 28.0544 12.1941 28.187 12.1762C28.7781 12.0951 29.0998 11.8419 29.1386 11.5494ZM4.98485 11.8336L6.05929 12.3849H19.4371C24.0266 12.3849 25.8648 12.3848 27.1784 12.2839C27.1472 12.1306 27.1277 11.9801 27.1169 11.8336H4.98485ZM3.42244 9.53487L1.85473 9.22233V11.0192L3.42244 10.7067V9.53487ZM3.22973 7.32741L2.57964 7.19791V8.74663L3.20236 8.87074L3.31674 8.84796C3.26044 8.59706 3.21061 8.2224 3.21061 7.67353C3.21061 7.54679 3.21758 7.43215 3.22973 7.32741Z" fill="white" stroke="#999999" stroke-width="0.2"/>
</svg>
